<?xml version="1.0" encoding="utf-8"?>
<!-- Generator: Adobe Illustrator 22.1.0, SVG Export Plug-In . SVG Version: 6.00 Build 0)  -->
<svg version="1.1" id="Livello_1" xmlns="http://www.w3.org/2000/svg" xmlns:xlink="http://www.w3.org/1999/xlink" x="0px" y="0px"
	 viewBox="0 0 841.9 595.3" style="enable-background:new 0 0 841.9 595.3;" xml:space="preserve">
<style type="text/css">
	.st0{fill:#FEFEFE;}
	.st1{fill:#21464D;}
	.st2{fill:#153B42;}
	.st3{fill:#284E55;}
	.st4{fill:#0C3239;}
	.st5{fill:#3D636A;}
	.st6{fill:#2F555C;}
	.st7{fill:#4D737A;}
	.st8{fill:#466D74;}
	.st9{fill:#365C64;}
	.st10{fill:#456C73;}
	.st11{fill:#A4E9DF;}
	.st12{fill:#30565D;}
	.st13{fill:#3E646B;}
	.st14{fill:#5A8087;}
	.st15{fill:#537A80;}
	.st16{fill:#547B81;}
	.st17{fill:#5D848B;}
	.st18{fill:#42686F;}
	.st19{fill:#1B4148;}
	.st20{fill:#11363D;}
	.st21{fill:#2C5158;}
	.st22{fill:#597F86;}
	.st23{fill:#71DDCE;}
	.st24{fill:#2E545B;}
	.st25{fill:#71DCCD;}
	.st26{fill:#71DDCF;}
	.st27{fill:#436A71;}
</style>
<g>
	<path class="st0" d="M-178,898.3c0-400,0-800,0-1200c400,0,800,0,1200,0c0,400,0,800,0,1200C622,898.3,222,898.3-178,898.3z
		 M825.2,544.3c9-17,17.9-34,26.9-51c5.3-12.9,11.5-25.6,15.8-38.8c6.3-19.5,11.3-39.5,16.9-59.2c0.5-4.6,0.9-9.2,1.7-13.7
		c2-13.1,4.2-26.2,6.3-39.3c1.5-23,3.3-46,1.1-69c0-2.2,0.2-4.3,0-6.5c-1.2-12.3-2.3-24.7-3.9-36.9c-1.2-8.6-3.3-17.1-5-25.6
		c-2-8.9-3.4-18-6-26.8c-4.3-14.5-9.2-28.8-13.9-43.2c-1.9-5-3.8-10-5.8-15.1C851,98,840.9,77.7,829,58.3c-4-6.6-7.7-13.5-12.1-19.7
		c-9-12.6-18.4-24.9-27.6-37.4c-1.9-2.5-3.6-5.2-5.7-7.4c-14.1-14.6-28.2-29.1-42.4-43.6c-0.9-1-1.6-2.1-2.6-2.9
		c-20.8-19-43.3-35.7-67.3-50.5c-7.6-4.5-15-9.5-22.9-13.5c-13.2-6.7-26.7-12.7-40.1-19c-8.8-3.6-17.6-7.6-26.6-10.9
		C536.5-163,490-171.9,442-174c-30.1-1.3-60,0.3-89.7,4.6c-18.6,2.7-37,7.1-55.2,11.8c-42.2,11-81.8,28.5-119.1,51.1
		C141.3-84.4,107.8-58,78.6-26.5C68.1-15.1,58.5-2.8,48.5,9.1c-8.2,11.7-16.4,23.4-24.7,35.1c-0.4,0.5-0.9,0.9-1.3,1.4
		C8.3,67.8-3.7,91.2-13.8,115.5c-5,12-8.9,24.5-13.3,36.7c-1,3.2-2.1,6.4-3.1,9.6c-7.8,24.3-13.1,49.1-16,74.4
		c-1.3,17.3-2.5,34.7-3.8,52c-0.2,1.6-0.6,3.2-0.6,4.8c0.9,19.4,1.9,38.7,2.8,58.1c-19.2,3.7-38.4,7-57.5,11.4
		c-15.3,3.5-29.8,9.3-42.6,18.7c-10,7.3-17.8,16.2-16.1,30c1.1,9.3,6,16.8,12,23.6c14.1,15.8,31.8,26.6,50.1,36.4
		c27.3,14.6,56.2,25.6,85.3,36.1c6.2,2.2,12.4,4.6,18.5,6.9c1.4,2.7,2.8,5.4,4.2,8.2c11.8,18.7,23.5,37.4,35.5,56
		c1.5,2.3,4.1,3.9,6.2,5.8c0.4,1.2,0.4,2.7,1.1,3.6c6.5,7.9,13.2,15.8,19.8,23.7c8.3,8.6,16.6,17.2,24.8,25.8
		c8.1,7.5,16.1,15.2,24.4,22.5c5.6,4.8,11.7,9,17.5,13.5c1.7,1.5,3.3,3.3,5.2,4.5c14.4,9.5,28.6,19.2,43.3,28.2
		c33.1,20.3,68.8,34.9,106,45.8c31.9,9.4,64.5,15.4,97.7,17.4c15.4,0.9,30.9,0.6,46.3,0.9c1,0.1,2,0.3,3,0.2
		c15.7-1.3,31.5-2.6,47.2-4c3.6-0.3,7.2-1.3,10.8-2c2-0.3,4-0.7,6-1c8.7-1.6,17.5-3.3,26.2-4.9c10.3-2.6,20.5-5.2,30.8-7.8
		c15.8-5.7,31.6-11.2,47.3-17.1c3.8-1.4,7.2-3.9,10.7-6c2.1-0.4,4.3-0.5,6.1-1.4c14-7.3,27.8-14.8,41.8-22.2
		c5.4-3.5,10.7-7,16.1-10.4c1.8-1.3,3.7-2.6,5.5-4c12.8-9.4,25.6-18.8,38.4-28.2c16.5-15.8,33.4-31.2,49.5-47.4
		c7.8-7.8,14.1-17,21.1-25.6C804.8,573.6,815,559,825.2,544.3z"/>
	<path class="st1" d="M-46.2,236.2c2.9-25.3,8.2-50.1,16-74.4c1,1.9,2.4,3.7,2.9,5.7c1,4.2,4.9,6.3,7.9,4.6c1.8,1.1,3.3,2,4.8,2.8
		c1-1.9,2.2-3.7,3.1-5.7c0.5-1.2,0.6-2.5,1.2-5.1c2.6,4.4,4.3,7.3,6,10.2c-0.5-0.5-1-1-1.4-1.5c1.5-1.1,3-2.2,5.1-3.8
		c2,2.8,3.2,4.6,4.8,6.9c0.2-3.1,0.3-5.7,0.4-8.5c3.5,0.4,8-1.1,5.8,5.2c-0.4,1.1,1.1,2.8,2.2,5.4c1.6-2.8,2.5-4.6,3.7-6.8
		c2.1,1.9,4.2,3.8,7.9,7.2c2.1-2.4,4-4.7,5.7-6.7c2.3,1.9,5.5,4.5,8.7,7.2c4.3-8.3,5-8.7,10-5.3c1.1-0.8,2.2-1.6,3.3-2.4
		c1.5,3.2,2.8,6,4.4,9.3c1.7-1.8,2.7-2.9,3.4-3.6c4.4,1,8.5,2,12.9,3c2.2-5.5,4.5-10.4,6.1-15.5c0.6-1.8-0.4-4.1-0.7-6.1
		c0.7-2,1.5-4,1.9-6.1c3.7-19.3,7.4-38.6,11.1-57.9c4.9,2.5,9.8,5.5,13.9-1.4c1.8,2.1,3,3.5,4.7,5.4c1.3-1.9,2.4-3.4,3.6-5.1
		c1.4,0.5,2.7,0.9,3.7,1.3c1.3-2.7,2.3-5.1,3.6-7.8c6.7,7.3,6.7,7.3,12.6,1.7c0.6,0.4,1.2,0.9,1.9,1.3c0.6,0.4,1.3,0.7,1.3,0.7
		c1.1-2.2,1.6-4.8,3.1-5.8c3.3-2.1,6.1-0.7,7.2,1.7c2.4,0.1,3.9,0.3,5.5,0.3c1.8-0.1,3.6,0,5.2-0.6c1.9-0.6,3.5-1.8,5.3-2.7
		c0.3,0.3,0.5,0.6,0.8,0.9c0.3-1.6,0.7-3.1,1.2-5.4c1.9,1.5,3.4,2.6,4.9,3.7c1.3-0.8,2.7-1.7,4.1-2.6c1.3,1.4,2.4,2.6,3.6,3.8
		c2.5-1.1,4.8-4.4,6.9,0c1.5-0.9,2.7-1.7,4.3-2.7c0.9,4.4,1.7,8.3,2.8,13.5c5-3.9,9.8-7.7,14.3-11.2c2,2.4,3.9,4.5,6.6,7.7
		c1.2-5.2,2.1-8.9,3.1-13.2c3,1.7,5.3,3,7.2,4.1c2.3-1.2,4.8-2.6,7.3-3.9c0.1,0.3,0.3,0.6,0.4,0.9c1-2.3,2-4.6,3.4-7.7
		c2.8,3,4.8,5.2,7.3,7.9c0.9-2.1,1.7-3.9,2.6-6.1c1.6,1,2.9,1.9,3.6,2.3c2.4-1.4,4.2-2.5,6.2-3.8c0.2-1,0.6-2.4,0.9-3.9
		c1.2,0.9,2.4,1.8,3.5,2.8c0.9,0.7,1.7,1.6,3.3,3c4.1-2.9,8.1-5.7,12.2-8.7c0.6,0.5,1.6,1.2,2.3,1.8c3-1.3,3.4-7.6,8.3-3.5
		c1.2-5.6,5-0.4,7.5-2c0-1,0-2.2,0-4.2c6.6,3.5,3.6-5.6,8.3-5.4c0.5,0.6,0.9,1.7,1.7,2.1c1.3,0.7,3.3,1.9,4.3,1.5
		c1.7-0.8,4.1-3.2,3.9-4.2c-1.3-4.9,2.2-4.6,4.8-5.4c1.4,1.9,2.6,3.7,3.9,5.5c3.8-4,11-3.3,11-11.3c3.1,1.8,5.4,3.1,8.3,4.8
		c1.2-2.1,2.6-4.5,4.1-7.2c2.6,1.7,5,3.2,7.8,5.1c2.2-2.2,4.7-4.6,7.5-7.4c3-0.2,7-0.4,11-0.7c3.5-1.4,7.2-2.4,10.9-3.4
		c3.6-1,7.1-2,11.7-3.3c4.6,5.2,7.5-4.5,12.3-3.8c0.9-2,1.8-4.3,3-7.1c2.1,2.7,3.4,4.4,4.5,5.9c5.2-2.7,10-5.1,15.4-7.9
		c0.6,0.4,1.8,1.2,3.2,2.2c1.9-3.2,4.2-4.8,7.3-0.5c1.1-2.3,1.9-4,2.9-6.1c1.6,1.2,3.1,2.4,4.6,3.5c0-0.4,0-0.8-0.1-1.2
		c3.4-0.8,6.8-1.5,10.2-2.3c0.2,0.5,0.4,1,0.7,1.5c2.2-3.5,4.3-6.9,6.5-10.5c1.5,1,2.6,1.8,3.8,2.6c1-1.3,1.8-2.3,1.9-2.5
		c3.6-0.2,6.9,0.5,8.8-0.8c2.3-1.5,3.3-4.8,5.2-7.9c1.5,2.8,2.4,4.5,3.4,6.5c3.2-2.4,6.1-4.6,9-6.8c1.2,1.7,2.2,3.1,3.5,4.8
		c2.6-2.9,4.8-5.4,7.2-8.1c1.6,1.1,2.7,1.9,4.1,2.9c0.8-1.4,1.4-2.4,2.1-3.7c1.4,1,2.5,1.8,4.1,2.8c1.2-2.1,2.3-3.8,3.5-5.9
		c1.2,1,2.1,1.8,2.2,2c3.3-1.4,6-3.2,8.7-3.4c6-0.3,11.4-1.3,14.3-6.7c2.3,0.6,4.4,1.2,6.7,1.8c0.2-3.1,0.3-5.2,0.4-7.2
		c3.7,2.4,6.8,4.3,10,6.4c2.5-2.9,4.6-5.3,6.6-7.6c2.7,1.1,5,2,7,2.9c1.7-3.2,3.3-6.2,5.1-9.7c1.7,1.9,2.8,3,4.1,4.4
		c1.2-1.2,2.2-2.3,3.5-3.7c6.6,5.3,9.8,0,13-5.7c1.5,2,2.6,3.3,3.6,4.6c2.8-4.4,9.5-6.3,12.3-4.3c2.7-0.5,4.7-0.7,6.6-1.3
		c2.5-0.8,4.9-1.9,7.4-2.7c4-1.2,6.7-5.3,12.1-3.6c4.6,1.4,6.6-1.4,7.1-6.8c0.1-1.4,1-2.8,1.5-4.2c0.5,0,1.1,0,1.6,0
		c0.7,2.1,1.4,4.2,1.8,5.7c4.1,0.3,8.1,1.4,11.8,0.7c4.2-0.7,7.3-3.8,8.1-8.5c0,2.7,0.1,5.4,0,8c-1,15-2,30-3,45
		c-0.2,3.3-0.6,6.6-1,10c0,0.7,0,1.3,0,2c-5.4,4.8-11.5,6.9-18.5,4.1c-2.7,5-8,5.3-12.6,7c-2,0.7-4,1.8-5.9,2.8
		c-0.9,0.4-1.6,1.5-2.4,1.6c-4.8,0.4-8.7,2.6-12.8,5.1c-4,2.4-9,3.2-13.7,4.5c-8.8,2.4-17.6,4.8-26.5,6.9c-9,2.1-16.7,8.5-26.4,8.6
		c-0.5,0-0.9,0.4-1.4,0.6c-9.2,3.5-18.3,7.7-27.8,10.1c-4.7,1.2-8.9,4.6-14.9,3.4c-3.7-0.7-8.2,4-12.6,5.8c-6.9,2.8-13.9,5-20.8,7.6
		c-3.7,1.4-7.2,3.2-10.9,4.4c-5.5,1.8-11.1,3.3-16.8,4.8c-1.6,0.4-3.4-0.1-4.9,0.5c-12.7,5.2-25.2,10.9-38.1,15.7
		c-7.9,2.9-15.3,8.2-24.8,6.1c-0.2-1.5-0.4-3-0.7-5c-1.9,0.7-3.6,1.3-5.5,2c1.2,1.4,2,2.3,3.3,3.8c-2,0.5-3.8,0.3-4.7,1.2
		c-5.7,5.4-13.2,4.7-20,5.8c-5,0.8-11-0.6-14.9,1.7c-4.6,2.7-9.3,3.9-14.2,5.6c-3.3,1.1-5.8,1.7-8.6-0.5c-0.1-0.1-0.3-0.2-0.4-0.2
		c0.1,0.1,0.3,0.2,0.4,0.2c-0.8,1.7-1.2,4.2-2.6,5c-2.9,1.7-5.4,3.2-5.3,5.8c0.2,5.1-3,6.5-6.9,7.7c-5.2,1.6-10.9,1.6-15.7,5.3
		c-2.5,1.9-6.1,2.8-9.3,3.2c-7.8,1.2-13.9,5.4-19.8,9.6c-2,0.1-3.9,0.5-5.8,1.3c-1.3,0.5-2.5,1.6-3.8,2.2c-4.6,2-9.2,4-13.9,6
		c-3.1,1.3-6.2,2.9-9.4,3.8c-3.8,1.1-7.9,1.2-11.6,2.5c-2.6,0.9-4.7,3.2-7.1,4.7c-1.2,0.8-2.4,1.7-3.7,1.9
		c-5.9,0.9-11.8,1.6-17.7,3.5c-5.8,1.9-12.7,3.5-19.3,1c-0.7-0.3-2,0.4-2.6,1c-2.9,2.5-5.3,2-8.4,0c-3.3-2.1-7.3-4.5-11-4.6
		c-17.4-0.5-34.7-0.2-52.1-0.1c-3.1,0-6.1,0.9-6.6,4.6c-0.6,3.9-1.3,7.9-1.4,11.8c-0.2,9-0.1,17.9-0.1,26.9c0,6.9-0.6,13.9,0.4,20.7
		c0.6,4.2-0.4,7-2.6,10.1c-0.8,1.2-1.7,2.3-2.6,3.5c-14.4-2.5-28.7-5-43.3-7.5c0-2.1,0-4.3,0-6.6c-0.2,0-0.4-0.1-0.6-0.1
		c-0.2,0.7-0.4,1.4-0.5,1.5c-4.3-3.3-9.1-1.7-14-1.7c0.9,2.4,1.6,4.2,2.3,6.2c-6.3-1.6-11.9-3-17.8-4.5c-5.5-0.4-11.7-0.8-17.8-1.1
		c0-0.2-0.1-0.5-0.1-0.7c1.4-0.5,2.8-0.9,4.1-1.4c-4-1-7.9-1-11.7-0.6C-32.9,238.8-39.7,239.3-46.2,236.2z"/>
	<path class="st2" d="M91,94.3c-3.7,19.3-7.3,38.6-11.1,57.9c-0.4,2.1-1.3,4.1-1.9,6.1c-0.9,0.1-2.5,0.5-2.6,0.2
		c-1-1.8-2.6-1.2-3.8-1.6c-2.8-1.1-4.5,0.2-6.8,0.8c-1,0.3-2.6-0.7-3.6-1.6c-1-0.9-1.5-2.3-2.2-3.3c-3.1,1.7-5.6,3-6.9,3.7
		c-4.7-2-8.4-3.5-12-5.1c-0.5,0.7-1,1.4-1.5,2.1c1.9,1,3.7,2.1,6.2,3.5c-3,1.7-4.1,3.5-6.1,0.1c-1.8-3.1-5.1-5.4-8-7.6
		c-0.7-0.6-2.8,0-3.9,0.6c-1.4,0.7-2.4,2.1-3.1,2.6c-2.2-0.9-3.8-1.5-5.4-2.1c-1.5-0.6-3-1.1-4.5-1.6c-4.1,3.7-7.8,3.7-13.6-0.1
		c-2.8,2.6-2.8,2.6-7.9-1.1c-1.2,0.8-2.4,1.6-3.8,2.4c-1.3-2.1-2.5-3.9-3.9-6.1c-4.3,2.9-8.1,5.4-11.8,8
		c4.4-12.3,8.3-24.7,13.3-36.7C-3.7,91.2,8.3,67.8,22.6,45.7c0.3-0.5,0.8-0.9,1.3-1.4c7.3,0.1,14.6,0.8,20.6-4.7
		c0.4-0.4,1.1-0.6,1.7-0.8l7.1-1.1c3.7-4.5,8.8-2.2,13.3-2.6c2.1-0.2,4.6,1.1,6.3,0.4c4.3-2,8.3-4.7,11.5-6.6
		c3.1,0.8,6.1,2.7,8.5,2.1c4.7-1.1,9.1-3.5,13.5-5.5c1.9-0.9,4.2-1.8,5.2-3.4c2.2-3.7,3.7-7.8,5.4-11.7c0.7-0.8,1.7-1.4,2.2-2.3
		c4.1-7.5,7.7-15.3,12.4-22.4c2-3,5.9-5.1,9.4-6.7c4-1.7,8.4-2.4,13.1-3.6c-0.3-0.4,0.4,1,0.6,1c4.1-1.3,8.2-2.8,12.2-4.3
		c1-0.4,1.9-1.2,2.9-1.7l11.5-0.3c4.3-3.4,8.8-0.9,13.2-0.5c0.6,0.1,1.1,1,1.5,1.6c2,2.9,3.9,5.7,5.9,8.7c4.2-3.6,4.2-3.5,7.9-0.6
		c0.8,0.6,2.7,0.7,3.4,0.2c3.7-2.9,7.2-6,11.1-9.4c2.3,9.8,11.2,4.4,16.9,7c6,2.7,8.3-5.3,11.7-6.9c3.1,0.9,5.1,1.5,7.1,2.1
		c2.2-2.3,4.9-3.2,7.4-4.6c3-1.7,7.4-3,8.5-5.6c1.9-4.6,5.5-3.2,8.5-4.3c3.6-1.3,7.3-2.8,10.9-4.2c-0.2-0.4-0.4-0.8-0.6-1.1
		c1.2,0.6,2.3,1.3,3.5,1.9c1.5,3.3,4.3,3.2,7.2,2.9c7.2-0.6,14.4-1.2,21.6-2c1.4-0.1,3.1-0.5,4-1.5c2.7-2.8,7.8-3,8.3-8
		c0.1-0.6,1.2-1,1.9-1.5c5.9-4.4,12.5-1.7,18.5-2.8c3.3-1.9,6.6-4.1,10.3-4.9c5.7-1.4,12.1,3.9,17.4-1.9c0.1-0.1,0.6,0.2,1,0.2
		c3.2-0.3,6.5-1,9.7-1c4.9-0.1,9.8,0.5,13.6-3.7c0.5-0.5,1.5-0.7,2.3-0.7c5.5-0.1,10-3.8,11.1-9.1c9.6-3.4,19.3-6.8,27.8-9.8
		c1.9,0.3,3.2,0.5,4.4,0.6c2.3,0.2,4.6,0.3,6.9,0.4c0.7,0.1,1.6,0.5,2.2,0.3c3.8-1.7,7.4-4.3,11.4-5.3c5.1-1.2,10.5-1.1,16-1.6
		c0.2-0.7,0.6-2.9,0.9-2.9c3.8,0.2,5.4-4.3,10.5-3.3c5.5,1.1,12.6,0,16.2-6.3c6.5,3,8,2.5,11.4-3.5c5.4,0.9,10.3,0.7,15.3-2.5
		c3.7-2.4,8.5-4.2,12.8-0.1c0.6,0.6,2.3,0.6,3.1,0.2c4-1.9,8.3-3.5,11.6-6.2c3.9-3.2,7.4-5.4,12-3.2c3.1-2.9,5.5-6.1,8.7-8
		c3.6-2.2,8-3.3,12-4.9c13.4,6.3,26.9,12.4,40.1,19c7.9,4,15.3,9,22.9,13.5c0.6,9.5,1.2,19,1.8,28.5c-2.6,1.3-5.2,2.6-7.8,3.9
		c-1.6,0.7-3.2,1.6-4.9,2c-3,0.6-6.1,0.7-9.2,1.2c-2.6,0.5-5.8,2.5-7.6,1.6c-5.3-2.6-9.6-2.5-13.2,2.3c-3.8-3.6-6.9-3.3-9.9,0.3
		c-2.1,2.6-4.3,5.2-6.8,8.1c-1.2-2.1-1.9-3.5-2.8-5.2c-1.4,1-2.6,1.8-3.7,2.7c-1.4-0.9-2.5-1.7-3.7-2.5c-4.3,8.1-7.6,8.9-12.9,3.5
		c-4,1.5-6.6,6.1-11.9,4.9c-1-0.2-2.5,1.4-3.8,2.1c-2.4,1.3-4.8,2.6-7.3,3.6c-2.7,1.1-6.1,1.2-8.1,3c-5.4,4.7-8.6,5.1-13.3,0.2
		c-0.1-0.1-0.3-0.1-1.3-0.4c-2.7,7.7-9.6,8.4-16.8,8.8c-0.6-1-1.3-2.3-2.1-3.7c-0.5,0-0.9-0.1-1.4-0.1c-0.7,2.8-1.5,5.5-1.8,6.8
		c-7.2,1-13.9,2-20.5,3c-1.7,1.2-3.5,3.6-5,3.4c-4-0.4-6.9,0-10.3,2.7c-3,2.3-7.6,5.3-10.7-0.6c-1.7,0.8-3.4,2.4-4.5,2
		c-6.9-2.6-9.3,3-12.3,6.8c-2.7,3.2-6.4,4.2-10.2,2.5c-2-0.9-6.5-0.7-6.8,0c-1.5,4.8-5.1,4-8.5,4.1c-0.9,0-1.7,0.5-2.5,0.8
		c-1.5,0.5-3.1,0.9-4.6,1.4c-0.2-0.4-0.5-0.7-0.7-1.1c-1.2,2-2.3,4-3.5,6c-0.1-0.5-0.1-1-0.2-1.5c-4.2,0.7-8.4,1.5-12.6,2.2
		c-5.5,0.9-10.8,4.3-16.8,1.7c-0.9-0.4-2-0.1-2.5-0.1c-0.2,2.5-0.3,4.2-0.4,6c-1.5-0.7-3-1.3-4.4-2.2c-2.1-1.3-3.8-2.3-6.1-0.2
		c-3.7,3.4-7.7,6.5-11.5,9.7c-5.3-2.9-10.5-1.6-13.4,3.2c-1.3,2.1-8.7,3.9-9.7,2c-2-3.9-5-3.3-8.1-3c-1.4,5.1-8.4,10.8-12.4,10.2
		c0-1.5,0-3,0-4.4c-2.5,0.8-4.6,1.4-6.7,2.2c-1.8,0.7-3.9,1.3-5.2,2.6c-1.3,1.4-1.8,3.5-2.8,5.8c-1.1-1.5-2-2.7-2.9-3.9
		c-4.3,4.2-13.1,1.6-13.1,10.5c-2.9-2.4-5.2-5.6-7.7-5.9c-1.9-0.2-4.1,3.5-5.3,4.6c-2.8-0.5-5.6-1.9-7-1c-2.1,1.3-3.3,4.2-4.9,6.4
		c-4.4-3.5-5.1-3.3-9.3,2.8c-7.1-3.6-4.4,3.4-6,4.9c-3.8-0.6-7.6-1.1-11.1-0.4c-3.6,0.7-7,2.6-10.6,4c-1.5-0.7-3.4-1.5-5.2-2.3
		c-0.6,2.7-1.1,4.6-1.5,6.4c-2.2-0.8-4.4-1.6-7.2-2.6c-1,1.3-2.3,3-3.9,5c-1.1-0.8-2.3-1.6-4.1-2.9c-1,2.4-1.8,4.5-2.7,6.5
		c-0.5,1.1-1.2,2.5-2.1,2.9c-0.7,0.3-2-0.9-3-1.6c-0.8-0.6-1.3-1.5-2.2-2.5c-3.1,2.5-6.1,4.9-10.1,8c-0.9-5.4-1.7-10.4-2.7-16.5
		c-1.3,1.7-2.6,3.4-3.7,4.9c-0.1-0.6-0.3-1.6-0.7-3.5c-0.4,1.9-0.6,3-0.8,4c0.7-0.9,1.5-1.7,2.2-2.6c-2.6-1.5-5.2-3.1-7.9-4.6
		c-0.2,0.4-0.4,0.8-0.6,1.2c-2.4,1-4.8,2-7.1,3c-1.3-1.6-2.3-2.8-3.3-4c-2.2,1.7-3.7,2.8-5.2,4c-1.7-1.4-3.1-2.5-4.4-3.5
		c-3.1,1.5-4.8,7.8-9.4,1.4c-2.3,3.1-4.4,5.8-6.9,9.2c-1.2-2.4-2.4-4.8-3.6-7.1c-2.2,3-4.4,6-6.5,9c-3.4-2.3-6.5-2.3-9.1,0.1
		c-1.9,1.8-3.1,1.6-5.5,0.2c-2.5-1.4-6-1.7-8.9-1.4c-1.2,0.1-2.2,3.2-3.1,5c-0.9,2-0.8,4.9-2.2,6C94.5,81.6,93.4,88.2,91,94.3z
		 M602.6-127.4c0-0.1,0.1-0.3,0.1-0.4c0,0-0.2-0.1-0.4-0.1c0,0.1-0.1,0.3-0.1,0.4C602.3-127.5,602.5-127.5,602.6-127.4z"/>
	<path class="st3" d="M312,117.3c2.8,2.2,5.3,1.6,8.6,0.5c4.8-1.7,9.5-2.9,14.2-5.6c4-2.3,9.9-0.9,14.9-1.7c6.9-1.1,14.3-0.4,20-5.8
		c0.9-0.8,2.7-0.7,4.7-1.2c-1.3-1.5-2.2-2.5-3.3-3.8c1.9-0.7,3.6-1.3,5.5-2c0.3,2,0.5,3.5,0.7,5c9.5,2.1,16.9-3.2,24.8-6.1
		c12.9-4.8,25.4-10.5,38.1-15.7c1.4-0.6,3.3-0.1,4.9-0.5c5.6-1.5,11.2-3,16.8-4.8c3.7-1.2,7.3-3,10.9-4.4c6.9-2.6,14-4.9,20.8-7.6
		c4.4-1.8,8.9-6.5,12.6-5.8c6,1.2,10.1-2.2,14.9-3.4c9.5-2.4,18.6-6.6,27.8-10.1c0.5-0.2,0.9-0.6,1.4-0.6c9.7-0.1,17.3-6.4,26.4-8.6
		c8.9-2.1,17.7-4.5,26.5-6.9c4.6-1.3,9.7-2,13.7-4.5c4.1-2.5,8-4.7,12.8-5.1c0.8-0.1,1.6-1.1,2.4-1.6c1.9-1,3.9-2.1,5.9-2.8
		c4.6-1.7,9.9-1.9,12.6-7c7,2.8,13,0.7,18.5-4.1c-1.2,19.1-6.6,37.4-11.5,55.7c-0.3,1.2-1.5,2.1-2.1,3.3c-0.9,1.9-1.6,4-2.4,5.9
		c-2.6,3-5,8.1-7.9,8.4c-3.5,0.4-6.5,0.9-9.4,2.7c-0.6,0.4-1.7,0.8-2.2,0.5c-6.8-3.5-10.7,3.6-16.3,4.5c-3.5,0.5-5.6,4.7-10.3,3.1
		c-3.5-1.2-7.8-0.4-11.6-0.1c-9.9,0.9-19.9,2-29.8,3c-0.8,0.1-1.5,0.7-2.2,1c-2.9,1.1-5.9,2.3-8.8,3.4c-0.3-0.5-0.7-1-1-1.5
		c-1.1,2.5-2.2,5-3.3,7.5c-8.6-3.8-18.9,3-17.7,15c-3.1,1.8-6.3,3.7-8.8,5.1c-2.1-2.4-3.6-4.2-5.2-6c-0.6,0.1-1.3,0.1-1.9,0.2
		c3.5,7.4-2,8.5-6,10.2c-3,1.3-7.3,0.9-9.4,2.9c-3.3,3.1-6.6,3.6-10.6,3.8c-9,0.5-18,1.8-27,2.2c-10.4,0.4-13.9,2.7-15.4,12.7
		c-0.6,3.9-1.9,5-5.5,3.7c-0.7,1.4-1.4,2.7-1.8,3.6c-6,1.1-12,0.2-16.5,5.1c-1.4,1.6-3.2,3.5-5,3.8c-4.3,0.7-8.4,1.3-10,6.2
		c-2-1.1-3.9-3.1-5-2.7c-4.2,1.5-9.8,0.6-12.3,5.9c-2.3,5-5,4.2-7.8,0.3c-0.1-0.2-0.6-0.1-0.6-0.1c-2.1,3.2-3.9,6.4-6.2,9.2
		c-1.8,2.2-3.8,1.8-4.7-1.2c-0.3-0.8-0.8-1.6-1.2-2.5c-2.2,1.7-4.4,3-6,4.8c-1.3,1.4-1.9,3.4-2.8,5.1c-5.6,0.1-11.3,0.1-16.9,0.2
		c-0.4,0.6-0.7,1.3-1.1,1.9c-6.1,0.5-12.1,1.3-18.2,1.4c-5.3,0.1-10.5,0-14.1,4.8c-1.2-2.4-2.2-4.8-3.5-7
		c-10.4-17.5-32.2-27-52.9-23.7c-18.5,3-33.1,11.6-40.2,29.5c-8.2,20.7-3.7,39.1,12.1,54.8c-0.1,1.6-0.3,3.2-0.4,4.6
		c-6.2,0.3-12.1,1.2-17.8,0.6c-11.9-1.3-23.8,1.9-35.8-1.6c-6.4-1.9-13.6-1.9-20.4-2.1c-8.7-0.2-17.4,0.4-26.1,0.4
		c-4.5,0-9-0.6-14.8-1.1c-2.6,3.1-4.5-0.2-6.2-3.7c-1.5,1.9-2.6,4.7-4,4.8c-3.5,0.4-7.1,0-10.6-0.6c-3.9-0.7-7.7-1.9-12.4-3.1
		c0.5,3.4,0.9,5.8,1.2,8.3c2.2,16,4.4,32.1,6.6,48.1c0.3,2.4,1.4,5-1.9,6.3c-0.4,0.1-0.9-0.1-1.5-0.2c0-1.4,0-2.8,0-4
		c-2.2,0.4-4.1,0.6-5.9,1c-5.6,1.3-11.1,0.7-16.7-0.2c-6.6-1.1-13.5-1-20.1-2.4c-2.8-0.6-4.9-0.4-7.6-0.1c-3.2,0.4-6.6-1.5-9.3-2.2
		c-1.8,1-3,2.3-4.3,2.4c-4.7,0.5-9.5-2.6-14.3,0.1c-0.4,0.2-1.3-0.4-1.9-0.3c-1.8,0-3.5,0.2-5.3,0.3c-2.7,0-5.7,1.3-7.1-2.7
		c-0.5-1.6-2.2-2.8-3.3-4.1c-3.5,1.7-11.2,0.5-12.4-1.8c-3.1-5.7-3.9-6-9.6-3.5c-0.9-1.2-1.8-2.5-2.8-4c-1,0.8-1.7,1.5-2.5,2
		c-8,5.5-8,5.5-11.2-2.8c1.3-17.3,2.5-34.7,3.8-52c6.5,3,13.3,2.6,20.2,1.7c3.8-0.5,7.7-0.4,11.7,0.6c-1.4,0.5-2.8,0.9-4.1,1.4
		c0,0.2,0.1,0.5,0.1,0.7c6.1,0.4,12.3,0.8,17.8,1.1c5.9,1.5,11.5,2.9,17.8,4.5c-0.7-2-1.4-3.8-2.3-6.2c4.9,0,9.7-1.6,14,1.7
		c0-0.1,0.2-0.8,0.5-1.5c0.2,0,0.4,0.1,0.6,0.1c0,2.3,0,4.5,0,6.6c14.6,2.5,28.9,5,43.3,7.5c0.9-1.2,1.7-2.4,2.6-3.5
		c2.1-3,3.2-5.9,2.6-10.1c-1-6.8-0.3-13.8-0.4-20.7c0-9-0.1-17.9,0.1-26.9c0.1-3.9,0.8-7.9,1.4-11.8c0.6-3.8,3.5-4.6,6.6-4.6
		c17.4-0.1,34.7-0.3,52.1,0.1c3.7,0.1,7.7,2.5,11,4.6c3.1,2,5.5,2.5,8.4,0c0.7-0.6,2-1.2,2.6-1c6.6,2.5,13.5,0.9,19.3-1
		c5.9-1.9,11.7-2.6,17.7-3.5c1.3-0.2,2.5-1.2,3.7-1.9c2.4-1.6,4.5-3.8,7.1-4.7c3.7-1.3,7.8-1.4,11.6-2.5c3.2-0.9,6.3-2.5,9.4-3.8
		c4.6-2,9.3-3.9,13.9-6c1.3-0.6,2.4-1.6,3.8-2.2c1.8-0.7,3.8-1.2,5.8-1.3c5.9-4.2,12-8.5,19.8-9.6c3.2-0.5,6.9-1.3,9.3-3.2
		c4.7-3.7,10.4-3.6,15.7-5.3c3.9-1.2,7.1-2.6,6.9-7.7c-0.1-2.6,2.4-4.1,5.3-5.8C310.8,121.5,311.2,119,312,117.3L312,117.3z
		 M501.1,125c0.7-0.2,1.3-0.3,2-0.5c-0.4-1-0.8-2-1.3-2.9c0-0.1-1.2,0.3-1.2,0.3C500.7,122.9,500.9,124,501.1,125z M28.7,244.8
		c-0.3,0.5-0.6,0.8-0.5,1c0.1,0.2,0.5,0.3,0.7,0.5C28.8,245.8,28.7,245.4,28.7,244.8z M26.3,246.5c0.1,0,0.3,0,0.4,0
		c0-0.5,0-1,0-1.5c-0.1,0-0.3,0-0.4,0C26.3,245.5,26.3,246,26.3,246.5z M24.7,245c-0.1,0-0.3,0-0.4,0c0,0.5,0,1,0,1.5
		c0.1,0,0.3,0,0.4,0C24.7,246,24.7,245.5,24.7,245z M375.4,103c0,0.1-0.1,0.3-0.1,0.4c0,0,0.2,0.1,0.4,0.1c0-0.1,0.1-0.3,0.1-0.4
		C375.7,103.1,375.5,103,375.4,103z M18.4,245.7c0.1-0.3,0.2-0.5,0.2-0.7c-0.1,0-0.2,0.1-0.4,0.1C18.3,245.2,18.3,245.4,18.4,245.7z
		"/>
	<path class="st4" d="M298-45.7c-1.2-0.6-2.3-1.3-3.5-1.9c0.2,0.4,0.4,0.8,0.6,1.1c-3.6,1.4-7.2,2.9-10.9,4.2
		c-2.9,1.1-6.5-0.3-8.5,4.3c-1.1,2.6-5.5,4-8.5,5.6c-2.5,1.4-5.2,2.4-7.4,4.6c-2-0.6-4-1.2-7.1-2.1c-3.4,1.5-5.7,9.6-11.7,6.9
		c-5.7-2.6-14.6,2.9-16.9-7c-3.9,3.4-7.4,6.5-11.1,9.4c-0.7,0.5-2.6,0.4-3.4-0.2c-3.7-2.9-3.7-3-7.9,0.6c-2-2.9-3.9-5.8-5.9-8.7
		c-0.4-0.6-1-1.6-1.5-1.6c-4.4-0.5-8.9-2.9-13.2,0.5l-11.5,0.3c-1,0.6-1.9,1.3-2.9,1.7c-4,1.5-8.1,3-12.2,4.3
		c-0.2,0.1-0.8-1.4-0.6-1c-4.7,1.2-9.1,1.9-13.1,3.6c-3.5,1.5-7.4,3.7-9.4,6.7c-4.7,7.1-8.3,14.9-12.4,22.4
		c-0.5,0.9-1.4,1.5-2.2,2.3c-2.3-6-8.8,0.4-11.5-3.9c-0.6,0.9-1.3,1.7-2.2,3c-2.9-4.7-5.8-2.1-8.8-0.3c-3.1-3.2-5.9-7.6-10.4-2
		c-1.1-2.5-1.9-4.6-2.8-6.7c-0.6,0-1.1,0-1.7,0.1c-0.5,1.7-1.7,3.7-1.3,5.2c0.8,2.9,0.6,4.7-2.7,5.6c-2.3,0.6-5.6,3.1-6.7,2.3
		c-4.9-3.3-5.5,0.5-6.7,3.9c-8.1-8-7.4,2.1-11.4,5.7c0-2.8-0.2-4.4,0-6c0.5-3.1,1.4-6.2-2.2-8.1c10-11.9,19.6-24.2,30.1-35.6
		c29.2-31.5,62.7-57.9,99.3-80.1c37.2-22.5,76.8-40.1,119.1-51.1c18.2-4.7,36.6-9.1,55.2-11.8c29.7-4.3,59.6-5.9,89.7-4.6
		c48,2.1,94.6,11,139.7,27.3c9,3.2,17.7,7.2,26.6,10.9c-4,1.6-8.3,2.7-12,4.9c-3.2,1.9-5.6,5.1-8.7,8c-4.6-2.2-8.2,0-12,3.2
		c-3.3,2.8-7.6,4.3-11.6,6.2c-0.8,0.4-2.5,0.3-3.1-0.2c-4.4-4.1-9.1-2.3-12.8,0.1c-5,3.2-9.9,3.3-15.3,2.5c-3.4,6-4.9,6.4-11.4,3.5
		c-3.6,6.3-10.7,7.4-16.2,6.3c-5-1-6.7,3.5-10.5,3.3c-0.3,0-0.7,2.3-0.9,2.9c-5.5,0.5-10.9,0.4-16,1.6c-4,0.9-7.6,3.5-11.4,5.3
		c-0.6,0.3-1.5-0.2-2.2-0.3c-2.3-0.2-4.6-0.2-6.9-0.4c-1.2-0.1-2.4-0.3-4.4-0.6c-8.6,3-18.2,6.4-27.8,9.8c-1.3-0.5-3.1-0.7-3.9-1.6
		c-2.1-2.3-3.7-2.4-5.1,0.5c-0.4,0.9-0.8,1.8-1.5,3.5c-1.5-3.1-2.1-4.4-2.8-5.7c-1.4,1.6-2.8,3-4.2,4.5c-3.7-3.2-7-6.1-11-9.5
		c-0.3,2.7,0,4.7-0.9,6c-1.5,2.2-3.6,5.4-5.8,5.7c-4.4,0.7-4.4,0-5,4.3c-0.1,0.7-0.5,1.3-0.9,2.1c-1.6-1.4-3-3.5-4.3-3.5
		c-5.4,0.1-12-3.2-15.5,4.2c-0.2,0.4-1.6,0.2-2.3,0.5c-1.5,0.6-2.9,1.3-4.7,2.1c-2.1,2.3-6.2-5.5-8.2,1.8c-0.2,0.7-0.9,1.2-1.3,1.8
		c-0.7-0.6-1.9-1.1-2.1-1.9c-0.6-1.8-0.8-3.7-1.1-5.5c-0.5,0-1-0.1-1.4-0.1c-1.2,2.1-2.3,4.2-2.9,5.1c-5.8,1.4-11.1,1.8-15.4,4.1
		c-4.9,2.6-9.5,2.8-14.7,2.6c-1.9-0.1-4.7,1.2-5.7,2.8C302.2-52.5,301-48.5,298-45.7z"/>
	<path class="st5" d="M829,58.3c11.9,19.4,22,39.7,30.2,60.9c-4.5,0.5-9.6-0.9-12.9,3.9c-0.3,0.4-0.9,0.4-1.3,0.7
		c-3.7,2.9-7.4,5.9-11.1,8.7c-1.3,1-3.2,2.7-4,2.3c-4.5-2.3-4.3,0.3-4.1,3.4c0,0.6-0.8,1.2-1.8,2.6c-1-1.8-1.9-3.2-2.5-4.3
		c-6.9,3-2.7,7.4-2.9,11.9c-11,1.2-21.5,4-24.7,18c-1.8-3.3-2.7-5-3.7-6.8c-0.5,0.1-1,0.2-1.5,0.2c0,2.1,0,4.1,0,6.4
		c-7.6,5.2-19.3,5.5-21.7,16.7c-7.6-3.8-8.2,7.2-13.2,5.9c-1.1,4.4-2,8.4-2.9,12.4c-0.5,0-1,0-1.5,0c-0.6-1-1.1-2-1.5-2.7
		c-2.1,2.4-4.3,4.9-7,8.1c-0.5-2.1-0.8-3.3-1-4.2c-0.7,0.4-1.5,0.9-2.3,1.1c-1,0.3-2.4,0-3.2,0.6c-2.9,2.2-5.7,4.5-8.2,7.1
		c-3.1,3.2-6.1,5.1-10.3,0.8c-1.2,2.2-2.1,3.9-3.1,5.6c-0.7,1.1-1.4,2.9-2.3,3c-6.8,1-7.2,7.7-11.6,11.2c-0.2,0-1.5-0.8-2.3-0.4
		c-3.9,2.2-7.9,4.4-11.5,7.1c-3.2,2.4-5.9,5.4-8.8,8.2c-4,3.8-8,7.5-11.8,11.4c-1.2,1.2-1.9,2.8-3.2,4.9c-0.1-4.9-2.5-5.6-4.9-3.5
		c-2.4,2.1-7.2,1.8-7.1,6.7c0,0.4-0.8,1-1.4,1.4c-2.3,1.6-4.6,3.2-6.9,4.7c-3.1,2-6.2,3.8-9.2,5.8c-3.8,2.7-8.3,5-11,8.7
		c-2.1,2.8-4.4,4.4-7.1,6.2c-3,2.1-9,1.9-7.6,8.2c-10,3.4-20.7,5.9-22.7,19.6c-1.4-1.8-2.1-2.8-3-3.8c-0.9,2.5-1.8,4.9-2.5,7
		c-1.9-1.1-3.7-2.2-5.7-3.4c-1.3,2.3-2.3,4.4-3.6,6.2c-1,1.4-4.3-0.1-4.1,3.2c0,0.2-1,0.6-1.6,0.7c-5.2,0.6-10.9,6.6-10.7,11.8
		c0.1,3.2-0.1,5.8-4.1,6.7c-0.9,0.2-1.4,2.5-2,3.8c-0.3,0.1-0.6,0.2-0.9,0.3c-0.4,1.3-0.8,2.6-1.2,3.9c-2.4,1.2-4.8,2.2-7.2,3.5
		c-5.9,3.2-6.1,4.1-2.8,10.5c-1,1-2,2-3,3c-0.3,0.3-0.7,0.7-1,1c-0.7,1-1.3,2-2,3c0,0.3,0,0.7,0,1c-0.5-0.2-1-0.7-1.3-0.6
		c-4.6,1.8-9.1,3.7-13.7,5.6c-0.6-0.3-1.2-0.7-1.8-1c-1.5-17.4-8.3-27.1-23-29.5c-8.5-1.4-17.5-0.9-26.1,0.3
		c-6,0.8-11.6,4.1-17.8,6.5c3,5.8,5.3,10.5,7.1,14c7.7-1.8,14.1-4.1,20.8-4.7c8.5-0.8,17.4,2.2,17.4,13.4c-4.9,0-9.9-0.3-14.8,0.1
		c-6.4,0.5-13,0.8-19.1,2.7c-13.1,4.2-17.8,19.5-10.1,30.9c0.9,1.4,1.7,2.8,2.6,4.2c-3,0.2-3.1,3.7-3.7,4.9
		c-4.1,8-10.6,9.5-18.4,8.7c-4.7-0.5-8.5,0.2-10.5,5.7c-1-1.1-1.6-1.7-1.7-1.9c-3.8,2.1-7.5,4.2-11.1,6.2c0.3,0.2,0.7,0.4,1,0.5
		c-1.3,2.6-2.5,5.2-3.8,7.8c-1,0-2,0-3,0c-11.8-9.1-23.5-18.1-35.3-27.2c0-4.5,0-9,0.1-13.5c0-9.2-0.3-18.3,0.2-27.5
		c0.5-9.3,7.2-15.2,16.1-14.8c8.2,0.3,12.7,5.4,13,15.1c0.2,4.7,0.1,9.3,0.1,14c0,8.8,0,17.6,0,26.6c7.4,0,14.3,0,21.4,0
		c0-8.2,0.1-16.1,0-23.9c-0.1-7.9-0.2-15.9-0.7-23.8c-0.8-14.6-11.9-25.2-26.5-25.9c-11.2-0.5-20.9,2.9-28.6,11
		c-2.8-2.5-5.4-4.8-7.9-7c2.3-2.7,4.8-4.7,8.8-4.3c0.9,0.1,2.9-2.4,3-3.8c0.1-4.7,1.4-5.7,5.9-4c1,0.4,2.5-0.1,3.7-0.5
		c1.8-0.6,3.5-1.5,5.3-2.3c0.4-1.6,0.7-3.3,1.2-5.5c1.7,1.3,2.9,2.2,4.6,3.4c0.9-2.1,1.6-3.8,2.4-5.6c0.3,0.4,0.7,0.7,1,1.1
		c3.9-3.4,7.8-6.7,12.1-10.5c0.4-2.2,1.1-5.2,1.5-8.2c0.4-3,0.6-6.1,0.9-9.1c0.4-4.6,4.9-2.8,6.8-4.3c5.5-4.3,10.9-8,17.8-9.2
		c1.1-0.2,2-1.7,3.1-2.2c1.3-0.7,2.8-0.9,4.2-1.5c4.2-1.7,8.6-3.1,12.4-5.4c3.3-2,5.6-5.7,8.9-7.6c6.2-3.5,12.6-6.8,19.3-9
		c4-1.3,4.4-3.2,4.2-6.4c8.2,0,16.6,0.8,24.7-0.4c7.4-1.1,14.8-3.8,18.4-11.7c3-3.3,6.6-4.3,11.1-4.1c5.7,0.2,11.4-0.5,17.2-0.9
		c3.5-0.2,5.6-2.2,5.6-5.7c0.1-15.1,0-30.1,0.1-45.2c0-1.7,0.7-3.4,1-5.1c0,24.2,0,48.4,0,72.7c7.2,0,13.8,0,21,0
		c0-6.1,0-11.9,0-17.7c3.9-0.9,3.9-4,3.9-7c0.2-8,0.2-7.9,7.9-8.1c6.3-0.2,12.9,0.5,17.5-5.5c0.4-0.5,1.5-0.3,2.3-0.5
		c0,12.9,0,25.7,0,38.6c7.6,0,14.3,0,21.2,0c0-12.9-0.2-25.3,0.1-37.7c0.2-8.6-1.1-16.8-5.2-24.5c1.1-4,4.2-3.6,7.2-3.2
		c6.4,0.8,12.5-0.3,18-3.8c5.5,3.5,5.4,3.5,7.1-2.8c0.4-1.3,1.7-2.4,2.7-3.7c1.5,1.8,2.5,3.1,3.8,4.7c2.4-2.7,4.2-5.2,6.4-7.2
		c2.7-2.5,7.4-4,8.4-6.9c2.1-5.7,6.5-10.6,5.4-17.6c-1.1-6.9,4.2-12.1,10.9-11.9c3.4,0.1,6.9-0.5,10.2,0.1
		c7.1,1.4,11.4-3.6,17.3-6.6c0.6,0.3,1.9,0.9,4.2,2c3.6-4.7,8.1-9,10.7-14.3c2.6-5.4,3.3-11.7,4.8-17.8c3.8-1.3,8.3-2,9.5-7.2
		c0.1-0.6,0.8-1.4,1.2-1.4c6.1,0.2,8.7-4.9,12.2-8.3c4.2-3.9,8.4-7.1,14.6-6.5c2.4,0.2,5-0.2,7.3-0.8c5.5-1.3,10.9-3.2,16.5-4
		c3-0.4,4.2-1.5,5.2-4.2c1.2-3.1,2.5-7.6,4.9-8.6C818,66,824,63.1,829,58.3z"/>
	<path class="st6" d="M312.7,196.4c3.6-4.8,8.8-4.7,14.1-4.8c6.1-0.1,12.1-0.9,18.2-1.4c0,25.5,0,51.1,0,76.8
		c-7.1,0.8-13.5,1.5-19.9,2.3c-2.9,0.4-5.8,0.9-8.7,1.5c-2.6,0.6-5.2,1.3-6.7,1.7c-5.1-0.1-10.8-1.8-12.8,0.3
		c-2.8,2.8-2.8,8.5-3.9,12.4c-3.7,0.3-7.7,0.6-12.2,1c-0.4-0.9-1.2-2.5-1.9-4.1c-4.7,3.2-4.7,3.2-4.8,8.6c0,1,0,2.6-0.5,2.8
		c-3.2,1.5-2.3,4.3-2.6,6.9c-0.2,1.4-0.9,2.7-1.5,4c-3.1,6.7-6.1,13.1-0.5,20.3c4,5.2,9.8,10.3,7.1,18.4c-0.3,0.8,0.9,2.1,1.2,3.1
		c0.3,1.2,0.4,2.4,0.5,2.5c-2.5,1.3-4.8,1.7-5.6,3c-3.1,5-12,5.8-15.8,1.3c-5.3,1.1-10.4,2.2-15.4,3.3c-7.6-1.4-15.3-2.8-22.9-4.2
		c-0.5-0.8-1-2.4-1.4-2.4c-4.9,0.1-5.7-3.4-6-7.1c-10,4.5-17.1-3.5-26.1-4.4c-0.9,0.7-2.4,2-4.2,3.4c-0.9-1.9-1.5-3.2-2.2-4.6
		c-1.2,0.6-2.2,1.6-2.8,1.3c-5.1-2-10.2-3.4-15.7-1.4c-0.4,0.1-1-0.9-1.6-1c-4-0.6-8.1-1.1-12.2-1.5c-2.2-0.3-4.3-0.5-6.5-0.6
		c-1.4,0-2.8,0.2-4.2,0.3c-19.9-5.8-40.2-1.8-61-3.2c0,12,0,23.1,0,34.2c-3.8-0.6-7.5-1.3-11.3-1.7c-3.8-0.4-7.7-0.1-11.6-0.5
		c-6-0.7-12.1-2.7-18-2.3c-6.4,0.4-12.2,0.8-17.9-2.7c-0.5-0.3-1.5,0.2-2.2,0.1c-2.1,0-4.3,0.1-6.3-0.3c-6.1-1.3-12.2-3.1-18.4-4.2
		c-1.2-0.2-3.3,1.4-3.9,2.7c-0.5,1.1,0.2,3.7,1.1,4.3c5.1,3,10.3,5.8,15.7,8.1c12.6,5.4,25.3,10.8,38.1,15.5
		c11.3,4.2,23,7.4,34.6,11c0,4.4,0,8.7,0,13.1c-3.1,0.5-5.4-2.9-7.1-2.9c-5.3,0-8.4-5.3-14.6-4.1c-5,1-9.8-5.5-16-3.7
		c-0.3,0.1-0.9-0.5-1.2-0.9c-4-5.4-10.9-5.7-16.2-7c-5.6-1.4-9.9-5.7-15.9-5.7c-4.2,0-8.4-5.4-12.6,0.5c-0.5,0.7-2.8,0.4-4.2,0.1
		c-6.2-1.2-12.3-3.2-18.6-3.8c-4.5-0.5-8.6-0.5-11.3-4.6c-1.1-7-2.2-14-3.4-21.3c8.1-1.7,15.7-3.3,23.3-4.9
		c-0.1-0.3-0.1-0.6-0.2-0.9c-7.9,0.7-15.8,1.4-23.8,2c-0.9-19.4-1.9-38.7-2.8-58.1c-0.1-1.6,0.4-3.2,0.6-4.8
		c3.2,8.3,3.2,8.3,11.2,2.8c0.8-0.5,1.5-1.2,2.5-2c1,1.5,1.9,2.7,2.8,4c5.7-2.5,6.6-2.2,9.6,3.5c1.3,2.3,9,3.5,12.4,1.8
		c1.1,1.3,2.7,2.5,3.3,4.1c1.4,4,4.4,2.7,7.1,2.7c1.8,0,3.5-0.2,5.3-0.3c0.6,0,1.5,0.6,1.9,0.3c4.8-2.7,9.6,0.4,14.3-0.1
		c1.3-0.1,2.6-1.4,4.3-2.4c2.7,0.7,6.1,2.6,9.3,2.2c2.7-0.3,4.8-0.5,7.6,0.1c6.6,1.4,13.4,1.3,20.1,2.4c5.6,0.9,11.1,1.4,16.7,0.2
		c1.8-0.4,3.7-0.6,5.9-1c0,1.3,0,2.6,0,4c0.6,0.1,1.1,0.4,1.5,0.2c3.3-1.3,2.3-3.9,1.9-6.3c-2.2-16-4.4-32.1-6.6-48.1
		c-0.3-2.4-0.7-4.8-1.2-8.3c4.6,1.2,8.4,2.4,12.4,3.1c3.5,0.6,7.1,1.1,10.6,0.6c1.4-0.2,2.5-2.9,4-4.8c1.7,3.5,3.6,6.8,6.2,3.7
		c5.8,0.4,10.3,1.1,14.8,1.1c8.7,0,17.4-0.6,26.1-0.4c6.8,0.2,13.9,0.2,20.4,2.1c11.9,3.5,23.9,0.4,35.8,1.6
		c5.7,0.6,11.6-0.4,17.8-0.6c0.1-1.4,0.3-3,0.4-4.6c8.4,6.3,17.5,10.8,28.1,11.9c19.6,2,36.8-2.8,49.4-18.7
		C316.8,229,318.1,213.1,312.7,196.4z M-18.8,349.2c0.2,0.6,0.4,1.3,0.6,1.9c2.1-0.6,4.3-1.2,6.4-1.8c-0.1-0.5-0.3-1.1-0.4-1.6
		C-14.4,348.1-16.6,348.6-18.8,349.2z"/>
	<path class="st7" d="M47.9,584.3c-2.1-1.9-4.7-3.5-6.2-5.8c-11.9-18.6-23.7-37.3-35.5-56c3.1,0.2,6.2,0.4,10,0.7
		c1.1,0.9,3,2.5,4.8,4.1h0c0.2,1.3,0.4,2.6,0.7,4.2c7.2-4.3,12.4-2.5,16.6,4.5c4.7,0,9.1-0.6,13.1,0.2c6,1.2,11.9,3.2,17.7,5.2
		c5.3,1.8,10.4,4.1,15.5,6.3c0.4,0.9,1.4-0.2,2.1,0c3.4,1,7.4-0.1,9.9,3.7c0.8,1.3,2.9,2,4.6,2.5c1.7,0.5,3.6,0,5.3,0.5
		c4.8,1.4,9.4,3.3,14.2,4.5c4.8,1.1,10.6,0.2,11.4,7.7c1.6-1.4,2.6-2.3,4-3.6c0.7,2.5,1.3,4.4,1.8,6.4c0.4,0,0.8-0.1,1.2-0.1
		c0.6-1.2,1.1-2.5,1.8-4c16.1,4.9,31.9,9.7,47.8,14.5c0.2,4.4,1.3,8,6.2,8.3c7.4,0.5,14.9,0.3,22.3,1.3c2.5,0.4,7.7,0.5,6.4,6.1
		c-0.1,0.6,1.1,1.7,1.9,2.1c4.5,2.3,9,5,13.7,6.7c5.5,2,11.4,3.2,17,4.9c2.2,0.7,4.2,2.4,6.4,2.9c5.4,1.2,10.9,1.9,16.4,2.9
		c4,0.7,8.2,2.6,11.8,1.8c10.1-1.9,19,2.2,28,4.8c4.4,1.3,7.7,1.8,12,0.2c2.8-1.1,6.5-1.1,9.5-0.2c3.3,0.9,6,4,9.3,4.8
		c6.2,1.4,12.6,1.8,18.3,2.6c0.8,3.6,1.6,6.9,2.3,10.1c3.3-0.8,6.5-2.7,7.9-1.8c5.7,3.7,11.7,5.2,18.3,5.1c3.3,0,6.6,0.5,9.8,1
		c1,0.1,2.5,0.7,2.7,1.4c1.6,5.5,7.2,6.1,10.8,7.1c7.6,2.1,15.7,2.1,23.7,2.8c5,0.4,10.2-0.1,15.1,0.8c4.9,0.9,9.5,3.2,14.2,4.8
		c1.2,0.4,2.5,0.7,3.8,0.6c6.2-0.4,12.9,3.9,15.2,10.1c-1.2,0.7-2.4,1.4-3.1,1.9c1.8,5.6,3.4,10.8,5.1,16.3c1.1-0.8,2.5-1.8,3-2.1
		c6.3,2.7,11.7,5.8,17.5,7.3c9,2.4,18.2,3.9,27.4,5.4c3.5,0.6,7.6,1.3,10.6,0c4.8-2,8.7-0.1,12.7,1.1c6.6,2,13,4.6,19.4,7.1
		c5,1.9,11.4,2,12,9.7c0.1,1.3,2.6,3.3,4.3,3.6c4,0.8,7.1,4.8,11.9,3.1c2.3-0.8,3.8,0.6,3.7,3.2c-3.6,2-6.9,4.5-10.7,6
		c-15.7,5.9-31.5,11.4-47.3,17.1c-0.9-1.1-1.5-2.9-2.7-3.3c-3.4-1.1-7.4-0.8-10.3-2.6c-3.2-1.9-5.4-4.8-9.4-1.8
		c-0.4,0.3-2.3-1-3.1-1.9c-3.7-3.8-7.7-6.4-13.4-4.2c-0.7,0.3-2-0.6-2.8-1.3c-1.1-0.8-1.9-2.4-3.1-2.8c-5.2-1.4-10.4-2.5-15.7-3.6
		c-1.7-0.4-4.6,0-5.1-0.9c-1.9-3.4-4.6-3.2-7.7-3.2c-0.9,0-2.2-0.3-2.7-0.9c-2.6-3.7-5.6-3.4-8.8-1c-4.4-5.1-11.7-8.1-19.5-8
		c-3,0-6,0.4-7.4-3.4c-0.2-0.7-2.7-1.4-3.2-1c-3,2.6-4.6,0.5-6.8-1.3c-1.5-1.2-3.7-1.7-5.7-2.3c-1.2-0.4-3.1,0.3-3.9-0.4
		c-2.8-2.6-5.4-4.9-9.4-1.9c-0.4,0.3-2.1-1.2-3.2-1.8c-4-2-7.8-4.8-12-5.8c-7.3-1.6-14.2-3.7-20.8-7.1c-0.9-0.4-1.8-0.9-2.7-1.1
		c-2.7-0.6-5.3-1-9-1.6c-2.1,3.3-4.5,0.8-7.1-2c-1.2-1.3-2.9-2.9-4.4-3c-12.6-1-23.1-10.7-36.3-8.6c-0.5,0.1-1.3-0.4-1.7-0.9
		c-2.5-3.2-5.6-4.4-9.6-4c-0.9,0.1-2.2-0.6-3-1.3c-4.4-4-9-5.9-14.9-2.5c-2.4-5.4-7.2-5.8-12.1-6.2c-1.2-0.1-2.5-0.7-3.6-1.2
		c-2.8-1.3-5.4-3.3-8.3-4.1c-7.4-2.2-14.8-3.8-22.1-6.4c-13.4-4.8-27.1-8.8-40.6-13.3c-4.7-1.6-9.2-3.9-9.9-9.9
		c-6-0.5-11.8-1-17.5-1.5c-9.4-0.9-18.9-1.4-26.5-8.3c-0.7-0.6-1.8-0.9-2.7-1.1c-8.7-2-18.1-1.1-26.1-6c-0.3-0.2-0.7,0-1-0.1
		c-6.5-1.4-13.1-2.5-19.4-4.4c-4-1.2-7.5-4.1-11.4-5.7c-2.2-0.9-4.9-0.8-7.8-1.3c-1.8-0.9-4.3-2.3-6.8-3.5c-4.5-2-10.5,0.3-14-4.8
		c-0.2-0.3-1.5-0.4-1.9-0.1c-3.1,3.1-5.2,0.1-7.7-1.1C51.5,585.6,49.7,585,47.9,584.3z"/>
	<path class="st8" d="M21,527.3c-1.9-1.6-3.8-3.2-4.8-4.1c-3.8-0.3-6.9-0.5-10-0.7c-1.4-2.7-2.8-5.4-4.2-8.2
		c1.6,0.2,3.2,0.3,4.8,0.8c18.1,5.3,36,11.2,54.3,15.8c22.9,5.7,45.9,10.9,69.1,15.3c33.9,6.5,67.9,12.8,102.1,17.9
		c31.2,4.6,62.7,7.8,94.1,11.1c18.8,2,37.8,2.9,56.7,4.2c-1.9,5.3,2.4,4.7,5.5,6c0.2-1.6,0.4-2.8,0.6-4c-0.4,0.2-0.9,0.5-1.3,0.7
		c-0.6-0.8-1.2-1.7-1.8-2.5c1.4,0.1,2.7,0.2,4.1,0.3c0.7,3.4,1.4,6.9,2,9.5c4.4,1,7.8,1.7,11.1,2.7c4,1.1,8.7,0.8,11.5,4.9
		c0.2,0.3,1.5-0.1,2.3-0.2c6.1-0.6,12.2-1.1,18.5-1.7c1.3,4.3,3.7,7.9,9.2,8.7c2,0.3,3.9,1.7,5.8,2.6c2.3,1.2,4.6,2.4,6.9,3.6
		c0.2-0.3,0.3-0.5,0.5-0.8c2.9,1.8,5.9,3.5,8.9,5.3c3.3-2.4,6.3-2.4,7.5,0.9c2.4,6.4,7.8,3,12.4,5.4c1.4,4.2,4.5,1.7,7.5-0.7
		c1.1,1.6,2,2.8,3.1,4.5c2.2-1.4,5.1-2.2,6.2-4.1c2.9-5.1,8.9-5.9,12.9-1c0.8-0.9,1.6-1.9,1.6-1.9c7.9,2.5,14.9,4.7,21.9,7
		c-0.4,2.3-0.6,4-1,6.2c1-0.8,1.5-1.2,2-1.6c0,2.5-0.3,5,0.1,7.5c0.2,1.4,1.8,3.8,2.3,3.7c4.7-1,7.5,3.2,11.6,3.6
		c3.2,0.3,6.4,0.4,9.5,0.5c0-0.5,0-1,0.1-1.4c0.4,1.5,0.8,3,1.2,4.8c1.8-1,3.1-1.7,4.5-2.5c0.6,1.9,1.2,3.4,1.7,5
		c2.9-0.5,5.7-0.9,8.5-1.4c2.9,1.4,6.1,4.3,9.1,4.2c2.6-0.2,3.8,0,5,2c0.2,0.3,0.8,0.2,1.3,0.3c1.8,0.3,3.7,0.7,5.5,1
		c-0.1,0.4-0.1,0.7-0.2,1.1c1.2-0.4,2.3-0.7,3.8-1.1c1,2.2,1.9,4.1,2.8,6c1.6-0.3,3.1-0.7,4.7-0.7c1.5,0,2.9,0.7,4.3,0.7
		c4.1-0.1,7.1,3.4,6.2,7.8c-0.3,0.3-0.7,0.7-1,1c-3.2,2.3-8.6-1.1-10.3,3.5c-1.4-0.5-2.9-1.7-4.2-1.5c-2.1,0.3-4,1.5-5.9,2.4
		c0.7,0.7,1.2,1.7,2,2.1c2.2,1.1,4.5,2.3,6.9,3c3.6,1.1,6.5,6.1,11.3,1.6c1,4.5,3.7,6,7.9,5.2c1.3-0.3,3,0.7,4.4,1.2
		c5.7,2,11.4,4.1,17.2,5.9c1.1,0.4,2.6-0.2,4.7-0.4c-0.1,0.2,0.3-0.8,0.8-1.9c2.5,1.9,4.6,3.5,6.5,5c0.2,2.2,0.4,4.4,0.6,6.6
		c-13.9,7.4-27.8,14.9-41.8,22.2c-1.8,0.9-4.1,1-6.1,1.4c0.2-2.6-1.4-4-3.7-3.2c-4.8,1.7-7.9-2.3-11.9-3.1c-1.7-0.3-4.2-2.2-4.3-3.6
		c-0.6-7.8-7-7.8-12-9.7c-6.4-2.5-12.8-5.1-19.4-7.1c-4-1.2-7.9-3.1-12.7-1.1c-3,1.3-7.1,0.6-10.6,0c-9.2-1.5-18.4-3-27.4-5.4
		c-5.8-1.5-11.2-4.6-17.5-7.3c-0.6,0.4-1.9,1.4-3,2.1c-1.7-5.5-3.3-10.7-5.1-16.3c0.7-0.4,1.9-1.2,3.1-1.9
		c-2.3-6.2-9.1-10.6-15.2-10.1c-1.2,0.1-2.6-0.2-3.8-0.6c-4.8-1.6-9.4-3.9-14.2-4.8c-4.9-0.9-10.1-0.4-15.1-0.8
		c-7.9-0.7-16.1-0.7-23.7-2.8c-3.6-1-9.2-1.7-10.8-7.1c-0.2-0.7-1.7-1.3-2.7-1.4c-3.3-0.5-6.5-1-9.8-1c-6.6,0.1-12.6-1.4-18.3-5.1
		c-1.4-0.9-4.6,1-7.9,1.8c-0.7-3.2-1.5-6.5-2.3-10.1c-5.6-0.7-12.1-1.2-18.3-2.6c-3.3-0.8-6-3.9-9.3-4.8c-3-0.8-6.6-0.8-9.5,0.2
		c-4.3,1.6-7.6,1.1-12-0.2c-9-2.6-17.9-6.7-28-4.8c-3.7,0.7-7.9-1.2-11.8-1.8c-5.5-0.9-11-1.7-16.4-2.9c-2.3-0.5-4.2-2.2-6.4-2.9
		c-5.6-1.8-11.5-2.9-17-4.9c-4.8-1.8-9.2-4.4-13.7-6.7c-0.8-0.4-2-1.6-1.9-2.1c1.3-5.7-3.8-5.8-6.4-6.1c-7.3-1-14.8-0.8-22.3-1.3
		c-4.8-0.3-6-3.9-6.2-8.3c-15.9-4.8-31.7-9.7-47.8-14.5c-0.7,1.5-1.3,2.7-1.8,4c-0.4,0-0.8,0.1-1.2,0.1c-0.6-1.9-1.1-3.8-1.8-6.4
		c-1.4,1.3-2.4,2.1-4,3.6c-0.8-7.5-6.6-6.5-11.4-7.7c-4.8-1.2-9.5-3.1-14.2-4.5c-1.7-0.5-3.6,0-5.3-0.5c-1.7-0.5-3.7-1.2-4.6-2.5
		c-2.5-3.9-6.6-2.8-9.9-3.7c-0.7-0.2-1.7,0.9-2.1,0c-5.2-2.1-10.3-4.4-15.5-6.3c-5.8-2-11.7-4-17.7-5.2c-4.1-0.8-8.4-0.2-13.1-0.2
		c-4.2-7-9.3-8.8-16.6-4.5C21.4,529.9,21.2,528.6,21,527.3c0.1-0.1,0.2-0.3,0.2-0.4C21.2,527,21.1,527.1,21,527.3z"/>
	<path class="st9" d="M554.1,188.3c-0.4,1.7-1,3.4-1,5.1c-0.1,15.1,0,30.1-0.1,45.2c0,3.5-2.1,5.4-5.6,5.7
		c-5.7,0.4-11.5,1.1-17.2,0.9c-4.5-0.2-8.1,0.8-11.1,4.1c-3.5-3.7-7-7.4-10.6-11.2c-9.3,7.7-19.2,8.8-29.7,4.1
		c-4.8-2.2-8.2-5.9-8.8-12.1c18.4,0,36.4,0,54.5,0c1.2-10.8-0.4-20.7-7.3-28.6c-4.3-4.8-10.3-8.1-15.6-12.1c0.6-0.3,1.2-0.7,1.8-0.8
		c6.2-1.1,12.6-1.5,18.6-3.4c5.5-1.8,9.3-8,16.2-6.4c3.6-6.4,13-1.2,16.3-8.2c0,0,0.3,0.1,0.5,0.1c3.8-1.4,7.7-2.7,11.4-4.3
		c0.9-0.4,1.7-1.6,2.2-2.6c3.5-7.3,4.1-7.4,12.4-6.8c2.1,0.2,4.3-1.2,6.3-2c4.8-1.8,9.6-3,13.9-6.3c1.8-1.3,3.4-1.7,3.7-4.2
		c0.2-1.3,1.1-2.5,1.8-3.7c0.9-1.6,1.8-3.2,2.9-4.6c2.1-2.7,3.1-6.8,8.3-5.4c1.5,0.4,4.1-1.2,5.3-2.6c2.8-3.4,9.3-5.9,13.4-4.6
		c3.8-9.6,7.6-19.2,11.5-28.7c0.7-1.7,2.1-3.4,3.7-4.5c2.2-1.5,4.5-2.2,3.6-6c-0.3-1.3,2.8-4.4,4.8-4.9c5.7-1.5,11.6-2,17.4-3.2
		c2.4-0.5,4.9-2.7,7-2.3c6.6,1.3,11.3-1,17.1-4.4c10-5.7,16.7-15.6,27.7-19.6c3.8-1.4,6-6.4,11-5.9c0.5,0,1.1-1,1.7-1.6
		c4.4-3.9,8.3-8.7,13.3-11.3c5.7-3.1,7.8-7,7.3-12.9c-0.3-4.2,2.1-6.3,5.5-7.9c4.4-2.1,8.8-4.3,13.2-6.3c2.4-1.1,5-1.9,7.5-2.9
		c9.2,12.4,18.6,24.7,27.6,37.4c4.5,6.3,8.1,13.1,12.1,19.7c-5,4.8-11,7.7-17.4,10.4c-2.4,1-3.7,5.5-4.9,8.6c-1,2.6-2.2,3.7-5.2,4.2
		c-5.6,0.8-11,2.7-16.5,4c-2.4,0.5-4.9,1-7.3,0.8c-6.2-0.6-10.4,2.6-14.6,6.5c-3.6,3.4-6.1,8.5-12.2,8.3c-0.4,0-1.1,0.9-1.2,1.4
		c-1.2,5.2-5.7,5.9-9.5,7.2c-1.5,6.1-2.2,12.4-4.8,17.8c-2.5,5.3-7,9.6-10.7,14.3c-2.3-1.1-3.6-1.7-4.2-2c-5.9,3-10.2,8-17.3,6.6
		c-3.3-0.6-6.8,0-10.2-0.1c-6.7-0.2-12.1,5-10.9,11.9c1.1,6.9-3.3,11.9-5.4,17.6c-1.1,2.9-5.7,4.5-8.4,6.9c-2.2,2-4.1,4.5-6.4,7.2
		c-1.4-1.7-2.4-2.9-3.8-4.7c-1,1.3-2.3,2.4-2.7,3.7c-1.8,6.3-1.7,6.3-7.1,2.8c-5.5,3.5-11.5,4.6-18,3.8c-3-0.4-6.1-0.8-7.2,3.2
		c-10.7-13.4-31.8-15.9-48.7-3c-0.2-2.4-0.3-4.6-0.5-7.3C567,188.3,560.5,188.3,554.1,188.3z M725.6,135.6c-0.1-0.3-0.2-0.7-0.4-0.8
		c-0.2-0.1-0.5,0.2-0.8,0.3c0.1,0.3,0.2,0.7,0.4,0.8C725,135.9,725.3,135.7,725.6,135.6z"/>
	<path class="st10" d="M546,353.1c0.7-1.3,1.1-3.6,2-3.8c4-0.9,4.1-3.5,4.1-6.7c-0.2-5.2,5.5-11.2,10.7-11.8
		c0.6-0.1,1.6-0.5,1.6-0.7c-0.2-3.2,3.2-1.7,4.1-3.2c1.3-1.9,2.3-3.9,3.6-6.2c2,1.2,3.8,2.2,5.7,3.4c0.7-2.1,1.6-4.5,2.5-7
		c0.8,1,1.6,2,3,3.8c2.1-13.8,12.8-16.2,22.7-19.6c2,1.5,4,3,5.1,3.8c1.8-1,3.4-2.3,5.2-2.8c6.1-1.6,13.9,0.2,15.8-8.7
		c7.8,3.6,12.1,0.7,12.4-7.6c0.1-1.6,1.8-4,3.3-4.5c2.7-1,5.7-0.5,5.9,3.8c0.2-5.9,5.3-3.5,7.8-5.1c1.8-1.2,4-2.6,4.7-4.5
		c1-2.4,0.7-5.3,0.9-7c4.3-1,7.9-1.3,10.9-2.7c5.8-2.7,11.2-6.1,16.7-9.3c0.8-0.5,0.9-2.1,1.5-2.9c1.5-1.9,2.1-4.9,5.9-3.8
		c1.1,0.3,2.9-1.6,4.3-2.7c1.8-1.5,3.5-3.1,5.3-4.8c2.1-2,3.9-4.3,6.3-6c3.1-2.2,5.6-4.6,6.3-8.5c0.1-0.3,1.1-0.5,1.8-0.7
		c5.1-1.6,10.2-3.1,15.3-5c1.4-0.5,3-1.7,3.5-3c1.5-3.5,2.4-7.3,4-10.7c0.3-0.7,2.6-0.6,4.4-0.9c0.6-1.7,1.5-4.2,2.4-6.7
		c3.3-1.3,7.9,1.1,11.6-2.8c1.5-1.6,4.6-2.6,6.7-2.3c4.7,0.7,7.6-0.7,9.6-4.9c0.5-1.1,1.8-2.1,3-2.4c6.4-2,10.9-5.4,10.8-12.8
		c0-0.7,1-1.4,1.8-2.5c0.9,1.9,1.5,3.3,2.5,5.4c1.7-2.2,2.7-4.3,4.4-5.3c1.4-0.9,3.7-0.4,5.4-1c0.7-0.2,1.2-1.5,1.7-2.3
		c0.7-1.4,1.4-2.9,2.2-4.6c1.4,0.6,3.1,1.6,3.4,1.3c2.4-2.6,7.7-1.9,7.9-7.1c0-1,1.8-2,2.8-3c0.9-0.9,2.2-1.6,2.7-2.7
		c0.8-1.7,1.1-3.6,1.8-6c1.7,1.8,2.8,2.9,4.7,5c1.4-3.6,2.7-6.4,3.6-9.2c1.5-4.6,6-5.8,9.7-2.5c1.8-3.9,7.5-6.8,13.2-6.8
		c4.7,14.4,9.7,28.7,13.9,43.2c2.6,8.8,4,17.9,6,26.8c-9-0.2-17.4,4.8-26.6,3c-0.4-0.1-1,0.1-1.4,0.3c-4.2,2.2-8.5,4.2-12.4,6.8
		c-5.6,3.7-11,7.8-16.2,11.9c-4.3,3.4-7.6,8.4-12.4,10.6c-7,3.3-13.3,7.4-19.5,11.8c-2.2,1.6-4,3.2-3.7,6.3c0,0.2-0.4,0.5-0.7,0.8
		c-1.3-0.5-2.6-1.1-3.3-1.4c-4.1,2.8-7.8,5.2-11.4,7.8c-2.1,1.5-3.8,3.5-5.8,5.1c-5,3.7-9.8,7.7-15.2,10.6c-2.7,1.5-3.5,6.5-8.1,4.8
		c-0.3-0.1-1.7,1.3-1.8,2.1c-0.5,3-2.3,4.2-5.1,5c-1.3,0.4-3.3,1.6-3.4,2.6c-0.7,5.1-3.4,2.9-5,2c-3.7,2.7-7,4.8-10,7.3
		c-4.5,3.9-8.5,8.2-13.8,11c-1.1,0.6-1.9,2-3,2.2c-6.3,0.8-9.4,4.3-9.5,8.8c-3.3,2.5-5.5,4.1-7.9,5.9c-1.9-2.6-3.5-1.5-4.9,1.1
		c-1.2,2.4-2.3,4.7-3.5,7c-2-0.4-3.6-0.7-5.2-1c0.3-2.1,0.6-4.2,0.8-6.3c0.4-5.2-2.6-8.5-7-10.3c-5.1-2.1-10.1-1.7-14.5,1.9
		c-3.9,3.2-5.4,7.4-3.8,12.4c2.1,6.6,6.7,8.9,17,8.4c3.9,2.9,1.2,6.6,1.3,10c-5.4,0.4-10.8,0.7-16.2,1.1c-0.5,0.8-1.4,1.7-1.4,2.5
		c-0.2,4.5-0.2,9-0.3,13.5c-6.2,2.1-12.4,4.3-19.2,6.6c-3.7-3.6-3.7-3.5-9.3,0.4c-1,0.7-2.4,0.8-3.7,1.2c-0.2-0.4-0.6-0.8-0.7-1.3
		c-2-14-9.2-21.5-23-24.2c-11.1-2.1-20.8,1-29.9,7.9c-0.2-2.7-0.4-4.9-0.6-7.8C558.2,353.1,552.1,353.1,546,353.1z"/>
	<path class="st11" d="M390.1,579.9c-1.4-0.1-2.7-0.2-4.1-0.3c-1,0-2-0.1-3-0.1c-18.9-1.4-37.9-2.3-56.7-4.2
		c-31.4-3.3-62.8-6.5-94.1-11.1c-34.2-5.1-68.2-11.4-102.1-17.9c-23.2-4.4-46.2-9.6-69.1-15.3c-18.3-4.6-36.2-10.5-54.3-15.8
		c-1.5-0.4-3.2-0.5-4.8-0.8c-6.2-2.3-12.3-4.7-18.5-6.9c-29.1-10.4-58-21.4-85.3-36.1c-18.3-9.8-36.1-20.7-50.1-36.4
		c-6-6.8-10.9-14.3-12-23.6c-1.7-13.8,6.1-22.6,16.1-30c12.8-9.3,27.3-15.2,42.6-18.7c19-4.3,38.3-7.6,57.5-11.4
		c7.9-0.7,15.8-1.4,23.8-2c0.1,0.3,0.1,0.6,0.2,0.9c-7.6,1.6-15.2,3.2-23.3,4.9c1.2,7.3,2.3,14.3,3.4,21.3
		c3.8,16.7,7.6,33.4,11.3,50.2c5.7,16.6,11.3,33.2,17,49.8c2.3,5.7,3.5,11.4,10.7,14.2c35.9,13.8,72.5,25.2,109.6,35
		c50.8,13.4,102.3,23.6,154.1,31.8c14.6,2.3,29.3,4,43.9,6c8.6,1.1,17.1,2.5,25.7,3.3c40.1,3.4,80.2,7.4,120.4,9.5
		c28.9,1.5,58,0.3,86.9,0.2c0.9,0.1,1.9,0.1,2.8,0.2c-0.4,0.2-0.8,0.7-1.2,0.7c-20.4,1.3-40.8,3.3-61.2,3.6
		C447.7,581.1,418.9,580.2,390.1,579.9z"/>
	<path class="st12" d="M789.3,1.2c-2.5,0.9-5.1,1.8-7.5,2.9c-4.4,2-8.8,4.2-13.2,6.3c-3.4,1.6-5.8,3.8-5.5,7.9
		c0.5,5.9-1.6,9.9-7.3,12.9c-5,2.7-8.9,7.5-13.3,11.3c-0.6,0.5-1.2,1.6-1.7,1.6c-5.1-0.4-7.2,4.5-11,5.9c-11,4-17.7,13.9-27.7,19.6
		c-5.8,3.3-10.5,5.6-17.1,4.4c-2.1-0.4-4.6,1.8-7,2.3c-5.8,1.2-11.7,1.7-17.4,3.2c-2,0.5-5.1,3.7-4.8,4.9c0.9,3.8-1.3,4.5-3.6,6
		c-1.5,1-2.9,2.8-3.7,4.5c-4,9.5-7.7,19.1-11.5,28.7c-4.2-1.3-10.6,1.2-13.4,4.6c-1.2,1.4-3.9,3-5.3,2.6c-5.2-1.4-6.2,2.7-8.3,5.4
		c-1.1,1.4-2,3-2.9,4.6c-0.7,1.2-1.7,2.4-1.8,3.7c-0.3,2.5-2,2.9-3.7,4.2c-4.3,3.3-9.2,4.5-13.9,6.3c-2.1,0.8-4.3,2.2-6.3,2
		c-8.4-0.6-8.9-0.5-12.4,6.8c-0.5,1-1.2,2.2-2.2,2.6c-3.7,1.6-7.6,2.9-11.4,4.3c-0.1,0-0.5-0.1-0.5-0.1c-3.3,7-12.7,1.8-16.3,8.2
		c-6.9-1.6-10.7,4.6-16.2,6.4c-5.9,1.9-12.4,2.3-18.6,3.4c-0.6,0.1-1.2,0.5-1.8,0.8c-9-2.3-17.9-3.2-27-0.4
		c-12.8,3.9-20.5,12.9-25.5,24.8c0,0.6-0.1,1.1-0.1,1.7c0.1,0.3,0,0.6-0.2,0.8c-7.4,0.3-14.8,0.5-22.2,0.8c-0.7,0-1.3,0.8-1.9,1.2
		c-2-8.5-5.2-16.3-12.1-22.3c-8.6-7.6-18.8-9.3-29.7-8.7c0.6-0.7,1.1-1.8,1.8-1.9c2.9-0.7,6.1-0.5,8.8-1.6
		c5.2-2.1,10.1-5.1,15.2-7.3c2.3-1,5.2-0.5,7.5-1.5c6.6-3,13-6.5,19.6-9.5c3-1.3,6.6-1.2,9.7-2.4c5.9-2.4,11.6-5.4,17.4-7.8
		c7.3-3,14.7-5.7,22.2-8.3c5.7-2,10-7.7,16.9-7c0.4,0,0.8-0.5,1.3-0.7c6.6-3.2,13.2-6.4,19.8-9.6c0.6-0.3,1.3-0.2,1.9-0.4
		c4.3-1.3,8.7-2.4,13-3.9c1.2-0.4,2.1-1.9,3-2.9c1.5-0.4,3.1-0.6,4.6-1.2c1.2-0.4,2.8-1.9,3.4-1.5c5.5,3.4,8.9-5.2,14.1-2.3
		c1.4-5,6.2-2.1,8.9-4c1.7-1.2,3-3.4,4.9-4c7.2-2.3,14.6-3.9,21.8-6.4c3.4-1.2,6.1-4.5,9.5-5.6c5.5-1.7,11-3.1,16.3-5.9
		c6.5-3.4,13.6-5.6,20.4-8.3c4.5-1.8,9.8-9.4,9.4-14.2c0-0.3-1-0.6-1.6-0.9c0.8-2,1.5-4,2.4-5.9c0.6-1.2,1.8-2.1,2.1-3.3
		c4.8-18.4,10.3-36.6,11.5-55.7c0-0.7,0-1.3,0-2c2.3-3.3,4.5-6.7,7-9.9c1-1.3,2.8-3.2,3.9-2.9c5,1.2,8.8-1.4,13-3.1
		c3.1-1.2,6.3-3.3,9.7-0.4c0.4,0.3,1.3,0.1,1.9-0.1c4.8-1.6,9.6-3.2,13.5-4.5c0.6-5.3,0.7-9.4,1.6-13.4c1.1-4.6,1.6-10.1,9.1-8.3
		c1.3,0.3,4.5-2,4.6-3.4c0.6-5.1,4.5-4.3,7.7-5.1c14.1,14.5,28.3,29,42.4,43.6C785.7-4,787.4-1.3,789.3,1.2z"/>
	<path class="st7" d="M669,353.1c-0.1-3.4,2.6-7.1-1.3-10c2.5-2,5-4.1,7.5-6.1c1.6,0.3,3.2,0.6,5.2,1c1.1-2.3,2.3-4.7,3.5-7
		c1.3-2.6,3-3.7,4.9-1.1c2.5-1.8,4.6-3.5,7.9-5.9c0.1-4.4,3.2-8,9.5-8.8c1.1-0.1,1.9-1.6,3-2.2c5.3-2.8,9.4-7.1,13.8-11
		c3-2.6,6.3-4.7,10-7.3c1.6,0.9,4.3,3.1,5-2c0.1-1,2.1-2.3,3.4-2.6c2.8-0.8,4.5-2,5.1-5c0.2-0.8,1.5-2.2,1.8-2.1
		c4.6,1.6,5.3-3.4,8.1-4.8c5.4-2.9,10.2-6.9,15.2-10.6c2.1-1.5,3.7-3.5,5.8-5.1c3.6-2.6,7.3-5,11.4-7.8c0.7,0.3,2.1,0.9,3.3,1.4
		c0.3-0.4,0.8-0.6,0.7-0.8c-0.4-3.1,1.4-4.7,3.7-6.3c6.2-4.4,12.5-8.5,19.5-11.8c4.7-2.2,8.1-7.2,12.4-10.6
		c5.2-4.2,10.6-8.2,16.2-11.9c3.9-2.6,8.3-4.6,12.4-6.8c0.4-0.2,1-0.4,1.4-0.3c9.2,1.8,17.6-3.2,26.6-3c1.7,8.5,3.8,17,5,25.6
		c1.7,12.3,2.7,24.6,3.9,36.9c0.2,2.1,0,4.3,0,6.5c-3.1,2.6-6.1,5.3-9.3,7.9c-2,1.6-4.5,2.8-6.2,4.8c-1.8,2.1-2.7,4.9-4.4,7.1
		c-5,6.7-7.8,7.3-11.9,1.7c-0.5,2.6-0.7,4.3-1.1,6.1c-0.3,1.1-0.7,2.5-1.5,3.2c-1.5,1.4-3.3,2.4-5.2,3.7c-4.1-2.8-8.4-1.9-7.7,2.3
		c0.8,5.1-2.7,6.4-4.6,9.2c-6.2-2.7-6.5-2.4-9.1,4.3c-0.4,1.1-2.1,2.6-3.2,2.5c-3.3-0.1-5.1,1.6-6.7,4.1c-0.5,0.9-1.6,1.8-2.6,2
		c-5.1,1-8.6,3.7-10.2,9c-8.9-1.7-9.5,8.3-16.1,10.4c-4.3-3.9-7-2.1-10,7.6c-4-0.3-8-0.1-8.8,4.8c-3-0.2-5.6-0.4-8.3-0.6
		c-15.3-13.9-45.4-14.8-59.8-1.5c2.3,4.6,4.7,9.3,7,14.1c10.6-5.9,18.3-7.4,27.4-5.6c6.5,1.3,10.5,6.5,9.5,13
		c-6.9,0-13.9-0.5-20.8,0.1c-16,1.3-27.5,7.2-26.3,25.8c-2.1,3.9-5,6.2-9.8,6.1c-3.7-0.1-7.5,0.6-11.2,0.7c-3.6,0.2-5.8,1.5-6.3,5.4
		c-0.1,1-1.8,1.8-2.8,2.7c0-23.5,0-47,0-70.6C671.9,353.4,670.4,353.3,669,353.1z"/>
	<path class="st13" d="M390.1,579.9c28.8,0.3,57.5,1.2,86.3,0.8c20.4-0.3,40.8-2.3,61.2-3.6c0.4,0,0.8-0.5,1.2-0.7
		c3.2-0.2,6.7,0.3,9.5-0.7c7.3-2.6,9-2.3,11.4,3.9c5.7,1.3,11.1,2.7,16.6,3.9c1.1,0.2,2.4,0.1,3.5-0.2c1.7-0.5,3.3-1.7,5-1.8
		c3.4-0.3,6.9-0.1,9.9-0.1c1-1.7,1.7-2.9,2.4-4.1c1.3-0.3,2.5-0.5,3.8-0.8c0.7-0.3,1.4-0.7,2.1-1l0,0.1c7.4-2,14.9-4.1,22.6-6.2
		c6.6,20.2,13.2,40.1,19.8,60.3C656,622,666,614.7,676,607.4c1.2,4,4,6.5,7.8,7.6c4.5,1.4,9.1,2.4,13.7,3.2c3.6,0.7,6.7,1.3,6.8,6.1
		c0,1.3,2.1,3.6,3.4,3.8c8.2,0.9,13.8,6.2,21.5,10.7c-2.7,2.1-4.3,3.9-6.4,4.8c-5.2,2.4-10.7,4.3-16,6.5c-1,0.4-2.5,1.4-2.4,1.9
		c0.1,1.1,0.9,2.8,1.9,3.2c5.8,2.2,11.8,4.1,17.7,6c-12.8,9.4-25.6,18.8-38.4,28.2c-1.8,1.3-3.7,2.6-5.5,4c-1.1-0.9-2.1-2.1-3.4-2.6
		c-5.1-2-10.3-3.8-15.7-5.7c-2.1-0.2-4.6-0.6-7.2-0.8c-2.7-0.3-4.6-3.4-8.2-1.7c-1.2,0.6-3.8-2.6-6-3.4c-3.7-1.4-7.6-2.4-12.3-3.7
		c-0.1,0.1-1.3,0.8-3,1.9c-0.6-2.4-1-4.3-1.4-6.2c8-1.6,15.9-3.1,23.9-4.9c3.2-0.7,6.3-1.8,10-2.9c-0.7-0.5-1.3-1.4-2.2-1.6
		c-9.1-2.7-17.4-8.5-27.6-7.7c-1.1,0.1-2.3-0.2-3.3-0.7c-5.2-2.2-10.9-3.7-15.4-6.8c-6.6-4.6-14.6-3.6-21.5-7.3c-3.7-2-9-2.2-13.4-4
		c-3.1-1.2-6.4-1.7-9.5-2.8c-2.4-0.9-4.4-2.9-6.8-3.5c-4.9-1.2-10-1.8-15.5-2.7c0,0.1-0.3,1.5-0.6,2.9c-0.5,0.4-1,0.8-2,1.6
		c0.3-2.2,0.6-3.9,1-6.2c-7-2.2-14-4.5-21.9-7c0,0-0.8,0.9-1.6,1.9c-4-4.9-10-4.2-12.9,1c-1.1,1.9-4,2.7-6.2,4.1
		c-1.2-1.7-2-2.9-3.1-4.5c-3,2.4-6,4.9-7.5,0.7c-4.6-2.4-10,1-12.4-5.4c-1.3-3.3-4.2-3.3-7.5-0.9c-3.1-1.8-6-3.6-8.9-5.3
		c-0.2,0.3-0.3,0.5-0.5,0.8c-2.3-1.2-4.6-2.5-6.9-3.6c-1.9-1-3.8-2.3-5.8-2.6c-5.4-0.8-7.8-4.3-9.2-8.7c-6.3,0.6-12.4,1.1-18.5,1.7
		c-0.8,0.1-2.1,0.5-2.3,0.2c-2.8-4.1-7.4-3.8-11.5-4.9c-3.4-0.9-6.8-1.6-11.1-2.7C391.5,586.7,390.8,583.3,390.1,579.9z"/>
	<path class="st14" d="M892.7,342.3c-2.1,13.1-4.3,26.2-6.3,39.3c-0.7,4.6-1.1,9.2-1.7,13.7c-1.2,0.8-3.4,1.6-3.5,2.5
		c-0.7,9-10.2,8.8-14.4,14.2c-1.4,1.8-4.2,2.6-6.3,3.9c0.2,0.4,0.3,0.8,0.5,1.2c-1.6-0.1-3.1-0.2-4.6-0.3
		c-0.9,4.8-16.3,15.8-25.5,18.4c1.2,4.1-1.8,4.8-4.8,6c-1.7,0.7-3,2.3-4.5,3.6c-2.5,2.1-4.8,4.5-7.5,6.2
		c-5.4,3.6-11.6,6.2-16.4,10.5c-4.8,4.3-9.7,7.9-15.3,10.9c-5.1,2.8-9.7,6.5-14.4,10c-0.7,0.5-0.9,1.7-1.5,2.6c-0.6,1-1.1,2.2-2,2.8
		c-6.3,4.5-12.7,8.8-18.9,13.4c-3,2.2-5.3,5.3-8,7.9c-0.4-0.2-0.8-0.4-1.2-0.6c-1.2-0.1-2.4-0.1-3.6-0.2c-1.2,0-2.3,0-3.5-0.1
		c-11.9-1.7-23.8-3.3-35.7-5.2c-6.9-1.1-13.8-2.5-20.8-3.7c1.9-0.7,4.1-1.2,5.7-2.3c3.1-2.2,5.7-5,8.8-7.2c4.6-3.3,9.5-6.3,14.2-9.6
		c8.7-6,17.3-12.2,26-18.3c3.8-2.6,6-6.2,6-10.8c0-10.1,0.9-11.5,9-13.3c1.6-2.1,3-5.2,4-5.1c5.6,0.8,5.6-3.2,6.5-6.6
		c6.6,0.1,13.2,0.1,19.8,0.2c3.6-1.5,7.6-2.4,10.6-4.7c11.9-8.9,23.1-18.7,35.5-26.9c7.2-4.8,14.1-10.1,21.1-15.1
		c10.1-7.1,20.4-14.2,30.6-21.2c3.1-2.1,6.3-4.1,9.3-6.3C884.3,348.9,888.5,345.6,892.7,342.3z"/>
	<path class="st15" d="M47.9,584.3c1.8,0.7,3.7,1.3,5.4,2.1c2.5,1.2,4.6,4.2,7.7,1.1c0.3-0.3,1.6-0.3,1.9,0.1
		c3.5,5.1,9.5,2.8,14,4.8c2.5,1.1,5,2.5,6.8,3.5c3,0.4,5.6,0.3,7.8,1.3c3.9,1.6,7.4,4.5,11.4,5.7c6.3,2,12.9,3,19.4,4.4
		c0.3,0.1,0.7-0.1,1,0.1c8.1,4.9,17.4,4,26.1,6c1,0.2,2.1,0.5,2.7,1.1c7.6,6.9,17.1,7.4,26.5,8.3c5.8,0.5,11.5,1,17.5,1.5
		c0.8,6,5.2,8.3,9.9,9.9c13.5,4.5,27.2,8.5,40.6,13.3c7.3,2.6,14.7,4.3,22.1,6.4c2.9,0.9,5.5,2.8,8.3,4.1c1.2,0.6,2.4,1.1,3.6,1.2
		c4.9,0.4,9.6,0.8,12.1,6.2c5.9-3.4,10.6-1.5,14.9,2.5c0.8,0.7,2,1.4,3,1.3c4-0.4,7.1,0.8,9.6,4c0.4,0.5,1.2,1,1.7,0.9
		c13.3-2.1,23.8,7.6,36.3,8.6c1.6,0.1,3.2,1.7,4.4,3c2.6,2.8,5,5.2,7.1,2c3.7,0.7,6.4,1.1,9,1.6c0.9,0.2,1.8,0.6,2.7,1.1
		c6.6,3.3,13.5,5.5,20.8,7.1c4.2,0.9,8,3.8,12,5.8c1.1,0.6,2.8,2.1,3.2,1.8c4-3,6.5-0.7,9.4,1.9c0.8,0.7,2.6,0.1,3.9,0.4
		c2,0.6,4.2,1,5.7,2.3c2.2,1.7,3.8,3.8,6.8,1.3c0.5-0.4,2.9,0.3,3.2,1c1.4,3.8,4.3,3.5,7.4,3.4c7.7,0,15.1,3,19.5,8
		c3.1-2.4,6.1-2.7,8.8,1c0.4,0.6,1.8,0.9,2.7,0.9c3,0,5.8-0.2,7.7,3.2c0.5,0.9,3.4,0.5,5.1,0.9c5.2,1.1,10.5,2.2,15.7,3.6
		c1.2,0.3,2,1.9,3.1,2.8c0.8,0.6,2.2,1.5,2.8,1.3c5.7-2.2,9.6,0.4,13.4,4.2c0.9,0.9,2.8,2.2,3.1,1.9c4-3,6.2-0.1,9.4,1.8
		c2.9,1.7,6.9,1.5,10.3,2.6c1.1,0.4,1.8,2.1,2.7,3.3c-10.3,2.6-20.5,5.2-30.8,7.8c-2.7-1.6-5.3-3.5-8.2-4.6
		c-8.7-3.3-17.6-6.5-26.4-9.4c-8.7-2.8-17.5-5.2-26.2-8c-13.9-4.5-27.7-9.2-41.6-13.7c-9.5-3.1-19.1-6-28.7-8.9
		c-2.5-0.8-5.2-1.1-7.6-2c-8.7-3-17.4-6.2-26-9.3c-4-1.4-7.9-3-12-4.2c-7.2-2.1-14.5-3.7-21.6-5.9c-13.3-4.2-26.5-8.6-39.8-13.1
		c-8.4-2.8-16.6-6.3-25.1-8.9c-15.1-4.7-30.3-8.9-45.3-13.6c-8.8-2.8-17.3-6.4-26-9.2c-12.4-4-24.9-7.6-37.3-11.5
		c-13.9-4.4-27.7-9-41.5-13.5c-4.2-1.3-8.6-2.1-12.8-3.5c-9.7-3.1-19.3-6.4-29.1-9.4c-0.8-0.2-2,1.1-3.1,1.7
		c-6.6-7.9-13.3-15.7-19.8-23.7C48.3,587,48.3,585.5,47.9,584.3z"/>
	<path class="st14" d="M495.1,764.3c-3.6,0.7-7.2,1.7-10.8,2c-15.7,1.5-31.5,2.7-47.2,4c-1,0.1-2-0.2-3-0.2c-1.2-1-2.2-2.4-3.5-2.8
		c-5.7-1.9-11.6-3.3-17.3-5.3c-6.3-2.2-12.5-4.8-18.7-7c-3.1-1.1-6.4-1.8-9.5-2.8c-6.4-2-12.9-4-19.3-6.1
		c-6.7-2.2-13.4-4.5-20.1-6.9c-2.4-0.9-4.7-2.3-7.2-3c-12.2-3.5-24.6-6.5-36.8-10.3c-8.9-2.7-17.5-6.5-26.4-9.5
		c-16.9-5.6-34.4-8.8-50.7-16.9c-9.6-4.8-20.8-6.2-31.3-9.4c-12.4-3.7-24.8-7.7-37.2-11.4c-6.8-2-13.7-3.7-20.5-5.5
		c-5.9-4.5-12-8.7-17.5-13.5c-8.3-7.3-16.3-15-24.4-22.5c0.8-0.4,1.5-0.8,2.3-1.2c0.7,0.4,1.4,0.9,2.2,1.1c4.3,1,8.5,2,12.8,2.9
		c1.3,0.3,2.7,0.7,4,1c2.2,3.2,5,4.8,9,4c1,0,2,0,3,0c2.4,0.5,3.8,4.5,7,2c0.3,0,0.7,0,1,0c1.1,1,2.1,2.5,3.4,2.9
		c4,1.4,8.1,2.2,12.1,3.6c4.4,1.6,8.6,4.8,13.1,5.2c6.5,0.6,12,3.6,18,5.3c5.1,1.4,10.3,2.7,15.5,4c0.3,0,0.7,0,1,0
		c6.5,2.6,13,5.1,19.5,7.7c2.7,1.1,5.3,2.3,8.1,3.2c5.1,1.7,10.3,3.3,15.5,4.7c1.9,0.5,3.9,0.3,5.9,0.4c0.3,0,0.7,0,1,0
		c4.7,1.7,9.4,3.4,14,5c2.6,0.9,5.3,1.7,7.9,2.6c3.8,1.4,7.5,2.9,11.3,4.3c1.5,0.6,3.1,1,4.6,1.3c6.8,1.1,12.6,6.6,20.1,4.8h0
		c0.2,1.1,0.5,2.3,0.7,3.4c0.4-0.5,0.9-1,1.3-1.4c1,0,2,0,3,0c2.4,1.9,4.5,4.4,8.2,3.1c0.6-0.2,1.5,0.6,2.2,0.9
		c4.3,1.6,8.4,3.8,12.9,4.8c3.8,0.8,7.1,1.4,7.9,5.4c3.4,0,7.6-1.2,9.1,0.3c3.3,3.4,7.4,2.1,10.9,3.4c7.5,2.8,15.5,4.3,23.2,6.6
		c2.3,0.7,4.1,2.8,6.4,3.5c10.6,3.5,21.3,6.9,32,10.1c3.8,1.1,7.9,1.3,11.6,2.6c7.5,2.7,14.9,6,22.4,8.7c3.2,1.2,6.6,1.7,10,2.5
		c7.9,1.9,14.6,8.1,23.5,6.3C492.4,762.2,493.9,763.6,495.1,764.3z"/>
	<path class="st16" d="M892.7,342.3c-4.2,3.3-8.4,6.6-12.8,9.8c-3,2.2-6.2,4.1-9.3,6.3c-10.2,7-20.4,14.1-30.6,21.2
		c-7.1,5-13.9,10.4-21.1,15.1c-12.4,8.2-23.6,18-35.5,26.9c-3,2.3-7,3.2-10.6,4.7c0-13.1-0.1-26.2,0.2-39.3
		c0.2-8.5-1.6-16.4-6.1-23.7c2.6,0.2,5.2,0.4,8.3,0.6c0.9-4.9,4.9-5,8.8-4.8c3-9.8,5.7-11.5,10-7.6c6.6-2,7.2-12,16.1-10.4
		c1.6-5.3,5.1-8,10.2-9c1-0.2,2.1-1.1,2.6-2c1.6-2.6,3.4-4.2,6.7-4.1c1.1,0,2.7-1.4,3.2-2.5c2.6-6.7,3-7,9.1-4.3
		c1.8-2.8,5.3-4.1,4.6-9.2c-0.6-4.2,3.7-5.1,7.7-2.3c1.9-1.3,3.7-2.3,5.2-3.7c0.8-0.8,1.2-2.1,1.5-3.2c0.5-1.7,0.7-3.5,1.1-6.1
		c4.2,5.5,6.9,4.9,11.9-1.7c1.7-2.2,2.6-5.1,4.4-7.1c1.7-1.9,4.2-3.1,6.2-4.8c3.1-2.6,6.2-5.3,9.3-7.9
		C896,296.3,894.2,319.3,892.7,342.3z"/>
	<path class="st17" d="M737.8,509.1c2.6-2.7,5-5.7,8-7.9c6.1-4.7,12.6-8.9,18.9-13.4c0.9-0.6,1.4-1.8,2-2.8c0.5-0.8,0.7-2.1,1.5-2.6
		c4.7-3.4,9.3-7.2,14.4-10c5.6-3,10.5-6.6,15.3-10.9c4.7-4.3,11-6.9,16.4-10.5c2.7-1.8,5-4.1,7.5-6.2c1.5-1.2,2.8-2.9,4.5-3.6
		c2.9-1.2,5.9-1.9,4.8-6c9.2-2.6,24.6-13.6,25.5-18.4c1.5,0.1,3.1,0.2,4.6,0.3c-0.2-0.4-0.3-0.8-0.5-1.2c2.2-1.3,4.9-2.1,6.3-3.9
		c4.1-5.4,13.7-5.3,14.4-14.2c0.1-0.9,2.3-1.7,3.5-2.5c-5.6,19.8-10.5,39.7-16.9,59.3c-4.3,13.3-10.5,25.9-15.8,38.8
		c-2.4,0.5-4.9,0.7-7.1,1.5c-10.4,3.8-20.7,7.9-31.2,11.6c-9.8,3.4-19.8,6.4-29.7,9.6C768.6,513.8,753.2,511.4,737.8,509.1z"/>
	<path class="st17" d="M135.6,673.4c6.8,1.8,13.7,3.5,20.5,5.5c12.4,3.7,24.8,7.7,37.2,11.4c10.4,3.1,21.7,4.6,31.3,9.4
		c16.2,8.1,33.8,11.3,50.7,16.9c8.9,3,17.5,6.7,26.4,9.5c12.2,3.7,24.5,6.8,36.8,10.3c2.5,0.7,4.7,2.2,7.2,3
		c6.7,2.4,13.4,4.7,20.1,6.9c6.4,2.1,12.9,4.1,19.3,6.1c3.2,1,6.4,1.7,9.5,2.8c6.3,2.2,12.4,4.9,18.7,7c5.7,2,11.6,3.4,17.3,5.3
		c1.3,0.4,2.3,1.8,3.5,2.8c-15.4-0.2-30.9,0.1-46.3-0.9c-33.2-2-65.8-8-97.7-17.4c-37.2-11-72.9-25.5-106-45.8
		c-14.7-9-28.9-18.7-43.3-28.2C139,676.7,137.4,674.9,135.6,673.4z"/>
	<path class="st16" d="M115,641.3c-1.3-0.3-2.7-0.7-4-1c-2.3-5.6-7.9-5.1-12.4-6.7c-0.5-0.2-1.7,1.8-2.6,2.7
		c-0.8,0.4-1.5,0.8-2.3,1.2c-8.3-8.6-16.6-17.2-24.8-25.8c1-0.6,2.3-2,3.1-1.7c9.7,3,19.4,6.3,29.1,9.4c4.2,1.3,8.6,2.1,12.8,3.5
		c13.9,4.4,27.7,9.1,41.5,13.5c12.4,3.9,24.9,7.5,37.3,11.5c8.7,2.8,17.2,6.5,26,9.2c15,4.7,30.3,8.9,45.3,13.6
		c8.5,2.7,16.7,6.1,25.1,8.9c13.2,4.5,26.4,8.9,39.8,13.1c7.1,2.2,14.4,3.8,21.6,5.9c4.1,1.2,8,2.8,12,4.2c8.7,3.1,17.3,6.3,26,9.3
		c2.5,0.9,5.1,1.2,7.6,2c9.6,2.9,19.2,5.8,28.7,8.9c13.9,4.5,27.7,9.2,41.6,13.7c8.7,2.8,17.5,5.1,26.2,8c8.9,2.9,17.7,6.1,26.4,9.4
		c2.9,1.1,5.5,3.1,8.2,4.6c-8.7,1.6-17.5,3.3-26.2,4.9c-1.1-1.6-2.5-3-3.1-4.7c-1.7-4.7-3-5.2-6.8-2.1c-0.7,0.6-1.6,0.9-3.7,2
		c1.7-2.7,2.5-4.2,3.6-5.9c-1.1-0.6-1.7-1.1-2.5-1.3c-8.5-2.6-16.9-5.3-25.4-7.7c-1.2-0.3-3,0.8-4.3,1.5c-1,0.5-1.7,1.5-3,2.7
		c-0.3-6.9-1.5-8-7.6-8.6c-1.1-0.1-2.2-0.5-3.2-1c-5.4-3-10.7-5-15.5-0.9c-1.3-2-2.1-4.7-3.8-5.5c-4.6-2-9.5-3.2-14.3-4.6
		c-7.5-2.2-15-4.1-22.5-6.4c-8-2.4-15.6-6-24.4-4.8c-4,0.5-8.6,0.4-12.2-1.2c-5.4-2.3-11.3-1.6-16.7-5.2c-5.8-3.9-13.6-4.9-20.5-6.8
		c-1.1-0.3-2.7,0.8-4.1,1.3c-1,0-2,0-3,0c-0.7-0.7-1.3-1.3-2-2h0c-1.3-2.8-2.5-5.7-4-8.4c-0.6-1-1.7-2.1-2.9-2.5
		c-11.1-3.8-22.6-6.6-33.3-11.3c-7.8-3.4-12.3,0.8-17.7,4.2c-0.3,0-0.7,0-1,0c-4.9-6.9-12.8-7.3-20-9c-1.6-0.4-3.4-0.1-4.8-0.7
		c-5.9-2.2-11.6-4.9-17.6-6.9c-1.9-0.6-4.4,0.3-6.6,0.5c-0.3,0-0.7,0-1,0c-2-1.7-4.1-4.9-5.9-4.7c-5.4,0.6-8.5-1.8-11.9-5.3
		c-1.6-1.6-4.3-2.4-6.7-3c-7.5-1.9-15.1-3.5-22.6-5.1c-5-1.1-10-1.9-15-2.9c-0.3,0-0.7,0-1,0c-2-1.9-3.2-6.6-7-2c-1,0-2,0-3,0
		c-1.2-1.5-2.3-3.1-3.6-4.5C118.4,638.6,116.6,638.7,115,641.3z"/>
	<path class="st9" d="M724.1,661.3c-5.9-2-11.9-3.9-17.7-6c-0.9-0.3-1.7-2-1.9-3.2c-0.1-0.5,1.5-1.5,2.4-1.9
		c5.3-2.2,10.8-4.1,16-6.5c2-0.9,3.7-2.8,6.4-4.8c-7.7-4.5-13.4-9.8-21.5-10.7c-1.3-0.2-3.4-2.4-3.4-3.8c-0.1-4.8-3.2-5.4-6.8-6.1
		c-4.6-0.9-9.3-1.8-13.7-3.2c-3.7-1.2-6.6-3.6-7.8-7.6c18-13.3,36-26.7,54-40c1,1.9,1.5,4.7,3,5.5c2.8,1.4,6.2,2.1,9.4,2.3
		c5.2,0.3,8.2,3,10.9,7.2c1.7,2.5,4.7,5.4,7.4,5.8c6.2,0.8,12.6,0.2,18.9,0.2c0.5,0,1.1,0,1.5,0.2c4.5,2.5,9,1,13.4-0.3
		c-7,8.6-13.4,17.8-21.1,25.6C757.5,630.1,740.6,645.5,724.1,661.3z"/>
	<path class="st18" d="M865,134.3c-5.7,0-11.3,2.9-13.2,6.8c-3.7-3.3-8.2-2.1-9.7,2.5c-0.9,2.9-2.2,5.6-3.6,9.2
		c-1.9-2.1-3-3.2-4.7-5c-0.7,2.4-1,4.3-1.8,6c-0.5,1.1-1.8,1.8-2.7,2.7c-1,1-2.7,1.9-2.8,3c-0.2,5.2-5.5,4.5-7.9,7.1
		c-0.3,0.3-1.9-0.8-3.4-1.3c-0.8,1.7-1.4,3.2-2.2,4.6c-0.4,0.9-0.9,2.1-1.7,2.3c-1.8,0.5-4,0.1-5.4,1c-1.7,1.1-2.7,3.2-4.4,5.3
		c-1-2.1-1.6-3.5-2.5-5.4c-0.8,1.1-1.8,1.8-1.8,2.5c0.1,7.5-4.4,10.8-10.8,12.8c-1.1,0.4-2.4,1.4-3,2.4c-2,4.2-4.9,5.6-9.6,4.9
		c-2.1-0.3-5.2,0.8-6.7,2.3c-3.7,3.9-8.3,1.5-11.6,2.8c-0.9,2.6-1.7,5-2.4,6.7c-1.9,0.4-4.1,0.2-4.4,0.9c-1.6,3.5-2.4,7.3-4,10.7
		c-0.6,1.3-2.2,2.5-3.5,3c-5,1.8-10.2,3.3-15.3,5c-0.6,0.2-1.7,0.4-1.8,0.7c-0.7,3.9-3.2,6.3-6.3,8.5c-2.3,1.7-4.2,4-6.3,6
		c-1.7,1.6-3.4,3.3-5.3,4.8c-1.3,1.1-3.2,3-4.3,2.7c-3.8-1.1-4.5,1.9-5.9,3.8c-0.7,0.9-0.7,2.5-1.5,2.9c-5.5,3.3-10.9,6.6-16.7,9.3
		c-3,1.4-6.7,1.7-10.9,2.7c-0.2,1.7,0.1,4.6-0.9,7c-0.7,1.8-2.9,3.3-4.7,4.5c-2.5,1.6-7.6-0.8-7.8,5.1c-0.2-4.3-3.1-4.8-5.9-3.8
		c-1.5,0.5-3.2,2.9-3.3,4.5c-0.3,8.3-4.5,11.2-12.4,7.6c-1.9,8.9-9.7,7.1-15.8,8.7c-1.8,0.5-3.5,1.8-5.2,2.8
		c-1.1-0.8-3.1-2.3-5.1-3.8c-1.4-6.3,4.6-6,7.6-8.2c2.6-1.9,5-3.5,7.1-6.2c2.7-3.6,7.2-5.9,11-8.7c3-2.1,6.2-3.9,9.2-5.8
		c2.3-1.5,4.6-3.1,6.9-4.7c0.5-0.4,1.4-0.9,1.4-1.4c-0.1-4.9,4.7-4.5,7.1-6.7c2.4-2.1,4.8-1.4,4.9,3.5c1.4-2.1,2.1-3.7,3.2-4.9
		c3.9-3.9,7.9-7.6,11.8-11.4c2.9-2.8,5.6-5.8,8.8-8.2c3.6-2.7,7.5-4.9,11.5-7.1c0.7-0.4,2,0.3,2.3,0.4c4.3-3.6,4.8-10.2,11.6-11.2
		c0.9-0.1,1.6-1.9,2.3-3c1-1.6,1.9-3.4,3.1-5.6c4.2,4.2,7.2,2.3,10.3-0.8c2.5-2.6,5.3-4.9,8.2-7.1c0.8-0.6,2.1-0.3,3.2-0.6
		c0.8-0.2,1.6-0.8,2.3-1.1c0.2,0.8,0.5,2.1,1,4.2c2.7-3.2,5-5.7,7-8.1c0.3,0.6,0.9,1.6,1.5,2.7c0.5,0,1,0,1.5,0
		c0.9-4,1.9-8,2.9-12.4c5,1.3,5.6-9.7,13.2-5.9c2.4-11.3,14.1-11.5,21.7-16.7c0-2.3,0-4.4,0-6.4c0.5-0.1,1-0.2,1.5-0.2
		c1,1.8,1.9,3.5,3.7,6.8c3.2-14.1,13.7-16.8,24.7-18c0.2-4.5-4-8.9,2.9-11.9c0.6,1.1,1.5,2.5,2.5,4.3c1-1.3,1.9-2,1.8-2.6
		c-0.2-3.1-0.4-5.7,4.1-3.4c0.8,0.4,2.7-1.4,4-2.3c3.8-2.9,7.4-5.8,11.1-8.7c0.4-0.3,1.1-0.3,1.3-0.7c3.3-4.7,8.4-3.4,12.9-3.9
		C861.1,124.2,863.1,129.3,865,134.3z M800.3,167.5c0.1,0,0.3,0,0.4,0c0-0.5,0-1,0-1.5c-0.1,0-0.3,0-0.4,0
		C800.3,166.5,800.3,167,800.3,167.5z M748.6,205.6c0-0.1,0.1-0.3,0.1-0.4c0,0-0.2-0.1-0.3-0.1c0,0.1-0.1,0.3-0.1,0.4
		C748.3,205.5,748.5,205.5,748.6,205.6z"/>
	<path class="st3" d="M741.1-49.8c-3.1,0.8-7-0.1-7.7,5.1c-0.2,1.4-3.4,3.7-4.6,3.4c-7.5-1.9-8.1,3.7-9.1,8.3c-0.9,4-1,8.1-1.6,13.4
		c-3.9,1.3-8.7,3-13.5,4.5c-0.6,0.2-1.5,0.4-1.9,0.1c-3.4-2.9-6.6-0.8-9.7,0.4c-4.2,1.7-8,4.3-13,3.1c-1-0.2-2.9,1.6-3.9,2.9
		c-2.5,3.2-4.7,6.6-7,9.9c0.3-3.3,0.7-6.6,1-10c1-15,2-30,3-45c0.2-2.7,0-5.4,0-8c0-4.3,0-8.7,0-13c-0.6-9.5-1.2-19-1.8-28.5
		c24,14.8,46.5,31.5,67.3,50.5C739.5-51.8,740.3-50.8,741.1-49.8z M707.6-23c-0.3-0.1-0.6-0.2-0.8-0.4c-0.1,0.3-0.4,0.6-0.3,0.8
		c0.1,0.2,0.5,0.3,0.8,0.4C707.3-22.4,707.5-22.7,707.6-23z"/>
	<path class="st12" d="M794.7,588.3c-4.5,1.2-8.9,2.7-13.4,0.3c-0.4-0.2-1-0.2-1.5-0.2c-6.3,0-12.7,0.6-18.9-0.2
		c-2.7-0.4-5.8-3.2-7.4-5.8c-2.7-4.2-5.8-6.8-10.9-7.2c-3.2-0.2-6.6-0.9-9.4-2.3c-1.5-0.8-2.1-3.6-3-5.5
		c9.1-6.9,18.2-13.9,27.4-20.6c9.4-7,19-13.7,28.6-20.6c1,0.7,2.1,1.4,3.1,2.1c1.7,1.2,3.8,2.1,4.9,3.7c3.5,5.3,8.6,6.6,14.5,6.5
		c2.1,0,4.3,0.3,6.2,1c3.6,1.4,7.1,3.3,10.6,4.9C815,559,804.8,573.6,794.7,588.3z"/>
	<path class="st19" d="M-27.1,152.2c3.8-2.5,7.5-5.1,11.8-8c1.4,2.1,2.5,4,3.9,6.1c1.4-0.9,2.6-1.7,3.8-2.4c5.1,3.7,5.1,3.7,7.9,1.1
		c5.8,3.8,9.5,3.8,13.6,0.1c1.5,0.5,3,1,4.5,1.6c1.6,0.6,3.1,1.2,5.4,2.1c0.6-0.6,1.7-1.9,3.1-2.6c1.1-0.6,3.2-1.1,3.9-0.6
		c2.9,2.3,6.2,4.6,8,7.6c2,3.3,3,1.5,6.1-0.1c-2.5-1.4-4.3-2.4-6.2-3.5c0.5-0.7,1-1.4,1.5-2.1c3.6,1.5,7.3,3.1,12,5.1
		c1.3-0.7,3.8-2.1,6.9-3.7c0.6,1,1.2,2.4,2.2,3.3c1,0.9,2.6,1.9,3.6,1.6c2.3-0.7,4-1.9,6.8-0.8c1.2,0.5,2.8-0.1,3.8,1.6
		c0.2,0.3,1.7-0.1,2.6-0.2c0.3,2.1,1.2,4.3,0.7,6.1c-1.7,5.1-3.9,10.1-6.1,15.5c-4.5-1-8.6-2-12.9-3c-0.7,0.8-1.7,1.8-3.4,3.6
		c-1.6-3.3-2.9-6.1-4.4-9.3c-1.1,0.8-2.2,1.6-3.3,2.4c-5-3.4-5.7-3-10,5.3c-3.2-2.7-6.4-5.3-8.7-7.2c-1.7,2-3.7,4.3-5.7,6.7
		c-3.8-3.4-5.8-5.3-7.9-7.2c-1.2,2.2-2.2,4-3.7,6.8c-1.1-2.5-2.6-4.3-2.2-5.4c2.2-6.3-2.3-4.9-5.8-5.2c-0.1,2.8-0.3,5.4-0.4,8.5
		c-1.6-2.4-2.8-4.1-4.8-6.9c-2.1,1.6-3.6,2.7-5.1,3.8c0.5,0.5,1,1,1.4,1.5c-1.7-2.9-3.4-5.8-6-10.2c-0.6,2.6-0.6,4-1.2,5.1
		c-0.9,2-2,3.8-3.1,5.7c-1.5-0.9-3-1.7-4.8-2.8c-3,1.7-6.9-0.5-7.9-4.6c-0.5-2-1.9-3.8-2.9-5.7C-29.2,158.6-28.2,155.4-27.1,152.2z"
		/>
	<path class="st20" d="M48.5,9.1c3.6,1.9,2.7,5,2.2,8.1c-0.2,1.5,0,3.1,0,6c4.1-3.6,3.3-13.8,11.4-5.7c1.3-3.4,1.9-7.2,6.7-3.9
		c1.2,0.8,4.4-1.7,6.7-2.3c3.3-0.9,3.4-2.6,2.7-5.6c-0.4-1.5,0.8-3.4,1.3-5.2c0.6,0,1.1,0,1.7-0.1C82.1,2.6,83,4.7,84,7.2
		c4.5-5.7,7.3-1.3,10.4,2c3-1.8,6-4.5,8.8,0.3c0.9-1.3,1.6-2.2,2.2-3c2.8,4.3,9.3-2.2,11.5,3.9c-1.8,3.9-3.2,8-5.4,11.7
		c-1,1.6-3.3,2.5-5.2,3.4c-4.4,2-8.8,4.4-13.5,5.5c-2.5,0.6-5.5-1.3-8.5-2.1c-3.2,1.9-7.2,4.7-11.5,6.6c-1.7,0.8-4.2-0.6-6.3-0.4
		c-4.5,0.4-9.6-1.9-13.3,2.6l-7.1,1.1c-0.6,0.3-1.2,0.4-1.7,0.8c-6,5.5-13.4,4.8-20.6,4.7C32.1,32.5,40.3,20.8,48.5,9.1z"/>
	<path class="st21" d="M825.2,544.3c-3.5-1.7-7-3.5-10.6-4.9c-1.9-0.7-4.1-1-6.2-1c-5.9,0.1-10.9-1.2-14.5-6.5
		c-1.1-1.6-3.2-2.5-4.9-3.7c-1-0.7-2-1.4-3.1-2.1c3-2.5,6-4.9,9.7-8c-4.3-0.8-8-1.4-11.6-2.1c9.9-3.2,19.9-6.2,29.7-9.6
		c10.5-3.7,20.7-7.8,31.2-11.6c2.3-0.8,4.7-1,7.1-1.5C843.1,510.3,834.1,527.3,825.2,544.3z"/>
	<path class="st22" d="M311,704.3c1.4-0.5,2.9-1.6,4.1-1.3c7,2,14.8,3,20.5,6.8c5.4,3.6,11.3,2.9,16.7,5.2c3.6,1.5,8.2,1.7,12.2,1.2
		c8.8-1.2,16.4,2.4,24.4,4.8c7.5,2.2,15,4.2,22.5,6.4c4.8,1.4,9.7,2.6,14.3,4.6c1.7,0.7,2.5,3.5,3.8,5.5c4.8-4.2,10.1-2.1,15.5,0.9
		c1,0.5,2.1,0.9,3.2,1c6.1,0.6,7.3,1.7,7.6,8.6c1.3-1.2,2-2.2,3-2.7c1.4-0.7,3.1-1.9,4.3-1.5c8.5,2.4,17,5.1,25.4,7.7
		c0.7,0.2,1.4,0.8,2.5,1.3c-1,1.7-1.9,3.1-3.6,5.9c2-1.1,3-1.4,3.7-2c3.8-3.2,5.2-2.7,6.8,2.1c0.6,1.7,2,3.1,3.1,4.7
		c-2,0.3-4,0.7-6,1c-1.3-0.7-2.7-2.1-3.7-1.9c-9,1.9-15.7-4.3-23.5-6.3c-3.3-0.8-6.8-1.3-10-2.5c-7.5-2.8-14.8-6.1-22.4-8.7
		c-3.7-1.3-7.8-1.4-11.6-2.6c-10.7-3.2-21.4-6.6-32-10.1c-2.3-0.8-4.1-2.8-6.4-3.5c-7.7-2.3-15.7-3.8-23.2-6.6
		c-3.5-1.3-7.6,0-10.9-3.4c-1.4-1.5-5.7-0.3-9.1-0.3c-0.8-4-4.1-4.6-7.9-5.4c-4.4-1-8.6-3.1-12.9-4.8c-0.8-0.3-1.7-1.1-2.2-0.9
		C315.5,708.7,313.4,706.2,311,704.3z M406.2,731.3c0.5-0.3,0.9-0.5,1.3-0.7c-0.4-0.4-0.7-0.9-1.1-1.1c-0.1-0.1-0.8,0.4-0.9,0.7
		C405.5,730.5,406,730.9,406.2,731.3z"/>
	<path class="st18" d="M623,671.3c0.4,1.9,0.9,3.8,1.4,6.2c1.7-1.1,2.9-1.9,3-1.9c4.7,1.4,8.6,2.3,12.3,3.7c2.2,0.8,4.8,4,6,3.4
		c3.6-1.7,5.5,1.4,8.2,1.7c2.5,0.3,5.1,0.6,7.2,0.8c5.4,1.9,10.6,3.7,15.7,5.7c1.3,0.5,2.3,1.7,3.4,2.6c-5.4,3.5-10.7,7-16.1,10.4
		c-0.2-2.2-0.4-4.4-0.6-6.6c-1.9-1.5-4-3.1-6.5-5c-0.5,1.1-0.9,2.1-0.8,1.9c-2.1,0.2-3.6,0.8-4.7,0.4c-5.8-1.8-11.5-3.9-17.2-5.9
		c-1.5-0.5-3.1-1.5-4.4-1.2c-4.3,0.8-6.9-0.7-7.9-5.2c-4.8,4.5-7.7-0.5-11.3-1.6c-2.4-0.7-4.7-1.9-6.9-3c-0.8-0.4-1.4-1.4-2-2.1
		c2-0.8,3.9-2.1,5.9-2.4c1.3-0.2,2.8,1,4.2,1.5c1.7-4.6,7.1-1.2,10.3-3.5l0.5,0L623,671.3z"/>
	<path class="st19" d="M673-74.7c0,4.3,0,8.7,0,13c-0.8,4.7-3.9,7.8-8.1,8.5c-3.7,0.6-7.7-0.4-11.8-0.7c-0.5-1.5-1.1-3.6-1.8-5.7
		c-0.5,0-1.1,0-1.6,0c-0.5,1.4-1.4,2.8-1.5,4.2c-0.5,5.3-2.5,8.2-7.1,6.8c-5.4-1.6-8.1,2.4-12.1,3.6c-2.5,0.8-4.9,1.9-7.4,2.7
		c-1.9,0.6-3.9,0.8-6.6,1.3c-2.8-2-9.5-0.1-12.3,4.3c-1-1.3-2-2.6-3.6-4.6c-3.2,5.7-6.3,11-13,5.7c-1.3,1.4-2.3,2.5-3.5,3.7
		c-1.2-1.3-2.3-2.5-4.1-4.4c-1.9,3.5-3.4,6.5-5.1,9.7c-2-0.8-4.3-1.8-7-2.9c-2,2.3-4.1,4.8-6.6,7.6c-3.2-2-6.2-4-10-6.4
		c-0.1,2-0.3,4.2-0.4,7.2c-2.3-0.6-4.4-1.2-6.7-1.8c-2.9,5.4-8.2,6.3-14.3,6.7c-2.7,0.2-5.4,2-8.7,3.4c-0.2-0.1-1.1-0.9-2.2-2
		c-1.2,2.1-2.3,3.8-3.5,5.9c-1.5-1.1-2.7-1.9-4.1-2.8c-0.7,1.3-1.3,2.4-2.1,3.7c-1.4-1-2.6-1.8-4.1-2.9c-2.4,2.7-4.6,5.2-7.2,8.1
		c-1.2-1.7-2.2-3.1-3.5-4.8c-2.9,2.2-5.7,4.3-9,6.8c-1-2-1.9-3.7-3.4-6.5c-1.9,3.1-2.9,6.4-5.2,7.9c-1.9,1.3-5.3,0.6-8.8,0.8
		c-0.1,0.2-0.9,1.2-1.9,2.5c-1.2-0.8-2.4-1.6-3.8-2.6c-2.2,3.6-4.4,7-6.5,10.5c-0.2-0.5-0.4-1-0.7-1.5c-3.4,0.8-6.8,1.5-10.2,2.3
		c0,0.4,0,0.8,0.1,1.2c-1.5-1.1-3-2.3-4.6-3.5c-1,2-1.8,3.7-2.9,6.1c-3.1-4.2-5.4-2.6-7.3,0.5c-1.4-1-2.6-1.8-3.2-2.2
		c-5.3,2.7-10.1,5.2-15.4,7.9c-1.1-1.5-2.5-3.2-4.5-5.9c-1.2,2.9-2.2,5.1-3,7.1c-4.7-0.7-7.7,9-12.3,3.8c-4.5,1.3-8.1,2.3-11.7,3.3
		c-3.7,1-7.4,2-10.9,3.4c-4,0.3-7.9,0.5-11,0.7c-2.9,2.8-5.3,5.2-7.5,7.4c-2.8-1.8-5.2-3.4-7.8-5.1c-1.5,2.7-2.9,5.2-4.1,7.2
		c-2.9-1.6-5.2-3-8.3-4.8c0,7.9-7.2,7.3-11,11.3c-1.3-1.9-2.6-3.6-3.9-5.5c-2.6,0.9-6.1,0.5-4.8,5.4c0.3,1.1-2.2,3.4-3.9,4.2
		c-1,0.5-2.9-0.7-4.3-1.5c-0.8-0.4-1.2-1.5-1.7-2.1c-4.7-0.2-1.6,8.9-8.3,5.4c0,2,0,3.2,0,4.2c-2.6,1.6-6.3-3.6-7.5,2
		c-4.9-4.2-5.3,2.1-8.3,3.5c-0.7-0.6-1.7-1.3-2.3-1.8c-4.1,2.9-8.1,5.8-12.2,8.7c-1.6-1.5-2.4-2.3-3.3-3c-1.1-1-2.3-1.8-3.5-2.8
		c-0.3,1.5-0.7,2.9-0.9,3.9c-2.1,1.3-3.9,2.3-6.2,3.8c-0.7-0.4-2-1.3-3.6-2.3c-0.9,2.1-1.7,4-2.6,6.1c-2.5-2.7-4.5-4.9-7.3-7.9
		c-1.4,3.2-2.4,5.5-3.4,7.7c-0.1-0.3-0.3-0.6-0.4-0.9c-2.5,1.3-4.9,2.6-7.3,3.9c-1.9-1.1-4.2-2.4-7.2-4.1c-1,4.3-1.9,8-3.1,13.2
		c-2.8-3.2-4.6-5.4-6.6-7.7c-4.5,3.5-9.3,7.2-14.3,11.2c-1.1-5.2-1.9-9.1-2.8-13.5c-1.7,1.1-2.9,1.8-4.3,2.7c-2.1-4.4-4.5-1.1-6.9,0
		c-1.2-1.2-2.3-2.4-3.6-3.8c-1.5,0.9-2.8,1.8-4.1,2.6c-1.5-1.1-3-2.3-4.9-3.7c-0.5,2.3-0.9,3.9-1.2,5.4c-0.3-0.3-0.5-0.6-0.8-0.9
		c-1.8,0.9-3.4,2.1-5.3,2.7c-1.6,0.5-3.5,0.5-5.2,0.6c-1.5,0-3.1-0.1-5.5-0.3c-1.1-2.4-4-3.9-7.2-1.7c-1.5,1-2,3.6-3.1,5.8
		c-0.1,0-0.7-0.3-1.3-0.7c-0.7-0.4-1.3-0.9-1.9-1.3c-5.9,5.6-5.9,5.6-12.6-1.7c-1.3,2.8-2.4,5.1-3.6,7.8c-1.1-0.4-2.4-0.8-3.7-1.3
		c-1.2,1.7-2.2,3.2-3.6,5.1c-1.6-1.9-2.9-3.4-4.7-5.4c-4.1,6.9-9,3.9-13.9,1.4c2.4-6,3.5-12.7,9.3-17c1.4-1.1,1.4-4,2.2-6
		c0.8-1.8,1.9-4.9,3.1-5c2.9-0.4,6.5-0.1,8.9,1.4c2.4,1.4,3.5,1.6,5.5-0.2c2.6-2.4,5.8-2.4,9.1-0.1c2.1-3,4.3-5.9,6.5-9
		c1.1,2.2,2.3,4.6,3.6,7.1c2.6-3.4,4.6-6.1,6.9-9.2c4.6,6.4,6.3,0.2,9.4-1.4c1.3,1,2.7,2.1,4.4,3.5c1.5-1.1,3-2.3,5.2-4
		c1,1.2,2,2.5,3.3,4c2.3-1,4.7-2,7.1-3c0.2-0.4,0.4-0.8,0.6-1.2c2.6,1.5,5.2,3.1,7.9,4.6c-0.7,0.9-1.5,1.7-2.2,2.6
		c0.2-1,0.4-2.1,0.8-4c0.4,1.9,0.6,2.9,0.7,3.5c1.1-1.5,2.4-3.1,3.7-4.9c1,6.1,1.8,11.1,2.7,16.5c4-3.1,6.9-5.5,10.1-8
		c0.9,1.1,1.5,2,2.2,2.5c0.9,0.7,2.2,1.8,3,1.6c0.9-0.3,1.6-1.8,2.1-2.9c1-2,1.7-4.1,2.7-6.5c1.9,1.3,3,2.1,4.1,2.9
		c1.5-2,2.9-3.8,3.9-5c2.8,1,5,1.8,7.2,2.6c0.4-1.8,0.8-3.6,1.5-6.4c1.8,0.8,3.7,1.6,5.2,2.3c3.6-1.4,7-3.3,10.6-4
		c3.6-0.7,7.4-0.1,11.1,0.4c1.7-1.6-1-8.6,6-4.9c4.2-6.1,5-6.3,9.3-2.8c1.6-2.2,2.8-5.1,4.9-6.4c1.4-0.9,4.2,0.5,7,1
		c1.2-1.1,3.4-4.7,5.3-4.6c2.5,0.2,4.7,3.4,7.7,5.9c0-8.8,8.9-6.3,13.1-10.5c0.9,1.2,1.8,2.4,2.9,3.9c1.1-2.3,1.5-4.4,2.8-5.8
		c1.3-1.3,3.4-1.9,5.2-2.6c2-0.8,4.2-1.4,6.7-2.2c0,1.4,0,2.9,0,4.4c4.1,0.5,11-5.1,12.4-10.2c3.1-0.3,6.1-0.9,8.1,3
		c1,1.9,8.4,0.2,9.7-2c2.9-4.8,8.1-6.1,13.4-3.2c3.8-3.2,7.8-6.3,11.5-9.7c2.3-2.2,4-1.2,6.1,0.2c1.4,0.9,2.9,1.5,4.4,2.2
		c0.1-1.7,0.2-3.5,0.4-6c0.5,0,1.6-0.3,2.5,0.1c5.9,2.6,11.2-0.8,16.8-1.7c4.2-0.7,8.4-1.5,12.6-2.2c0.1,0.5,0.1,1,0.2,1.5
		c1.2-2,2.3-4,3.5-6c0.2,0.4,0.5,0.7,0.7,1.1c1.5-0.5,3.1-0.9,4.6-1.4c0.9-0.3,1.7-0.8,2.5-0.8c3.4-0.1,7,0.7,8.5-4.1
		c0.2-0.7,4.8-0.9,6.8,0c3.8,1.7,7.5,0.7,10.2-2.5c3.1-3.7,5.5-9.3,12.3-6.8c1,0.4,2.8-1.2,4.5-2c3.1,5.9,7.8,3,10.7,0.6
		c3.4-2.7,6.3-3.1,10.3-2.7c1.5,0.2,3.4-2.2,5-3.4c6.6-1,13.3-1.9,20.5-3c0.4-1.3,1.1-4.1,1.8-6.8c0.5,0,0.9,0.1,1.4,0.1
		c0.8,1.4,1.5,2.7,2.1,3.7c7.3-0.4,14.2-1.2,16.8-8.8c1,0.3,1.2,0.3,1.3,0.4c4.7,4.8,7.9,4.5,13.3-0.2c2-1.8,5.5-1.9,8.1-3
		c2.5-1,4.9-2.4,7.3-3.6c1.3-0.7,2.7-2.3,3.8-2.1c5.3,1.2,7.8-3.4,11.9-4.9c5.3,5.4,8.6,4.6,12.9-3.5c1.2,0.8,2.4,1.6,3.7,2.5
		c1.2-0.8,2.3-1.7,3.7-2.7c0.9,1.6,1.6,3,2.8,5.2c2.5-3,4.7-5.5,6.8-8.1c3-3.6,6.1-3.9,9.9-0.3c3.6-4.8,7.9-4.9,13.2-2.3
		c1.8,0.9,5-1.2,7.6-1.6c3-0.5,6.2-0.6,9.2-1.2c1.7-0.3,3.3-1.2,4.9-2C667.8-72.1,670.4-73.4,673-74.7z M488.8-8.1
		c-0.2-0.5-0.3-1-0.5-1.5c-1,0.3-2,0.6-3,0.9c0.2,0.6,0.4,1.1,0.5,1.7C486.8-7.4,487.8-7.7,488.8-8.1z M637.8-57.7
		c-0.1-0.1-0.1-0.3-0.2-0.4c-0.1,0.1-0.3,0.2-0.3,0.3c0,0.1,0.1,0.3,0.2,0.4C637.6-57.5,637.7-57.6,637.8-57.7z M165.7,71.4
		c0-0.1-0.1-0.3-0.1-0.4c0,0-0.2,0.1-0.4,0.1c0,0.1,0.1,0.3,0.1,0.4C165.4,71.6,165.6,71.5,165.7,71.4z M295.7,39.4
		c0-0.1-0.1-0.3-0.1-0.4c0,0-0.2,0.1-0.4,0.1c0,0.1,0.1,0.3,0.1,0.4C295.4,39.6,295.6,39.5,295.7,39.4z"/>
	<path class="st3" d="M312,117.3c-0.1-0.1-0.3-0.2-0.4-0.2C311.7,117.1,311.9,117.2,312,117.3L312,117.3z"/>
	<path class="st20" d="M298-45.7c3-2.8,4.2-6.7,6.3-10.1c1-1.6,3.8-2.8,5.7-2.8c5.2,0.2,9.8-0.1,14.7-2.6c4.3-2.3,9.6-2.7,15.4-4.1
		c0.6-1,1.7-3.1,2.9-5.1c0.5,0,1,0.1,1.4,0.1c0.4,1.8,0.5,3.7,1.1,5.5c0.3,0.8,1.4,1.2,2.1,1.9c0.5-0.6,1.1-1.1,1.3-1.8
		c2-7.3,6.1,0.5,8.2-1.8c1.8-0.8,3.3-1.5,4.7-2.1c0.7-0.3,2.1-0.1,2.3-0.5c3.6-7.4,10.1-4,15.5-4.2c1.3,0,2.7,2.1,4.3,3.5
		c0.3-0.8,0.8-1.5,0.9-2.1c0.5-4.3,0.6-3.7,5-4.3c2.2-0.3,4.2-3.4,5.8-5.7c0.9-1.3,0.5-3.3,0.9-6c4,3.5,7.3,6.3,11,9.5
		c1.5-1.6,2.8-3,4.2-4.5c0.6,1.3,1.3,2.6,2.8,5.7c0.7-1.7,1-2.6,1.5-3.5c1.4-2.9,2.9-2.9,5.1-0.5c0.9,0.9,2.6,1.1,3.9,1.6
		c-1.1,5.3-5.6,9-11.1,9.1c-0.8,0-1.8,0.2-2.3,0.7c-3.8,4.2-8.7,3.6-13.6,3.7c-3.2,0-6.5,0.7-9.7,1c-0.3,0-0.8-0.3-1-0.2
		c-5.3,5.8-11.8,0.5-17.4,1.9c-3.7,0.9-7,3-10.3,4.9c-6,1.1-12.6-1.6-18.5,2.8c-0.7,0.5-1.8,0.9-1.9,1.5c-0.5,5.1-5.7,5.3-8.3,8
		c-0.9,0.9-2.6,1.3-4,1.5c-7.2,0.8-14.4,1.4-21.6,2C302.3-42.5,299.5-42.5,298-45.7z"/>
	<path class="st4" d="M602.6-127.4c-0.1,0-0.3-0.1-0.4-0.1c0-0.1,0.1-0.3,0.1-0.4c0.1,0,0.3,0.1,0.4,0.1
		C602.7-127.7,602.7-127.6,602.6-127.4z"/>
	<path class="st9" d="M597.2,577.2c-0.7,1.2-1.4,2.4-2.4,4.1c-3,0-6.5-0.2-9.9,0.1c-1.7,0.1-3.3,1.4-5,1.8c-1.1,0.3-2.4,0.5-3.5,0.2
		c-5.5-1.2-10.9-2.5-16.6-3.9c-2.4-6.2-4.1-6.5-11.4-3.9c-2.9,1-6.3,0.5-9.5,0.7c-0.9-0.1-1.9-0.1-2.8-0.2c-0.6-0.9-1.1-2.3-1.9-2.5
		c-7.2-2.5-14.4-4.9-21.6-7.3c-2.3-0.8-5.5-2.6-6.9-1.7c-4.5,3-6.9-0.4-9.9-2.3c-2.6,1.5-11.8-0.4-12.9-3.1c-1.7-4.6-6-4.4-9.3-5.6
		c-6.1-2.2-13.1-2.4-14.5-11.1c-0.7-4.4-3.9-5.7-9.2-5.1c-8.1,1-16.6,0.9-24.5-0.5c-8.8-1.6-17.3-5.3-25-7.8c-2.7,1-5,2.5-7,2.3
		c-2.2-0.3-4.1-2.5-6.3-3.4c-6.4-2.9-12.8-6-19.4-8.2c-7.8-2.6-17.2-0.6-23.5-8c-0.1-0.2-0.6,0-1,0c-7.5-1.5-15-3-22.5-4.6
		c-0.6-0.1-1.2-0.9-1.6-1.5c-3.2-4.2-8.2-5.6-13.9-3.2c-0.7-3.1-1.7-6-2-9c-0.5-4.4-3.1-7.4-7.4-7.7c-0.8-0.1-1.9,0.5-2.3,0.1
		c-6.5-5.4-14.6-5-22.2-5.7c-6.2-0.6-12.6-0.9-18.8-0.1c-7.5,0.9-13.7-2.7-15-10.6c-7.5-0.5-15.2-1-21.8-1.4
		c-2.4-3.8-3.8-8.8-6.6-10c-5.2-2.1-11.3-2-17.1-2.5c-6.4-0.5-12.9-0.1-19.3-0.7c-5.4-0.5-10.8-1.7-16.2-2.5c-1.8-0.3-3.7,0-5.5,0
		c0.2,2-0.1,4.3,0.8,5.9c3.2,5.6,6.8,10.9,10.3,16.6c-2.1,1.6-4,3-6,4.5c-12.9-8.2-27.2-8.5-41.6-7.9c-0.2-2.7-0.4-4.5-0.6-6.9
		c-6.4-0.4-12.6-0.7-18.8-1.1c-4.3-0.3-8.6-0.7-12.8-1.3c-0.7-0.1-1.9-2.2-1.7-2.9c1.4-4-0.6-4.6-3.8-4.8
		c-7.9-0.5-15.8-0.7-23.5-1.9c-5.5-0.9-10.6-3.7-16-4.8c-5.2-1.1-9.3-2.7-9.4-9.1c-4-0.2-7.8-0.1-11.5-0.7c-2-0.3-5-1.4-5.6-2.8
		c-1.8-5-5.6-5.4-9.9-5.5c-3.1-0.1-6.8,2.7-9.2-1.8c-0.2-0.4-1.9,0-2.9,0.1c-3.2,0.3-6.4,1-9.5,0.8c-3.9-0.2-7.7-1.2-11.5-1.9
		c-3.8-16.7-7.6-33.4-11.3-50.2c2.7,4.1,6.9,4.2,11.3,4.6c6.3,0.6,12.4,2.6,18.6,3.8c1.4,0.3,3.7,0.6,4.2-0.1
		c4.2-5.9,8.4-0.5,12.6-0.5c6,0,10.3,4.3,15.9,5.7c5.3,1.3,12.2,1.6,16.2,7c0.3,0.4,0.9,0.9,1.2,0.9c6.2-1.9,11,4.7,16,3.7
		c6.1-1.3,9.3,4.1,14.6,4.1c1.6,0,3.9,3.5,7.1,2.9c0,5.9,0,11.8,0,17.6c8,0,14.9,0,21.9,0c0.2-2.1,0.3-3.9,0.5-5.7
		c0.5,0.3,1.5,0.6,1.5,1c0.8,4,3.4,5.1,7.2,5.2c8,0.2,16.1,0.8,24.7,1.3c0.4-1.7,1-3.8,1.5-5.8c1.5,1.4,3,3.9,4.6,4
		c7,0.4,14,0.2,22.1,0.2c-4.1-5.9-7.4-10.8-10.8-15.7c-3.3-4.9-6.6-9.7-10-14.7c1.2-0.7,1.9-1.2,2.6-1.6
		c14.2-8.8,19.6-22.4,15.3-38.5c-2.9-10.7-10.5-16.9-20-21.5c1.4-0.1,2.8-0.4,4.2-0.3c2.2,0.1,4.4,0.3,6.5,0.6
		c4.1,0.5,8.1,1,12.2,1.5c0.6,0.1,1.2,1.1,1.6,1c5.5-1.9,10.6-0.5,15.7,1.4c0.6,0.2,1.7-0.8,2.8-1.3c0.7,1.4,1.3,2.6,2.2,4.6
		c1.8-1.4,3.3-2.7,4.2-3.4c9,1,16.1,8.9,26.1,4.4c0.4,3.6,1.1,7.1,6,7.1c0.5,0,1,1.5,1.4,2.4c-2.1,0.4-4.3,0.8-6.4,1.1
		c-23.9,4.4-37.3,30.1-27.1,52.2c6.9,14.9,22.5,23.1,41.4,21.7c20.4-1.5,35.1-17.3,35.1-37.7c0-15.2-7.5-25.7-20.1-33.2
		c5.1-1.1,10.2-2.2,15.4-3.3c3.8,4.5,12.7,3.7,15.8-1.3c0.8-1.3,3.1-1.8,5.6-3c0-0.1-0.1-1.4-0.5-2.5c-0.3-1.1-1.4-2.3-1.2-3.1
		c2.7-8.1-3.1-13.2-7.1-18.4c-5.6-7.3-2.6-13.6,0.5-20.3c0.6-1.3,1.3-2.7,1.5-4c0.3-2.5-0.6-5.3,2.6-6.9c0.5-0.2,0.5-1.8,0.5-2.8
		c0.1-5.4,0.1-5.4,4.8-8.6c0.8,1.6,1.5,3.2,1.9,4.1c4.5-0.4,8.5-0.7,12.2-1c1.1-3.9,1.1-9.5,3.9-12.4c2-2,7.8-0.3,12.8-0.3
		c1.4-0.4,4-1.1,6.7-1.7c2.9-0.6,5.8-1.2,8.7-1.5c6.4-0.8,12.8-1.5,19.9-2.3c0-25.7,0-51.3,0-76.8c0.4-0.6,0.7-1.3,1.1-1.9
		c0,32.9,0,65.8,0,98.6c7.3,0,13.9,0,20.9,0c0-5.6,0-10.9,0-16.2c0-5.2,0-10.5,0-16.2c1,0.5,1.5,0.7,1.8,1
		c12.1,11.1,37.3,8.5,48.6-6.8c6.7-9.2,8.1-19.4,7.5-30.3c0.6-0.4,1.3-1.2,1.9-1.2c7.4-0.3,14.8-0.6,22.2-0.8c0,1,0,2-0.1,3
		c-2,14,2.3,25.7,13.4,34.4c4.1,3.2,9.2,5.2,13.9,7.7c0.2,3.2-0.2,5.1-4.2,6.4c-6.7,2.2-13.1,5.5-19.3,9c-3.3,1.9-5.6,5.6-8.9,7.6
		c-3.8,2.3-8.3,3.7-12.4,5.4c-1.4,0.6-2.9,0.8-4.2,1.5c-1.1,0.6-2,2-3.1,2.2c-7,1.2-12.4,4.9-17.8,9.2c-1.8,1.5-6.3-0.3-6.8,4.3
		c-0.3,3-0.4,6.1-0.9,9.1c-0.4,3-1.1,6-1.5,8.2c-4.4,3.8-8.2,7.1-12.1,10.5c-0.3-0.4-0.7-0.7-1-1.1c-0.7,1.8-1.5,3.5-2.4,5.6
		c-1.7-1.2-2.9-2.1-4.6-3.4c-0.5,2.2-0.9,3.9-1.2,5.5c-1.8,0.8-3.5,1.7-5.3,2.3c-1.2,0.4-2.6,0.9-3.7,0.5c-4.5-1.6-5.7-0.7-5.9,4
		c0,1.4-2.1,3.9-3,3.8c-4-0.4-6.5,1.5-8.8,4.3c-13.7-6.5-26.6-5.6-38.7,4.5c-0.2-2.7-0.4-4.9-0.6-7.2c-6.7,0-12.9,0-18.9,0
		c-0.3,0.4-0.5,0.5-0.5,0.7c-0.1,23.2-0.2,46.3-0.1,69.5c0,0.9,1.9,1.8,3,2.8c0.4,0.9,0.9,1.8,1.3,2.7c0.9-0.9,1.8-1.8,2.7-2.7
		c2.6,0.1,5.3,0.1,7.9,0.2c0.7,2.8,1.5,5.7,2.2,8.5c1.8-1.4,2.2-2.9,3.1-4c0.6-0.8,2.1-1.8,2.7-1.5c3.4,1.7,6.7,3.7,10.1,5.7
		c4.7,2.7,8.9,7.3,14.7,4.2c1.8,1.6,3.2,3.8,4.9,4.1c4.2,0.7,8.2,1.2,9.5,6.6c1.4-0.6,2.5-1,3.8-1.6c0.9,1.4,1.6,2.5,2.3,3.6
		c2-1.4,5.2-3.7,5.3-3.6c3.3,4.1,6.4,1.1,9.5-0.4c-0.1,0.5-0.1,1-0.2,1.5c3,0.5,6,1.1,9.8,1.7c0.3,0.5,0.9,2.2,2,3.7
		c0.7,0.9,2.3,2.2,3.1,2c3.2-1,6.3-2.4,9.4-3.7c1,0,2,0,3,0c5,3,10,6,15,9c0.3,0.4,0.5,1,0.9,1.2c17.5,9.3,35,18.6,52.6,27.7
		c4.7,2.4,9.7,4.1,14.6,6.1c26,11.7,53.3,19,81,24.9c11.7,2,23.4,4.1,35.2,6c4.5,0.8,9.1,1.4,13.6,2.1c0.4,1,0.8,1.9,1.2,2.9
		C608.4,547.9,602.8,562.5,597.2,577.2z"/>
	<path class="st23" d="M312.7,196.4c5.5,16.7,4.1,32.6-7,46.7c-12.6,15.9-29.9,20.7-49.4,18.7c-10.6-1.1-19.7-5.5-28.1-11.9
		c-15.8-15.7-20.3-34.1-12.1-54.8c7.1-17.9,21.7-26.5,40.2-29.5c20.7-3.3,42.4,6.2,52.9,23.7C310.5,191.6,311.5,194.1,312.7,196.4z
		 M293.5,213.8c-0.1-17.2-12.5-29.6-29.7-29.5c-17,0-29.9,13-29.5,29.7c0.4,17,12.7,29.2,29.5,29.2
		C281,243.3,293.5,230.8,293.5,213.8z"/>
	<path class="st23" d="M424.8,218.3c0.6,10.9-0.8,21.2-7.5,30.3c-11.3,15.4-36.4,18-48.6,6.8c-0.3-0.3-0.8-0.4-1.8-1
		c0,5.7,0,10.9,0,16.2c0,5.3,0,10.6,0,16.2c-7,0-13.6,0-20.9,0c0-32.8,0-65.7,0-98.6c5.6-0.1,11.3-0.1,16.9-0.2
		c5.6,0.2,1.1,5.6,2.5,6.6c6.4-2.7,11.9-5,17.5-7.4c10.9-0.6,21.1,1.1,29.7,8.7C419.6,202,422.8,209.8,424.8,218.3z M403.2,224.9
		c0-9.9-4.3-16.9-11.9-19.3c-9.8-3.2-19.5,0.9-23.1,10.3c-3.5,9.2-1.8,22.2,8.2,27.1c1.2,0.6,2.5,1,3.7,1.3
		C393.5,247.2,403.2,239,403.2,224.9z"/>
	<path class="st24" d="M383,187.3c-5.6,2.3-11.1,4.7-17.5,7.4c-1.4-1,3.1-6.4-2.5-6.6c0.9-1.7,1.6-3.7,2.8-5.1c1.6-1.8,3.8-3,6-4.8
		c0.4,0.9,0.9,1.6,1.2,2.5c0.9,3,2.9,3.4,4.7,1.2c2.3-2.8,4.1-6,6.2-9.2c0,0,0.5-0.1,0.6,0.1c2.7,4,5.4,4.7,7.8-0.3
		c2.5-5.3,8-4.4,12.3-5.9c1.1-0.4,3,1.6,5,2.7c1.6-4.9,5.7-5.5,10-6.2c1.8-0.3,3.6-2.3,5-3.8c4.4-4.9,10.4-4,16.5-5.1
		c0.4-0.8,1.1-2.1,1.8-3.6c3.6,1.3,4.8,0.2,5.5-3.7c1.6-10,5-12.2,15.4-12.7c9-0.4,18-1.7,27-2.2c4-0.2,7.3-0.7,10.6-3.8
		c2.1-2,6.4-1.6,9.4-2.9c4-1.7,9.4-2.8,6-10.2c0.6-0.1,1.3-0.1,1.9-0.2c1.6,1.8,3.1,3.6,5.2,6c2.5-1.5,5.7-3.3,8.8-5.1
		c-1.2-12,9.1-18.8,17.7-15c1.1-2.5,2.2-5,3.3-7.5c0.3,0.5,0.7,1,1,1.5c2.9-1.1,5.9-2.3,8.8-3.4c0.8-0.3,1.4-0.9,2.2-1
		c9.9-1.1,19.8-2.2,29.8-3c3.9-0.3,8.1-1,11.6,0.1c4.7,1.5,6.8-2.6,10.3-3.1c5.6-0.9,9.5-8,16.3-4.5c0.5,0.3,1.6-0.1,2.2-0.5
		c2.9-1.8,5.9-2.3,9.4-2.7c2.9-0.3,5.3-5.4,7.9-8.4c0.5,0.3,1.5,0.6,1.6,0.9c0.3,4.7-4.9,12.4-9.4,14.2c-6.9,2.7-14,4.9-20.4,8.3
		c-5.3,2.8-10.8,4.1-16.3,5.9c-3.4,1.1-6.1,4.4-9.5,5.6c-7.1,2.5-14.6,4.1-21.8,6.4c-1.9,0.6-3.1,2.8-4.9,4c-2.7,1.9-7.6-1-8.9,4
		c-5.3-3-8.7,5.7-14.1,2.3c-0.6-0.4-2.2,1.1-3.4,1.5c-1.5,0.5-3.1,0.8-4.6,1.2c-1,1-1.8,2.5-3,2.9c-4.3,1.5-8.6,2.6-13,3.9
		c-0.6,0.2-1.3,0.2-1.9,0.4c-6.6,3.2-13.2,6.4-19.8,9.6c-0.4,0.2-0.9,0.8-1.3,0.7c-6.9-0.7-11.1,5-16.9,7
		c-7.4,2.6-14.9,5.3-22.2,8.3c-5.9,2.4-11.5,5.4-17.4,7.8c-3.1,1.2-6.7,1.1-9.7,2.4c-6.7,2.9-13,6.5-19.6,9.5
		c-2.3,1-5.2,0.5-7.5,1.5c-5.2,2.2-10,5.1-15.2,7.3c-2.7,1.1-5.9,1-8.8,1.6C384.1,185.5,383.6,186.7,383,187.3z"/>
	<path class="st24" d="M501.1,125c-0.2-1-0.4-2-0.5-3.1c0-0.1,1.2-0.4,1.2-0.3c0.5,0.9,0.9,1.9,1.3,2.9
		C502.4,124.6,501.7,124.8,501.1,125z"/>
	<path class="st1" d="M28.7,244.8c0.1,0.7,0.1,1.1,0.2,1.5c-0.2-0.2-0.6-0.3-0.7-0.5C28.1,245.6,28.4,245.3,28.7,244.8z"/>
	<path class="st1" d="M26.3,246.5c0-0.5,0-1,0-1.5c0.1,0,0.3,0,0.4,0c0,0.5,0,1,0,1.5C26.6,246.5,26.4,246.5,26.3,246.5z"/>
	<path class="st1" d="M24.7,245c0,0.5,0,1,0,1.5c-0.1,0-0.3,0-0.4,0c0-0.5,0-1,0-1.5C24.4,245,24.6,245,24.7,245z"/>
	<path class="st1" d="M375.4,103c0.1,0,0.3,0.1,0.4,0.1c0,0.1-0.1,0.3-0.1,0.4c-0.1,0-0.3-0.1-0.4-0.1
		C375.3,103.3,375.3,103.1,375.4,103z"/>
	<path class="st1" d="M18.4,245.7c-0.1-0.3-0.1-0.4-0.2-0.6c0.1,0,0.2-0.1,0.4-0.1C18.6,245.2,18.5,245.4,18.4,245.7z"/>
	<path class="st8" d="M483,497.3c-4.9-2-9.9-3.7-14.6-6.1c-17.6-9.1-35.1-18.4-52.6-27.7c-0.4-0.2-0.6-0.8-0.9-1.2
		c0.6-1.9,1.2-3.8,1.7-5.6c2.1,0.3,4,0.7,5.9,1c-0.2-0.4-0.4-0.8-0.6-1.3c4.7-3.6,9.4-7.3,14.6-11.4c-0.3-3.5,2.7-5.7,8.5-4.8
		c0,0.1-0.1,0.2-0.2,0.3c0.8,0.5,1.5,1,2.3,1.5c0.1-0.2,0.3-0.5,0.4-0.7c-0.8-0.4-1.6-0.8-2.5-1.1c1.1-1.6,2-4.6,3.4-4.8
		c5-1,7.6-4.2,9.7-8.2c1.6,0.1,3.2,0.2,4.8,0.3c0.6,0,1.3-0.1,1.9-0.1c9.2-0.2,18.8,0.8,25.6-9.2c0.4,3.6,0.6,5.6,0.9,7.7
		c6.6,0,13,0,19.7,0c0-10.5,0-20.6,0-30.6c0.8-0.4,1.6-0.9,2.4-1.3c0,0-0.1,0-0.1,0c0.6-0.2,1.3-0.4,1.9-0.6c-0.3-0.2-0.7-0.4-1-0.6
		l0.1,0c-0.3-0.4-0.7-0.8-1-1.2c0.1-0.2,0.3-0.3,0.5-0.2c0,0,0,0,0,0l-0.1,0.3c-0.9-0.1-1.8-0.2-2.7-0.3c0-1.7,0-3.3,0-5
		c0.6-0.7,1.2-1.3,1.9-2c4.5-1.9,9.1-3.8,13.7-5.6c0.3-0.1,0.9,0.4,1.3,0.6c0-0.3,0-0.7,0-1c0.7-1,1.3-2,2-3c0.3-0.3,0.7-0.7,1-1
		c1-1,2-2,3-3c2.7-0.7,5.4-1.4,8.1-2.1c0.4,4.9,1,9.8,1.1,14.7c0.4,12.8,0.5,25.5,0.9,38.3c0,1.4,0.7,2.7,1.1,4.1
		c1.6,0.1,3.2,0.1,4.9,0.2c-2.3,1.9-4.5,4-6.8,5.8c-0.9,0.7-2.2,0.8-3,1.5c-5.2,4.5-10.2,9.2-15.4,13.8c-1,0.9-2.6,1.2-3.8,1.8
		c-4.8,2.3-11.3,7.7-10.6,12.8c1.1,8.4-0.9,16-9,20.8c-2.7,1.6-5.3,3.7-7,6.2c-2,2.9-3.8,3.8-7.3,0.6
		C485.4,492.6,484.2,494.9,483,497.3z M458.7,437c-0.2-0.2-0.5-0.3-0.7-0.5c-0.1,0.3-0.2,0.5-0.2,0.8c0,0.1,0.3,0.3,0.4,0.3
		C458.4,437.4,458.5,437.2,458.7,437z M541.4,376.7c0.1-0.3,0.2-0.5,0.2-0.7c-0.1,0-0.2,0.1-0.4,0.1
		C541.3,376.2,541.3,376.4,541.4,376.7z"/>
	<path class="st25" d="M293,426.4c-1-0.9-3-1.8-3-2.8c-0.1-23.2,0-46.3,0.1-69.5c0-0.1,0.2-0.2,0.5-0.7c6,0,12.3,0,18.9,0
		c0.2,2.3,0.4,4.5,0.6,7.2c12.1-10.1,25.1-10.9,38.7-4.5c2.5,2.3,5.1,4.5,7.9,7c7.7-8.1,17.4-11.5,28.6-11
		c14.7,0.7,25.8,11.3,26.5,25.9c0.4,7.9,0.6,15.9,0.7,23.8c0.1,7.9,0,15.8,0,23.9c-7.2,0-14,0-21.4,0c0-9.1,0-17.8,0-26.6
		c0-4.7,0.1-9.3-0.1-14c-0.4-9.7-4.8-14.8-13-15.1c-8.8-0.3-15.6,5.5-16.1,14.8c-0.5,9.1-0.2,18.3-0.2,27.5c0,4.5,0,9-0.1,13.5
		c-7,0-14.1,0-21.6,0c0-7,0-13.4,0-19.8c0-7.3,0.2-14.7,0-22c-0.3-8.2-4.7-13.3-11.5-14c-8.1-0.7-15.1,3.5-16.6,11.1
		c-1.1,5.8-0.7,11.9-0.9,17.8c0,8.9,0,17.8,0,26.6c-2.6,0.3-4.4,0.5-6.2,0.7c-2.6-0.1-5.3-0.1-7.9-0.2
		C295.7,426.4,294.3,426.4,293,426.4z"/>
	<path class="st23" d="M463.1,427.4c-1.6-0.1-3.2-0.2-4.8-0.3c-3.4-2-6.7-3.9-10.1-5.9c-0.8-1.4-1.6-2.8-2.6-4.2
		c-7.7-11.4-3-26.8,10.1-30.9c6-1.9,12.7-2.2,19.1-2.7c4.9-0.4,9.9-0.1,14.8-0.1c0-11.2-9-14.2-17.4-13.4
		c-6.6,0.7-13.1,2.9-20.8,4.7c-1.8-3.5-4.1-8.1-7.1-14c6.2-2.4,11.8-5.7,17.8-6.5c8.6-1.2,17.6-1.7,26.1-0.3
		c14.7,2.4,21.5,12.1,23,29.5c0,1,0,2,0,3c0,1.7,0,3.3,0,5c0,0.3,0,0.7,0,1c-0.1,0.3-0.1,0.6,0,1c0,0.7,0,1.3,0,2
		c0,10.1,0,20.1,0,30.6c-6.7,0-13.1,0-19.7,0c-0.2-2.1-0.5-4.2-0.9-7.7c-6.8,10-16.4,9-25.6,9.2
		C464.3,427.4,463.7,427.4,463.1,427.4z M489.4,394.9c-6.8,0.4-13.7,0.6-20.6,1.4c-3.5,0.4-5.7,3-6,6.9c-0.3,4,1.2,7.1,4.6,8.6
		c5.8,2.5,11.7,2.1,17-1.6C489.6,406.7,490.9,401.7,489.4,394.9z"/>
	<path class="st23" d="M476,261.3c-4.7-2.5-9.8-4.5-13.9-7.7c-11.1-8.7-15.3-20.4-13.4-34.4c0.1-1,0.1-2,0.1-3
		c0.2-0.2,0.2-0.5,0.2-0.8c0-0.6,0.1-1.1,0.1-1.7c5-11.8,12.7-20.9,25.5-24.8c9.1-2.7,18.1-1.9,27,0.4c5.2,4,11.3,7.2,15.6,12.1
		c6.9,7.9,8.4,17.8,7.3,28.6c-18.2,0-36.1,0-54.5,0c0.6,6.3,4,9.9,8.8,12.1c10.4,4.7,20.3,3.6,29.7-4.1c3.6,3.8,7.1,7.5,10.6,11.2
		c-3.5,7.9-11,10.6-18.4,11.7C492.6,262.2,484.2,261.3,476,261.3z M504.5,218c-1.5-9.3-8.3-14.9-17.8-14.7
		c-9.4,0.2-16,5.9-16.9,14.7C481.4,218,493,218,504.5,218z"/>
	<path class="st26" d="M554.1,188.3c6.5,0,12.9,0,19.6,0c0.2,2.7,0.4,5,0.5,7.3c16.9-12.9,38-10.4,48.7,3c4.1,7.6,5.4,15.9,5.2,24.5
		c-0.2,12.4-0.1,24.9-0.1,37.7c-6.9,0-13.6,0-21.2,0c0-12.9,0-25.7,0-38.6c0-1-0.1-2-0.1-3c-0.2-0.4-0.4-0.8-0.6-1.2
		c-0.7-7.8-5.1-12.1-12.6-12.7c-10.1-0.7-17.8,5.8-18.4,16c-0.4,7.3-0.1,14.6,0,21.9c0,5.8,0,11.6,0,17.7c-7.2,0-13.8,0-21,0
		C554.1,236.7,554.1,212.5,554.1,188.3z"/>
	<path class="st26" d="M550,426.4c-1.6-0.1-3.2-0.1-4.9-0.2c0-24.3,0-48.6,0-72.9c0.3-0.1,0.6-0.1,0.9-0.3c6.1,0,12.2,0,18.6,0
		c0.2,2.9,0.4,5.1,0.6,7.8c9-6.9,18.8-10,29.9-7.9c13.9,2.6,21,10.1,23,24.2c0.1,0.4,0.5,0.8,0.7,1.3c0,15.9,0,31.7,0,47.6
		c-7.2,0-13.8,0-21,0c0-5.8,0-11.2,0-16.7c0-8,0-16,0-24c-0.2-0.7-0.4-1.5-0.6-2.2c-1-2.7-1.4-5.9-3.1-8.1c-4.1-5.3-10-5.4-15.9-4
		c-6.7,1.6-11.3,6.2-11.6,12.8c-0.6,12.9,0,25.9,0.1,38.8c0.1,3-1.3,3.9-4.3,3.8C558.2,426.1,554.1,426.4,550,426.4z"/>
	<path class="st6" d="M340.1,406.3c0,6.4,0,12.8,0,19.8c7.6,0,14.6,0,21.6,0c11.8,9.1,23.5,18.1,35.3,27.2c-3.1,1.3-6.2,2.8-9.4,3.7
		c-0.8,0.2-2.4-1-3.1-2c-1.1-1.4-1.8-3.2-2-3.7c-3.8-0.7-6.8-1.2-9.8-1.7c0.1-0.5,0.1-1,0.2-1.5c-3.1,1.5-6.2,4.6-9.5,0.4
		c-0.1-0.1-3.3,2.2-5.3,3.6c-0.7-1.1-1.4-2.3-2.3-3.6c-1.2,0.5-2.3,1-3.8,1.6c-1.3-5.4-5.3-5.8-9.5-6.6c-1.7-0.3-3.1-2.5-4.9-4.1
		c-5.9,3.2-10-1.5-14.7-4.2c-3.3-1.9-6.6-4-10.1-5.7c-0.5-0.3-2.1,0.7-2.7,1.5c-0.9,1.1-1.3,2.5-3.1,4c-0.7-2.8-1.5-5.7-2.2-8.5
		c1.8-0.2,3.6-0.4,6.2-0.7c0-8.9,0-17.8,0-26.6c3.4-0.7,6.8-1.2,10.1-2.3c4.2-1.3,7.5-1,10.7,2.5C334.2,402.1,337.3,404,340.1,406.3
		z"/>
	<path class="st27" d="M448.1,421.2c3.4,2,6.7,3.9,10.1,5.9c-2.1,4-4.8,7.2-9.7,8.2c-1.4,0.3-2.3,3.2-3.5,4.9
		c-5.8-1-8.7,1.2-8.4,4.7c-5.3,4.1-9.9,7.7-14.6,11.4c0.2,0.4,0.4,0.8,0.6,1.3c-1.9-0.3-3.8-0.6-5.9-1c-0.6,1.8-1.1,3.7-1.7,5.6
		c-5-3-10-6-15-9c1.3-2.6,2.5-5.2,3.8-7.8c-0.3-0.2-0.7-0.4-1-0.5c3.7-2.1,7.4-4.1,11.1-6.2c0.1,0.2,0.7,0.8,1.7,1.9
		c1.9-5.5,5.7-6.2,10.5-5.7c7.8,0.9,14.3-0.7,18.4-8.7C445,424.9,445.1,421.4,448.1,421.2z"/>
	<path class="st9" d="M606.7,219.2c0,1,0.1,2,0.1,3c-0.8,0.1-2,0-2.3,0.5c-4.5,6-11.2,5.3-17.5,5.5c-7.8,0.2-7.7,0.1-7.9,8.1
		c-0.1,3,0,6.1-3.9,7c0-7.3-0.3-14.6,0-21.9c0.5-10.2,8.2-16.7,18.4-16c7.6,0.5,11.9,4.8,12.6,12.7
		C606.3,218.4,606.5,218.8,606.7,219.2z"/>
	<path class="st27" d="M542.1,369.2c-2.7,0.7-5.4,1.4-8.1,2.1c-3.3-6.4-3.1-7.3,2.8-10.5c2.3-1.3,4.8-2.4,7.2-3.5
		c-0.3,3.4-0.6,6.7-0.9,10.1c-0.4,0.3-0.7,0.7-1.1,1C542.1,368.6,542.1,368.9,542.1,369.2z"/>
	<path class="st17" d="M543.1,367.3c0.3-3.4,0.6-6.7,0.9-10.1c0.4-1.3,0.8-2.6,1.2-3.9c0,24.3,0,48.6,0,72.9c-0.4-1.4-1-2.7-1.1-4.1
		c-0.3-12.8-0.5-25.5-0.9-38.3c-0.1-4.9-0.7-9.8-1.1-14.7c0-0.3,0-0.6,0-0.9C542.4,368,542.7,367.7,543.1,367.3z"/>
	<path class="st27" d="M511.1,386.3c0-1,0-2,0-3c0.6,0.3,1.2,0.7,1.8,1C512.4,384.9,511.8,385.6,511.1,386.3z"/>
	<path class="st27" d="M531,374.3c-0.3,0.3-0.7,0.7-1,1C530.3,374.9,530.7,374.6,531,374.3z"/>
	<path class="st27" d="M528,378.3c0,0.3,0,0.7,0,1C528,378.9,528,378.6,528,378.3z"/>
	<path class="st23" d="M96.2,420.3c-0.1,1.8-0.3,3.6-0.5,5.7c-7,0-13.9,0-21.9,0c0-5.8,0-11.7,0-17.6c0-4.4,0-8.7,0-13.1
		c0-10,0-20,0-30c0-11.1,0-22.2,0-34.2c20.8,1.4,41.1-2.5,61,3.2c9.4,4.6,17.1,10.8,20,21.5c4.3,16.1-1.1,29.7-15.3,38.5
		c-0.7,0.4-1.4,0.9-2.6,1.6c3.4,5,6.7,9.8,10,14.7c3.4,4.9,6.7,9.8,10.8,15.7c-8.1,0-15.1,0.3-22.1-0.2c-1.6-0.1-3.1-2.6-4.6-4
		c-3.8-5.6-7.6-11.1-11.3-16.7c-2.2-1.9-4.1-5.1-6.5-5.6c-4.6-0.9-9.6-0.4-14.3-0.1c-1,0.1-1.8,1.8-2.7,2.7
		C96.2,408.3,96.2,414.3,96.2,420.3z M96.3,382.7c9-0.5,17.5-0.3,25.8-1.6c7.9-1.3,12-7.7,11.9-16.1c-0.1-7.9-4.6-14.3-12.2-15.4
		c-8.3-1.2-16.8-1.1-25.5-1.6C96.3,359.9,96.3,370.7,96.3,382.7z"/>
	<path class="st23" d="M240.9,356.3c12.6,7.5,20.1,18,20.1,33.2c0,20.3-14.7,36.1-35.1,37.7c-18.9,1.4-34.5-6.8-41.4-21.7
		c-10.2-22.1,3.2-47.8,27.1-52.2c2.1-0.4,4.3-0.8,6.4-1.1C225.6,353.5,233.3,354.9,240.9,356.3z M202.9,389.7
		c0,12,7.1,20.1,17.9,20.4c11,0.3,19.2-8.5,19.1-20.4c-0.1-11.8-8-20.2-18.9-20.1C210.3,369.5,202.9,377.7,202.9,389.7z"/>
	<path class="st9" d="M73.9,365.3c0,10,0,20,0,30c-11.5-3.6-23.2-6.8-34.6-11c-12.9-4.7-25.5-10.1-38.1-15.5
		c-5.4-2.3-10.6-5.1-15.7-8.1c-1-0.6-1.6-3.2-1.1-4.3c0.6-1.3,2.8-2.9,3.9-2.7c6.2,1.1,12.2,2.9,18.4,4.2c2,0.4,4.2,0.3,6.3,0.3
		c0.7,0,1.7-0.4,2.2-0.1c5.6,3.5,11.5,3.1,17.9,2.7c5.9-0.4,12,1.6,18,2.3c3.8,0.4,7.7,0.2,11.6,0.5
		C66.4,363.9,70.1,364.7,73.9,365.3z"/>
	<path class="st9" d="M-18.8,349.2c2.2-0.5,4.4-1,6.6-1.6c0.1,0.5,0.3,1.1,0.4,1.6c-2.1,0.6-4.3,1.2-6.4,1.8
		C-18.4,350.4-18.6,349.8-18.8,349.2z"/>
	<path class="st18" d="M541,629.3c0.3-1.4,0.6-2.8,0.6-2.9c5.5,0.9,10.6,1.5,15.5,2.7c2.4,0.6,4.5,2.6,6.8,3.5
		c3.1,1.2,6.5,1.6,9.5,2.8c4.4,1.8,9.7,2,13.4,4c6.9,3.7,15,2.7,21.5,7.3c4.5,3.2,10.2,4.7,15.4,6.8c1,0.4,2.2,0.8,3.3,0.7
		c10.1-0.8,18.4,5.1,27.6,7.7c0.8,0.2,1.5,1.1,2.2,1.6c-3.7,1.1-6.8,2.2-10,2.9c-7.9,1.7-15.9,3.3-23.9,4.9c0-0.3,0-0.7,0-1
		c0.9-4.3-2-7.9-6.2-7.8c-1.4,0-2.9-0.7-4.3-0.7c-1.5,0-3,0.4-4.7,0.7c-0.9-1.9-1.7-3.8-2.8-6c-1.4,0.4-2.6,0.8-3.8,1.1
		c0.1-0.4,0.1-0.7,0.2-1.1c-1.8-0.3-3.7-0.6-5.5-1c-0.4-0.1-1.1-0.1-1.3-0.3c-1.2-2-2.4-2.2-5-2c-3.1,0.2-6.3-2.7-9.1-4.2
		c-2.9,0.5-5.6,0.9-8.5,1.4c-0.5-1.6-1.1-3.1-1.7-5c-1.4,0.8-2.7,1.5-4.5,2.5c-0.5-1.8-0.9-3.3-1.2-4.8c0,0.5,0,1-0.1,1.4
		c-3.2-0.2-6.4-0.2-9.5-0.5c-4.1-0.4-6.9-4.6-11.6-3.6c-0.5,0.1-2.1-2.3-2.3-3.7C540.7,634.3,541,631.8,541,629.3z"/>
	<path class="st13" d="M383,579.4c1,0,2,0.1,3,0.1c0.6,0.8,1.2,1.7,1.8,2.5c0.4-0.2,0.9-0.5,1.3-0.7c-0.2,1.2-0.4,2.4-0.6,4
		C385.4,584.1,381.1,584.7,383,579.4z"/>
	<path class="st13" d="M623,670.3c0,0.3,0,0.7,0,1l-0.5,0l-0.5,0C622.3,670.9,622.7,670.6,623,670.3z"/>
	<path class="st7" d="M21,527.3c0.1-0.1,0.2-0.3,0.2-0.4C21.2,527,21.1,527.1,21,527.3L21,527.3z"/>
	<path class="st5" d="M725.6,135.6c-0.3,0.1-0.6,0.4-0.8,0.3c-0.2-0.1-0.2-0.5-0.4-0.8c0.3-0.1,0.6-0.4,0.8-0.3
		C725.5,134.8,725.5,135.3,725.6,135.6z"/>
	<path class="st7" d="M550,426.4c4.1,0,8.2-0.3,12.3-0.1c2.9,0.1,4.3-0.8,4.3-3.8c0.8-1.2,1.6-2.3,2.9-4.3c7.5-1,16.2-2.1,25.8-3.3
		c1.1-1-2.4-5.6,2.6-5.7c0,5.4,0,10.9,0,16.7c7.2,0,13.8,0,21,0c0-15.8,0-31.7,0-47.6c1.2-0.4,2.7-0.5,3.7-1.2
		c5.6-3.9,5.6-3.9,9.3-0.4c6.8-2.3,13-4.5,19.2-6.6c0.6,0.7,1.2,1.4,1.8,2.1c0,6.3,0,12.7,0,19c-0.1,11.4-0.3,22.9-0.4,34.3
		c0,0.2,0.4,0.4,0.7,0.7c3.4,0.2,6.7,0.4,10.1,0.5c-0.8,0.8-1.6,1.7-2.5,2.5c-2.8,2.4-6.2,4.2-8.2,7.1c-1.2,1.8-0.1,5.1-0.5,7.6
		c-0.9,6.4-4.2,12.2-9.8,14.7c-4.8,2.1-8.4,5-11.7,8.7c-1.4,1.6-2.4,3.3-5.3,2.4c-0.9-0.3-3.8,2.4-3.9,3.8c-0.2,3.3-0.6,5.5-4.2,6.5
		c-2.6,0.8-4.9,2.9-7.5,3.9c-4,1.5-8.2,2.4-12.2,3.8c-0.5,0.2-0.9,1.8-0.7,2.5c2,5.9-1.6,8.1-6.1,9.8c-4.1-3.4-7-2.6-10.2,2.1
		c-1.4,2-3.5,4.2-5.7,4.8c-7.6,2.1-11.3,6.9-10.7,15.1c-27.7-5.9-55-13.3-81-24.9c1.2-2.3,2.5-4.7,3.9-7.5c3.5,3.2,5.3,2.3,7.3-0.6
		c1.7-2.5,4.4-4.6,7-6.2c8.1-4.8,10.2-12.3,9-20.8c-0.7-5.1,5.8-10.5,10.6-12.8c1.3-0.6,2.8-0.9,3.8-1.8c5.2-4.5,10.3-9.2,15.4-13.8
		c0.8-0.7,2.2-0.8,3-1.5C545.5,430.4,547.7,428.4,550,426.4z"/>
	<path class="st23" d="M663.2,426.8c-3.4-0.2-6.7-0.4-10.1-0.5c-0.1-11.6-0.2-23.3-0.3-34.9c0-6.3,0-12.7,0-19c0-6,0-12.1,0-18.1
		c5.4-0.4,10.8-0.7,16.2-1.1c1.5,0.2,2.9,0.3,5,0.5c0,23.6,0,47.1,0,70.6c-1.2,0.7-2.4,1.7-3.7,1.9
		C668,426.6,665.5,426.6,663.2,426.8z"/>
	<path class="st23" d="M675.2,336.9c-2.5,2-5,4.1-7.5,6.1c-10.2,0.5-14.9-1.8-17-8.4c-1.6-5-0.1-9.2,3.8-12.4
		c4.3-3.6,9.4-4,14.5-1.9c4.5,1.8,7.4,5,7,10.3C675.8,332.7,675.5,334.8,675.2,336.9z"/>
	<path class="st17" d="M652.8,354.2c0,6,0,12.1,0,18.1c-0.6-0.7-1.2-1.4-1.8-2.1c0.1-4.5,0.1-9,0.3-13.5
		C651.3,355.9,652.2,355,652.8,354.2z"/>
	<path class="st5" d="M-32.4,426.4c3.8,0.7,7.6,1.7,11.5,1.9c3.1,0.2,6.3-0.5,9.5-0.8c1-0.1,2.7-0.5,2.9-0.1c2.4,4.5,6,1.7,9.2,1.8
		c4.3,0.1,8,0.5,9.9,5.5c0.5,1.5,3.5,2.5,5.6,2.8c3.7,0.6,7.5,0.5,11.5,0.7c0.1,6.5,4.2,8,9.4,9.1c5.4,1.1,10.6,4,16,4.8
		c7.7,1.2,15.7,1.4,23.5,1.9c3.3,0.2,5.3,0.9,3.8,4.8c-0.3,0.7,0.9,2.8,1.7,2.9c4.2,0.7,8.5,1,12.8,1.3c6.2,0.4,12.5,0.7,18.8,1.1
		c0.2,2.4,0.4,4.2,0.6,6.9c14.4-0.6,28.7-0.3,41.6,7.9c2-1.5,4-3,6-4.5c-3.6-5.7-7.2-11-10.3-16.6c-0.9-1.6-0.6-3.9-0.8-5.9
		c1.8,0,3.7-0.3,5.5,0c5.4,0.8,10.8,2,16.2,2.5c6.4,0.5,12.9,0.2,19.3,0.7c5.8,0.4,11.9,0.4,17.1,2.5c2.9,1.1,4.2,6.1,6.6,10
		c6.6,0.4,14.3,0.9,21.8,1.4c1.3,7.9,7.5,11.5,15,10.6c6.2-0.7,12.6-0.5,18.8,0.1c7.6,0.8,15.7,0.3,22.2,5.7
		c0.4,0.4,1.6-0.2,2.3-0.1c4.4,0.3,7,3.3,7.4,7.7c0.3,3,1.3,5.9,2,9c5.7-2.3,10.7-1,13.9,3.2c0.5,0.6,1,1.4,1.6,1.5
		c7.5,1.6,15,3.1,22.5,4.6c0.3,0.1,0.8-0.1,1,0c6.2,7.4,15.6,5.4,23.5,8c6.7,2.2,13,5.3,19.4,8.2c2.2,1,4.1,3.1,6.3,3.4
		c2,0.3,4.2-1.3,7-2.3c7.7,2.5,16.2,6.2,25,7.8c8,1.5,16.5,1.5,24.5,0.5c5.2-0.6,8.4,0.7,9.2,5.1c1.5,8.7,8.4,8.9,14.5,11.1
		c3.3,1.2,7.6,1,9.3,5.6c1,2.7,10.3,4.5,12.9,3.1c3,1.8,5.4,5.3,9.9,2.3c1.3-0.9,4.6,1,6.9,1.7c7.2,2.4,14.5,4.7,21.6,7.3
		c0.8,0.3,1.3,1.7,1.9,2.5c-29,0-58,1.2-86.9-0.2c-40.2-2.1-80.2-6.1-120.4-9.5c-8.6-0.7-17.1-2.1-25.7-3.3c-0.4-6.5-0.7-13-1-18.4
		c-5,0.3-8.6,0.6-12.5,0.9c-0.3,0.8-0.8,2-1.6,3.8c-4.3-5.9-6.5-14.4-15.5-10.1c-2.1-2-5.5-5.5-5.7-5.3c-3.6,3-4.5-1.9-6.9-2.1
		c-1.9-0.1-3.7-0.8-6.2-1.4c-4.5,4.7-6.6-2.2-10.1-3.8c-1,0.8-1.9,1.6-2.7,2.2c-3.7-2.5-7-4.7-10.5-7.1c-1,0.7-2.2,1.5-2.7,1.9
		c-5.4-0.4-8.4-8.6-14.3-2.3c-0.3-1.1-0.6-2.2-0.9-3.1c-5.4-1.2-10.6-2.3-15.8-3.4c-0.1,0.5-0.3,1-0.4,1.5
		c5.1,5.9,9.9,12.1,15.4,17.5c2.8,2.7,3.7,4.8,1.7,7.8c-3.6-0.6-8-0.1-10.2-2.1c-2.6-2.4-5.4-2.6-8.1-3.7c-3.3-1.2-6.4-1.7-7,4.9
		c-2.2-2.7-3.4-4.3-4.8-5.7c-1.4-1.5-2.7-3.5-4.5-4.1c-7.3-2.5-14.8-4.6-22.2-6.6c-2.2-0.6-4.7,0.2-7.1,0c-1.5-0.1-3.7-0.3-4.3-1.3
		c-3.9-5.9-7-6.6-12.7-2.2c-0.4-2-0.7-3.9-0.9-5c-10.9-3.4-21.3-6.7-31.6-10c-0.9,1.4-1.8,2.8-3,4.8c-1-4.1-1.7-7.1-2.7-11.3
		c-2.5,2.8-3.7,4.2-4,4.6c-4-1.9-7.2-3.8-10.7-5c-6.7-2.3-13.5-4.2-20.3-6.2c-5.2-1.5-10.7-2.1-15.6-4.2c-6.8-2.9-13.4-6.2-20.8-7.7
		c-4.2-0.9-8.2-2.4-12.2-3.9c-6.2-2.3-12.2-5.2-19.1-5.2c-2,0-3.9-0.6-6.1-0.9c-0.3,2-0.6,3.6-0.8,5.2
		C-21,459.6-26.7,443-32.4,426.4z"/>
	<path class="st27" d="M-15.4,476.2c0.3-1.6,0.5-3.2,0.8-5.2c2.2,0.3,4.1,0.9,6.1,0.9c6.9,0,12.9,2.9,19.1,5.2c4,1.5,8.1,3,12.2,3.9
		c7.4,1.5,14,4.8,20.8,7.7c4.9,2.1,10.4,2.7,15.6,4.2c6.8,1.9,13.6,3.9,20.3,6.2c3.5,1.2,6.7,3.1,10.7,5c0.3-0.4,1.6-1.8,4-4.6
		c1,4.2,1.7,7.2,2.7,11.3c1.3-2,2.1-3.3,3-4.8c10.3,3.3,20.7,6.5,31.6,10c0.2,1.1,0.5,2.9,0.9,5c5.7-4.5,8.8-3.7,12.7,2.2
		c0.6,1,2.8,1.1,4.3,1.3c2.4,0.2,4.9-0.6,7.1,0c7.5,1.9,14.9,4.1,22.2,6.6c1.8,0.6,3.1,2.6,4.5,4.1c1.3,1.4,2.5,3,4.8,5.7
		c0.6-6.6,3.6-6.1,7-4.9c2.8,1,5.5,1.3,8.1,3.7c2.2,2,6.6,1.5,10.2,2.1c2-3,1.1-5.1-1.7-7.8c-5.5-5.5-10.3-11.6-15.4-17.5
		c0.1-0.5,0.3-1,0.4-1.5c5.2,1.1,10.3,2.2,15.8,3.4c0.2,0.9,0.6,1.9,0.9,3.1c5.9-6.3,8.9,2,14.3,2.3c0.5-0.3,1.7-1.2,2.7-1.9
		c3.5,2.3,6.8,4.6,10.5,7.1c0.8-0.6,1.7-1.4,2.7-2.2c3.5,1.6,5.6,8.5,10.1,3.8c2.5,0.6,4.4,1.3,6.2,1.4c2.4,0.1,3.3,5.1,6.9,2.1
		c0.2-0.2,3.6,3.3,5.7,5.3c8.9-4.3,11.2,4.3,15.5,10.1c0.7-1.8,1.3-3.1,1.6-3.8c3.9-0.3,7.4-0.5,12.5-0.9c0.3,5.4,0.7,11.9,1,18.4
		c-14.6-2-29.3-3.7-43.9-6c-51.9-8.2-103.3-18.4-154.1-31.8c-37.1-9.8-73.7-21.3-109.6-35C-11.8,487.6-13.1,481.9-15.4,476.2z"/>
	<path class="st9" d="M449.2,213.7c0,0.6-0.1,1.1-0.1,1.7C449.1,214.9,449.1,214.3,449.2,213.7z"/>
	<path class="st16" d="M663.2,426.8c2.4-0.2,4.8-0.2,7.2-0.6c1.3-0.2,2.5-1.3,3.7-1.9c1-0.9,2.7-1.7,2.8-2.7
		c0.4-3.9,2.7-5.3,6.3-5.4c3.7-0.2,7.5-0.9,11.2-0.7c4.8,0.2,7.7-2.2,9.8-6.1c2.9,10.8,10.7,15.9,21,17.5c10.1,1.6,19.6,0.3,28-8.7
		c0,3.8,0,5.9,0,8c-0.9,3.4-0.9,7.4-6.5,6.6c-0.9-0.1-2.4,3-4,5.1c-8.1,1.8-9,3.2-9,13.3c0,4.6-2.2,8.1-6,10.8
		c-8.7,6.1-17.3,12.2-26,18.3c-4.7,3.3-9.6,6.2-14.2,9.6c-3.1,2.2-5.7,5-8.8,7.2c-1.6,1.2-3.8,1.6-5.7,2.3
		c-17.9-2.5-35.9-5.1-53.8-7.6c-6.3-0.9-12.6-1.7-19.9-2.7c4.7,14.4,9.1,27.9,13.5,41.3c-4.5-0.7-9.1-1.3-13.6-2.1
		c-11.7-2-23.4-4-35.2-6c-0.6-8.2,3.1-13,10.7-15.1c2.2-0.6,4.3-2.8,5.7-4.8c3.2-4.7,6.1-5.5,10.2-2.1c4.5-1.7,8.1-3.9,6.1-9.8
		c-0.2-0.7,0.2-2.3,0.7-2.5c4-1.4,8.2-2.3,12.2-3.8c2.6-1,4.8-3.1,7.5-3.9c3.6-1.1,4.1-3.2,4.2-6.5c0.1-1.4,3-4.1,3.9-3.8
		c2.9,0.8,3.8-0.8,5.3-2.4c3.3-3.7,6.9-6.6,11.7-8.7c5.6-2.5,8.9-8.3,9.8-14.7c0.4-2.6-0.7-5.8,0.5-7.6c2-2.9,5.4-4.8,8.2-7.1
		C661.5,428.5,662.3,427.6,663.2,426.8z"/>
	<path class="st26" d="M753.1,426.1c0-2.1,0-4.2,0-8c-8.4,9-17.9,10.3-28,8.7c-10.3-1.7-18.1-6.7-21-17.5
		c-1.3-18.7,10.3-24.6,26.3-25.8c6.9-0.5,13.9-0.1,20.8-0.1c1-6.5-3-11.7-9.5-13c-9.2-1.8-16.8-0.3-27.4,5.6
		c-2.4-4.7-4.7-9.4-7-14.1c14.4-13.3,44.5-12.5,59.8,1.5c4.5,7.2,6.2,15.2,6.1,23.7c-0.2,13.1-0.1,26.2-0.2,39.3
		C766.3,426.2,759.7,426.1,753.1,426.1z M751.4,394.9c-6.8,0.4-13.6,0.6-20.3,1.3c-3.9,0.4-6,3-6.3,7.2c-0.3,4.5,1.8,7.2,5.7,8.9
		C739.9,416.2,755.1,409.4,751.4,394.9z"/>
	<path class="st0" d="M612.8,530.3c-4.4-13.4-8.8-26.9-13.5-41.3c7.3,1,13.6,1.8,19.9,2.7c17.9,2.5,35.9,5.1,53.8,7.6
		c6.9,1.3,13.8,2.7,20.8,3.7c11.9,1.8,23.8,3.5,35.7,5.2c1.1,0.2,2.3,0.1,3.5,0.1c1.2,0.1,2.4,0.1,3.6,0.2c0.4,0.2,0.8,0.4,1.2,0.6
		c15.4,2.3,30.9,4.7,46.3,7c3.6,0.7,7.2,1.3,11.6,2.1c-3.7,3-6.7,5.5-9.7,8c-9.5,6.9-19.1,13.6-28.6,20.6
		c-9.2,6.8-18.3,13.7-27.4,20.6c-18,13.3-36,26.7-54,40c-10,7.3-20,14.6-30.5,22.2c-6.6-20.2-13.2-40.1-19.8-60.3
		c-7.8,2.1-15.2,4.2-22.6,6.2c2.3-2.2,4.5-4.8,7-6.7c7.1-5.4,14.1-10.6,23.3-12.3c9.7-1.8,19.2-4.4,28.7-6.8
		c26.3-6.5,52.6-13,78.9-19.4c10-2.5,20-4.9,30-7.4c-12.6,0-25.1,0.8-37.6,1.6c-9.5,0.6-19.1,1.2-28.6,1.9
		c-17.4,1.3-34.7,2.6-52.1,3.9c-12.9,1-25.8,2-38.7,3C613.6,532.3,613.2,531.3,612.8,530.3z"/>
	<path class="st26" d="M614,533.2c12.9-1,25.8-2,38.7-3c17.4-1.3,34.7-2.6,52.1-3.9c9.5-0.7,19.1-1.3,28.6-1.9
		c12.5-0.8,25-1.6,37.6-1.6c-10,2.5-20,4.9-30,7.4c-26.3,6.5-52.6,13-78.9,19.4c-9.6,2.3-19.1,5-28.7,6.8c-9.2,1.7-16.2,7-23.3,12.3
		c-2.6,1.9-4.7,4.5-7,6.7c0,0,0-0.1,0-0.1c-0.7,0.3-1.4,0.7-2.1,1c-1.3,0.3-2.5,0.5-3.8,0.8C602.8,562.5,608.4,547.9,614,533.2z"/>
	<path class="st0" d="M601,576.4c0.7-0.3,1.4-0.7,2.1-1C602.4,575.7,601.7,576,601,576.4z"/>
	<path class="st17" d="M736.6,508.5c-1.2-0.1-2.4-0.1-3.6-0.2C734.2,508.3,735.4,508.4,736.6,508.5z"/>
	<path class="st22" d="M248,684.3c5.4-3.4,9.9-7.6,17.7-4.2c10.7,4.7,22.2,7.5,33.3,11.3c1.1,0.4,2.3,1.4,2.9,2.5
		c1.5,2.7,2.7,5.6,4,8.4c-7.5,1.8-13.3-3.7-20.1-4.8c-1.6-0.3-3.1-0.7-4.6-1.3c-3.8-1.4-7.5-3-11.3-4.3c-2.6-1-5.3-1.7-7.9-2.6
		C257.4,687.6,252.7,685.9,248,684.3z"/>
	<path class="st22" d="M135,647.3c5,1,10,1.8,15,2.9c7.6,1.6,15.1,3.3,22.6,5.1c2.4,0.6,5.1,1.4,6.7,3c3.4,3.4,6.5,5.9,11.9,5.3
		c1.8-0.2,3.9,3,5.9,4.7c-5.2-1.3-10.3-2.6-15.5-4c-6-1.7-11.5-4.7-18-5.3c-4.5-0.4-8.6-3.6-13.1-5.2c-3.9-1.4-8.1-2.2-12.1-3.6
		C137.1,649.7,136.1,648.3,135,647.3z"/>
	<path class="st22" d="M198,668.3c2.2-0.2,4.6-1.1,6.6-0.5c6,2,11.7,4.7,17.6,6.9c1.5,0.6,3.3,0.3,4.8,0.7c7.2,1.7,15.1,2.1,20,9
		c-2-0.1-4,0.1-5.9-0.4c-5.2-1.4-10.4-3-15.5-4.7c-2.7-0.9-5.4-2.1-8.1-3.2C211,673.4,204.5,670.8,198,668.3z"/>
	<path class="st22" d="M96,636.3c0.9-1,2.1-2.9,2.6-2.7c4.4,1.6,10.1,1.1,12.4,6.7c-4.3-1-8.5-1.9-12.8-2.9
		C97.4,637.2,96.7,636.6,96,636.3z"/>
	<path class="st22" d="M115,641.3c1.6-2.5,3.4-2.7,5.4-0.5c1.3,1.4,2.4,3,3.6,4.5C120,646.1,117.2,644.5,115,641.3z"/>
	<path class="st22" d="M127,645.3c3.8-4.6,5,0.1,7,2C130.8,649.8,129.4,645.8,127,645.3z"/>
	<path class="st22" d="M306,702.3c0.7,0.7,1.3,1.3,2,2c-0.4,0.5-0.9,1-1.3,1.4C306.5,704.6,306.2,703.4,306,702.3z"/>
	<ellipse class="st10" cx="800.5" cy="166.8" rx="0.3" ry="1.1"/>
	<path class="st10" d="M748.6,205.6c-0.1,0-0.3-0.1-0.3-0.1c0-0.1,0.1-0.3,0.1-0.4c0.1,0,0.3,0.1,0.3,0.1
		C748.7,205.3,748.7,205.4,748.6,205.6z"/>
	<path class="st12" d="M707.6-23c-0.1,0.3-0.2,0.6-0.4,0.8c-0.3-0.1-0.7-0.2-0.8-0.4c-0.1-0.2,0.2-0.5,0.3-0.8
		C707-23.2,707.3-23.1,707.6-23z"/>
	<path class="st16" d="M406.2,731.3c-0.3-0.4-0.7-0.8-0.7-1.1c0.1-0.3,0.8-0.8,0.9-0.7c0.4,0.2,0.7,0.7,1.1,1.1
		C407.1,730.8,406.8,731,406.2,731.3z"/>
	<path class="st1" d="M488.8-8.1c-1,0.3-2,0.7-2.9,1c-0.2-0.6-0.4-1.1-0.5-1.7c1-0.3,2-0.6,3-0.9C488.5-9.1,488.6-8.6,488.8-8.1z"/>
	<path class="st1" d="M637.8-57.7c-0.1,0.1-0.2,0.2-0.3,0.3c-0.1-0.1-0.2-0.3-0.2-0.4c0-0.1,0.2-0.2,0.3-0.3
		C637.6-58,637.7-57.8,637.8-57.7z"/>
	<path class="st1" d="M165.7,71.4c-0.1,0-0.3,0.1-0.4,0.1c-0.1-0.1-0.1-0.3-0.1-0.4c0.1,0,0.3-0.1,0.4-0.1
		C165.7,71.1,165.7,71.3,165.7,71.4z"/>
	<path class="st2" d="M295.7,39.4c-0.1,0-0.3,0.1-0.4,0.1c-0.1-0.1-0.1-0.3-0.1-0.4c0.1,0,0.3-0.1,0.4-0.1
		C295.7,39.1,295.7,39.3,295.7,39.4z"/>
	<path class="st12" d="M96.2,420.3c0-6,0-12-0.1-18c7.9,1,15.7,2,23.6,3c3.8,5.6,7.5,11.1,11.3,16.7c-0.5,2-1.1,4.1-1.5,5.8
		c-8.6-0.5-16.6-1.1-24.7-1.3c-3.8-0.1-6.4-1.1-7.2-5.2C97.7,420.9,96.8,420.6,96.2,420.3z"/>
	<path class="st6" d="M293,426.4c1.3,0,2.7,0,4,0c-0.9,0.9-1.8,1.8-2.7,2.7C293.9,428.2,293.5,427.3,293,426.4z"/>
	<path class="st21" d="M293.5,213.8c0.1,17-12.5,29.5-29.7,29.5c-16.8,0-29.2-12.2-29.5-29.2c-0.4-16.7,12.5-29.7,29.5-29.7
		C281,184.2,293.4,196.6,293.5,213.8z"/>
	<path class="st12" d="M403.2,224.9c0,14.1-9.7,22.3-23,19.4c-1.3-0.3-2.6-0.8-3.7-1.3c-10-4.9-11.7-17.9-8.2-27.1
		c3.6-9.3,13.3-13.4,23.1-10.3C398.9,208,403.2,215,403.2,224.9z"/>
	<path class="st27" d="M511.1,392.3c0-0.3,0-0.7,0-1c0.9,0.1,1.8,0.2,2.7,0.3c0,0-0.3,0.1-0.3,0.1l-0.1-0.2c0.3,0.4,0.7,0.8,1,1.3
		c0,0,0-0.1,0-0.1c-0.3,0.4-0.7,0.8-1,1.2c0,0,0.1,0,0.1,0c-0.8,0.4-1.6,0.9-2.4,1.3c0-0.7,0-1.3,0-2c0.1-0.1,0.3-0.2,0.3-0.3
		C511.4,392.7,511.3,392.5,511.1,392.3z"/>
	<path class="st27" d="M445.1,440.1c0.8,0.4,1.6,0.8,2.4,1.2c-0.1,0.2-0.3,0.5-0.4,0.7c-0.8-0.5-1.5-1-2.3-1.5
		C444.9,440.4,445,440.2,445.1,440.1z"/>
	<path class="st27" d="M514.4,392.7c0.3,0.2,0.7,0.4,1,0.6c-0.6,0.2-1.3,0.4-1.9,0.6c0,0,0-0.1,0-0.1c0.3-0.4,0.7-0.8,1-1.2
		C514.5,392.7,514.4,392.7,514.4,392.7z"/>
	<path class="st27" d="M458.7,437.1c-0.2,0.2-0.3,0.4-0.5,0.5c0,0-0.4-0.2-0.4-0.3c0-0.3,0.1-0.5,0.2-0.8
		C458.2,436.7,458.4,436.9,458.7,437.1z"/>
	<path class="st27" d="M463.1,427.4c0.6,0,1.3-0.1,1.9-0.1C464.3,427.4,463.7,427.4,463.1,427.4z"/>
	<path class="st27" d="M541.4,376.7c-0.1-0.3-0.1-0.4-0.2-0.6c0.1,0,0.2-0.1,0.4-0.1C541.6,376.2,541.5,376.4,541.4,376.7z"/>
	<polygon class="st23" points="513.5,393.9 513.5,394 513.6,393.9 	"/>
	<polygon class="st23" points="514.4,392.7 514.5,392.7 514.5,392.8 	"/>
	<path class="st23" d="M513.5,391.5l0.1,0.2c0,0,0.3-0.1,0.3-0.1c0,0,0.1-0.3,0.1-0.3l0,0C513.8,391.2,513.6,391.3,513.5,391.5z"/>
	<path class="st23" d="M514,391.3C514,391.3,514,391.3,514,391.3C514,391.3,514,391.3,514,391.3z"/>
	<path class="st5" d="M340.1,406.3c-2.8-2.2-5.9-4.2-8.2-6.8c-3.2-3.5-6.5-3.8-10.7-2.5c-3.3,1-6.7,1.5-10.1,2.3
		c0.3-6-0.1-12,0.9-17.8c1.4-7.6,8.5-11.9,16.6-11.1c6.8,0.6,11.2,5.8,11.5,14C340.3,391.6,340.1,398.9,340.1,406.3z"/>
	<path class="st18" d="M489.4,394.9c1.5,6.8,0.2,11.8-4.9,15.3c-5.3,3.6-11.2,4.1-17,1.6c-3.5-1.5-5-4.6-4.6-8.6
		c0.3-3.9,2.5-6.4,6-6.9C475.6,395.5,482.5,395.4,489.4,394.9z"/>
	<path class="st8" d="M511.1,392.3c0.1,0.2,0.2,0.4,0.3,0.7c0,0.1-0.2,0.2-0.3,0.3C511,392.9,511,392.6,511.1,392.3z"/>
	<path class="st9" d="M504.5,218c-11.6,0-23.1,0-34.7,0c0.9-8.8,7.6-14.6,16.9-14.7C496.2,203.1,503,208.7,504.5,218z"/>
	<path class="st5" d="M606.7,219.2c-0.2-0.4-0.4-0.8-0.6-1.2C606.3,218.4,606.5,218.8,606.7,219.2z"/>
	<path class="st8" d="M597.8,409.3c-5,0.1-1.4,4.7-2.6,5.7c-9.6,1.2-18.3,2.3-25.8,3.3c-1.3,2-2.1,3.1-2.9,4.3
		c-0.1-12.9-0.7-25.9-0.1-38.8c0.3-6.6,5-11.2,11.6-12.8c5.9-1.4,11.8-1.3,15.9,4c1.7,2.2,2.1,5.4,3.1,8.1c0.2,0.7,0.4,1.5,0.6,2.2
		C597.7,393.2,597.8,401.2,597.8,409.3z"/>
	<path class="st7" d="M597.7,385.2c-0.2-0.7-0.4-1.5-0.6-2.2C597.3,383.7,597.5,384.5,597.7,385.2z"/>
	<path class="st8" d="M543.1,367.3c-0.4,0.3-0.7,0.7-1.1,1C542.4,368,542.7,367.7,543.1,367.3z"/>
	<path class="st9" d="M96.3,382.7c0-12,0-22.9,0-34.7c8.7,0.5,17.2,0.4,25.5,1.6c7.6,1.1,12.1,7.5,12.2,15.4
		c0.1,8.4-4,14.8-11.9,16.1C113.8,382.4,105.3,382.2,96.3,382.7z"/>
	<path class="st9" d="M119.8,405.3c-7.9-1-15.7-2-23.6-3c0.9-0.9,1.8-2.7,2.7-2.7c4.8-0.3,9.7-0.8,14.3,0.1
		C115.7,400.2,117.6,403.3,119.8,405.3z"/>
	<path class="st9" d="M202.9,389.7c0-11.9,7.4-20.1,18.1-20.2c10.9-0.1,18.8,8.4,18.9,20.1c0.1,11.9-8.2,20.7-19.1,20.4
		C210,409.8,202.8,401.6,202.9,389.7z"/>
	<path class="st17" d="M652.8,391.3c0.1,11.6,0.2,23.3,0.3,34.9c-0.2-0.2-0.7-0.4-0.7-0.7C652.5,414.2,652.7,402.7,652.8,391.3z"/>
	<path class="st16" d="M751.4,394.9c3.7,14.5-11.5,21.2-20.9,17.3c-3.9-1.6-6-4.4-5.7-8.9c0.3-4.1,2.4-6.7,6.3-7.2
		C737.8,395.5,744.5,395.3,751.4,394.9z"/>
</g>
</svg>
